<?xml version="1.0" encoding="UTF-8" standalone="no"?>
<svg width="90px" height="59px" viewBox="0 0 90 59" version="1.1" xmlns="http://www.w3.org/2000/svg" xmlns:xlink="http://www.w3.org/1999/xlink">
    <!-- Generator: Sketch 43.2 (39069) - http://www.bohemiancoding.com/sketch -->
    <title>Shape</title>
    <desc>Created with Sketch.</desc>
    <defs></defs>
    <g id="Ript-&amp;-Canva" stroke="none" stroke-width="1" fill="none" fill-rule="evenodd">
        <g id="Artboard" transform="translate(-563.000000, -258.000000)" fill-rule="nonzero" fill="#FFFFFF">
            <path d="M648,258 L568,258 C565.239,258 563,260.239 563,263 L563,312 C563,314.761 565.239,317 568,317 L648,317 C650.761,317 653,314.761 653,312 L653,263 C653,260.239 650.761,258 648,258 Z M650,311.879 L624.178,286.057 L650,265.4 L650,311.879 Z M594.152,287.922 L608,299 L621.848,287.922 C621.883,287.966 621.899,288.02 621.94,288.061 L647.879,314 L568.121,314 L594.06,288.061 C594.102,288.02 594.117,287.966 594.152,287.922 Z M648,261 C648.155,261 648.306,261.022 648.451,261.056 C648.497,261.067 648.54,261.084 648.586,261.098 C648.683,261.128 648.778,261.163 648.868,261.207 C648.915,261.23 648.96,261.255 649.005,261.282 C649.088,261.331 649.168,261.386 649.243,261.447 C649.282,261.478 649.322,261.508 649.358,261.541 C649.44,261.617 649.513,261.701 649.581,261.79 C649.598,261.811 649.617,261.831 649.633,261.853 L608,295.158 L566.367,261.852 C566.383,261.83 566.402,261.811 566.419,261.789 C566.487,261.7 566.561,261.616 566.642,261.54 C566.678,261.507 566.718,261.477 566.757,261.446 C566.832,261.386 566.911,261.33 566.995,261.281 C567.04,261.255 567.085,261.229 567.132,261.206 C567.222,261.162 567.317,261.127 567.414,261.097 C567.459,261.083 567.503,261.066 567.549,261.055 C567.694,261.022 567.845,261 568,261 L648,261 Z M591.822,286.057 L566,311.879 L566,265.4 L591.822,286.057 Z" id="Shape"></path>
        </g>
    </g>
</svg>