<?xml version="1.0" encoding="UTF-8" standalone="no"?>
<svg width="52px" height="60px" viewBox="0 0 52 60" version="1.1" xmlns="http://www.w3.org/2000/svg" xmlns:xlink="http://www.w3.org/1999/xlink">
    <!-- Generator: Sketch 43.2 (39069) - http://www.bohemiancoding.com/sketch -->
    <title>Home</title>
    <desc>Created with Sketch.</desc>
    <defs></defs>
    <g id="Ript-&amp;-Canva" stroke="none" stroke-width="1" fill="none" fill-rule="evenodd">
        <g id="Artboard" transform="translate(-360.000000, -248.000000)" stroke-width="4" stroke="#FFFFFF" fill-rule="nonzero">
            <g id="Home" transform="translate(362.000000, 250.000000)">
                <path d="M46.4219677,19.2985312 L46.4219677,19.2985312 L25.8577742,0.74303125 C25.2729355,0.2839375 24.5237097,0.0110625 23.7065161,0.0110625 C22.8956452,0.0110625 22.1432581,0.2839375 21.5615806,0.74303125 C21.5615806,0.74303125 1.59487097,18.7712187 1.21551613,19.10125 L1.21235484,19.1067812 C0.478935484,19.8221562 0.0173870968,20.8989062 0.0173870968,22.0991875 L0.0173870968,23.2367812 L0.0173870968,46.1859375 L0.0173870968,51.4203437 C0.0173870968,53.5849062 1.52690323,55.342 3.39206452,55.342 L12.4428387,55.342 C14.3095806,55.342 15.8238387,53.58675 15.8238387,51.4203437 L15.8238387,37.103625 C15.8238387,34.935375 17.3365161,33.1819687 19.2016774,33.1819687 L28.2160968,33.1819687 C30.0828387,33.1819687 31.5970968,34.9372187 31.5970968,37.103625 L31.5970968,51.4203437 C31.5970968,53.5885937 33.1081935,55.342 34.9749355,55.342 L44.0257097,55.342 C45.8924516,55.342 47.4035484,53.5830625 47.4035484,51.4203437 L47.4035484,46.1859375 L47.4035484,23.2367812 L47.4035484,22.3425625 L47.4035484,21.8060312 C47.3482258,20.8288437 46.9830968,19.949375 46.4219677,19.2985312 L46.4219677,19.2985312 Z"></path>
            </g>
        </g>
    </g>
</svg>