<svg width="37" height="37" viewBox="0 0 37 37" fill="none" xmlns="http://www.w3.org/2000/svg">
<path d="M1.14062 28.9632H1.87109L3.73438 33.5999L5.59375 28.9632H6.32812L4.01562 34.6507H3.44531L1.14062 28.9632ZM0.902344 28.9632H1.54688L1.65234 32.4319V34.6507H0.902344V28.9632ZM5.91797 28.9632H6.5625V34.6507H5.8125V32.4319L5.91797 28.9632ZM10.2695 33.928V31.7522C10.2695 31.5856 10.2357 31.441 10.168 31.3186C10.1029 31.1936 10.0039 31.0973 9.87109 31.0296C9.73828 30.9619 9.57422 30.928 9.37891 30.928C9.19661 30.928 9.03646 30.9593 8.89844 31.0218C8.76302 31.0843 8.65625 31.1663 8.57812 31.2679C8.5026 31.3694 8.46484 31.4788 8.46484 31.596H7.74219C7.74219 31.4449 7.78125 31.2952 7.85938 31.1468C7.9375 30.9983 8.04948 30.8642 8.19531 30.7444C8.34375 30.622 8.52083 30.5257 8.72656 30.4554C8.9349 30.3824 9.16667 30.346 9.42188 30.346C9.72917 30.346 10 30.3981 10.2344 30.5022C10.4714 30.6064 10.6562 30.7639 10.7891 30.9749C10.9245 31.1832 10.9922 31.4449 10.9922 31.76V33.7288C10.9922 33.8694 11.0039 34.0192 11.0273 34.178C11.0534 34.3369 11.0911 34.4736 11.1406 34.5882V34.6507H10.3867C10.3503 34.5673 10.3216 34.4567 10.3008 34.3186C10.2799 34.178 10.2695 34.0478 10.2695 33.928ZM10.3945 32.0882L10.4023 32.596H9.67188C9.46615 32.596 9.28255 32.6129 9.12109 32.6468C8.95964 32.678 8.82422 32.7262 8.71484 32.7913C8.60547 32.8564 8.52214 32.9384 8.46484 33.0374C8.40755 33.1337 8.37891 33.247 8.37891 33.3772C8.37891 33.51 8.40885 33.6311 8.46875 33.7405C8.52865 33.8499 8.61849 33.9371 8.73828 34.0022C8.86068 34.0647 9.01042 34.096 9.1875 34.096C9.40885 34.096 9.60417 34.0491 9.77344 33.9554C9.94271 33.8616 10.0768 33.747 10.1758 33.6116C10.2773 33.4762 10.332 33.3447 10.3398 33.2171L10.6484 33.5647C10.6302 33.6741 10.5807 33.7952 10.5 33.928C10.4193 34.0608 10.3112 34.1884 10.1758 34.3108C10.043 34.4306 9.88411 34.5309 9.69922 34.6116C9.51693 34.6897 9.3112 34.7288 9.08203 34.7288C8.79557 34.7288 8.54427 34.6728 8.32812 34.5608C8.11458 34.4488 7.94792 34.2991 7.82812 34.1116C7.71094 33.9215 7.65234 33.7093 7.65234 33.4749C7.65234 33.2483 7.69661 33.0491 7.78516 32.8772C7.8737 32.7027 8.0013 32.5582 8.16797 32.4436C8.33464 32.3264 8.53516 32.2379 8.76953 32.178C9.00391 32.1181 9.26562 32.0882 9.55469 32.0882H10.3945ZM13.8984 30.4241V30.9788H11.6133V30.4241H13.8984ZM12.3867 29.3968H13.1094V33.6038C13.1094 33.747 13.1315 33.8551 13.1758 33.928C13.2201 34.0009 13.2773 34.0491 13.3477 34.0725C13.418 34.096 13.4935 34.1077 13.5742 34.1077C13.6341 34.1077 13.6966 34.1025 13.7617 34.0921C13.8294 34.0791 13.8802 34.0686 13.9141 34.0608L13.918 34.6507C13.8607 34.6689 13.7852 34.6858 13.6914 34.7014C13.6003 34.7197 13.4896 34.7288 13.3594 34.7288C13.1823 34.7288 13.0195 34.6936 12.8711 34.6233C12.7227 34.553 12.6042 34.4358 12.5156 34.2718C12.4297 34.1051 12.3867 33.8811 12.3867 33.5999V29.3968ZM16.5 34.7288C16.2057 34.7288 15.9388 34.6793 15.6992 34.5804C15.4622 34.4788 15.2578 34.3369 15.0859 34.1546C14.9167 33.9723 14.7865 33.7561 14.6953 33.5061C14.6042 33.2561 14.5586 32.9827 14.5586 32.6858V32.5218C14.5586 32.178 14.6094 31.872 14.7109 31.6038C14.8125 31.333 14.9505 31.1038 15.125 30.9163C15.2995 30.7288 15.4974 30.5869 15.7188 30.4905C15.9401 30.3942 16.1693 30.346 16.4062 30.346C16.7083 30.346 16.9688 30.3981 17.1875 30.5022C17.4089 30.6064 17.5898 30.7522 17.7305 30.9397C17.8711 31.1246 17.9753 31.3434 18.043 31.596C18.1107 31.846 18.1445 32.1194 18.1445 32.4163V32.7405H14.9883V32.1507H17.4219V32.096C17.4115 31.9085 17.3724 31.7262 17.3047 31.5491C17.2396 31.372 17.1354 31.2262 16.9922 31.1116C16.849 30.997 16.6536 30.9397 16.4062 30.9397C16.2422 30.9397 16.0911 30.9749 15.9531 31.0452C15.8151 31.1129 15.6966 31.2145 15.5977 31.3499C15.4987 31.4853 15.4219 31.6507 15.3672 31.846C15.3125 32.0413 15.2852 32.2666 15.2852 32.5218V32.6858C15.2852 32.8863 15.3125 33.0751 15.3672 33.2522C15.4245 33.4267 15.5065 33.5804 15.6133 33.7132C15.7227 33.846 15.8542 33.9501 16.0078 34.0257C16.1641 34.1012 16.3411 34.1389 16.5391 34.1389C16.7943 34.1389 17.0104 34.0869 17.1875 33.9827C17.3646 33.8785 17.5195 33.7392 17.6523 33.5647L18.0898 33.9124C17.9987 34.0504 17.8828 34.1819 17.7422 34.3069C17.6016 34.4319 17.4284 34.5335 17.2227 34.6116C17.0195 34.6897 16.7786 34.7288 16.5 34.7288ZM19.7109 31.0882V34.6507H18.9883V30.4241H19.6914L19.7109 31.0882ZM21.0312 30.4007L21.0273 31.0725C20.9674 31.0595 20.9102 31.0517 20.8555 31.0491C20.8034 31.0439 20.7435 31.0413 20.6758 31.0413C20.5091 31.0413 20.362 31.0673 20.2344 31.1194C20.1068 31.1715 19.9987 31.2444 19.9102 31.3382C19.8216 31.4319 19.7513 31.5439 19.6992 31.6741C19.6497 31.8017 19.6172 31.9423 19.6016 32.096L19.3984 32.2132C19.3984 31.958 19.4232 31.7184 19.4727 31.4944C19.5247 31.2705 19.6042 31.0725 19.7109 30.9007C19.8177 30.7262 19.9531 30.5908 20.1172 30.4944C20.2839 30.3955 20.4818 30.346 20.7109 30.346C20.763 30.346 20.8229 30.3525 20.8906 30.3655C20.9583 30.3759 21.0052 30.3876 21.0312 30.4007ZM22.4844 30.4241V34.6507H21.7578V30.4241H22.4844ZM21.7031 29.303C21.7031 29.1858 21.7383 29.0869 21.8086 29.0061C21.8815 28.9254 21.9883 28.885 22.1289 28.885C22.2669 28.885 22.3724 28.9254 22.4453 29.0061C22.5208 29.0869 22.5586 29.1858 22.5586 29.303C22.5586 29.415 22.5208 29.5113 22.4453 29.5921C22.3724 29.6702 22.2669 29.7093 22.1289 29.7093C21.9883 29.7093 21.8815 29.6702 21.8086 29.5921C21.7383 29.5113 21.7031 29.415 21.7031 29.303ZM26.1367 33.928V31.7522C26.1367 31.5856 26.1029 31.441 26.0352 31.3186C25.9701 31.1936 25.8711 31.0973 25.7383 31.0296C25.6055 30.9619 25.4414 30.928 25.2461 30.928C25.0638 30.928 24.9036 30.9593 24.7656 31.0218C24.6302 31.0843 24.5234 31.1663 24.4453 31.2679C24.3698 31.3694 24.332 31.4788 24.332 31.596H23.6094C23.6094 31.4449 23.6484 31.2952 23.7266 31.1468C23.8047 30.9983 23.9167 30.8642 24.0625 30.7444C24.2109 30.622 24.388 30.5257 24.5938 30.4554C24.8021 30.3824 25.0339 30.346 25.2891 30.346C25.5964 30.346 25.8672 30.3981 26.1016 30.5022C26.3385 30.6064 26.5234 30.7639 26.6562 30.9749C26.7917 31.1832 26.8594 31.4449 26.8594 31.76V33.7288C26.8594 33.8694 26.8711 34.0192 26.8945 34.178C26.9206 34.3369 26.9583 34.4736 27.0078 34.5882V34.6507H26.2539C26.2174 34.5673 26.1888 34.4567 26.168 34.3186C26.1471 34.178 26.1367 34.0478 26.1367 33.928ZM26.2617 32.0882L26.2695 32.596H25.5391C25.3333 32.596 25.1497 32.6129 24.9883 32.6468C24.8268 32.678 24.6914 32.7262 24.582 32.7913C24.4727 32.8564 24.3893 32.9384 24.332 33.0374C24.2747 33.1337 24.2461 33.247 24.2461 33.3772C24.2461 33.51 24.276 33.6311 24.3359 33.7405C24.3958 33.8499 24.4857 33.9371 24.6055 34.0022C24.7279 34.0647 24.8776 34.096 25.0547 34.096C25.276 34.096 25.4714 34.0491 25.6406 33.9554C25.8099 33.8616 25.944 33.747 26.043 33.6116C26.1445 33.4762 26.1992 33.3447 26.207 33.2171L26.5156 33.5647C26.4974 33.6741 26.4479 33.7952 26.3672 33.928C26.2865 34.0608 26.1784 34.1884 26.043 34.3108C25.9102 34.4306 25.7513 34.5309 25.5664 34.6116C25.3841 34.6897 25.1784 34.7288 24.9492 34.7288C24.6628 34.7288 24.4115 34.6728 24.1953 34.5608C23.9818 34.4488 23.8151 34.2991 23.6953 34.1116C23.5781 33.9215 23.5195 33.7093 23.5195 33.4749C23.5195 33.2483 23.5638 33.0491 23.6523 32.8772C23.7409 32.7027 23.8685 32.5582 24.0352 32.4436C24.2018 32.3264 24.4023 32.2379 24.6367 32.178C24.8711 32.1181 25.1328 32.0882 25.4219 32.0882H26.2617ZM28.7812 28.6507V34.6507H28.0547V28.6507H28.7812ZM33.3047 28.9632H34.0547V32.8108C34.0547 33.2379 33.9596 33.5934 33.7695 33.8772C33.5794 34.1611 33.3268 34.3746 33.0117 34.5179C32.6992 34.6585 32.3594 34.7288 31.9922 34.7288C31.6068 34.7288 31.2578 34.6585 30.9453 34.5179C30.6354 34.3746 30.3893 34.1611 30.207 33.8772C30.0273 33.5934 29.9375 33.2379 29.9375 32.8108V28.9632H30.6836V32.8108C30.6836 33.1077 30.7383 33.3525 30.8477 33.5452C30.957 33.7379 31.1094 33.8811 31.3047 33.9749C31.5026 34.0686 31.7318 34.1155 31.9922 34.1155C32.2552 34.1155 32.4844 34.0686 32.6797 33.9749C32.8776 33.8811 33.0312 33.7379 33.1406 33.5452C33.25 33.3525 33.3047 33.1077 33.3047 32.8108V28.9632ZM36.0469 28.9632V34.6507H35.293V28.9632H36.0469Z" fill="#1E1E1E"/>
<g clip-path="url(#clip0_26_113)">
<path d="M4.00037 3.13369V14.8224L7.37537 16.7721V8.97807L14.1254 12.8762L20.8754 8.97807V12.8762L14.1254 16.7721V20.6691L20.8754 24.5649L31.0004 18.7206V10.9266L27.6254 12.8762V16.7721L20.8754 20.6691L17.5004 18.7206L24.2504 14.8224V3.13369L14.1254 8.97807L4.00037 3.13369ZM31.0004 3.13369L27.6254 5.07994V8.97807L31.0004 7.02957V3.13369Z" fill="black"/>
</g>
<defs>
<clipPath id="clip0_26_113">
<rect width="27" height="27" fill="white" transform="translate(4.00037 0.349304)"/>
</clipPath>
</defs>
</svg>
