<?xml version="1.0" encoding="UTF-8" standalone="no"?>
<svg width="90px" height="79px" viewBox="0 0 90 79" version="1.1" xmlns="http://www.w3.org/2000/svg" xmlns:xlink="http://www.w3.org/1999/xlink">
    <!-- Generator: Sketch 43.2 (39069) - http://www.bohemiancoding.com/sketch -->
    <title>noun_734660_cc</title>
    <desc>Created with Sketch.</desc>
    <defs></defs>
    <g id="Ript-&amp;-Canva" stroke="none" stroke-width="1" fill="none" fill-rule="evenodd">
        <g id="Artboard" transform="translate(-681.000000, -238.000000)" fill-rule="nonzero" fill="#FFFFFF">
            <g id="noun_734660_cc" transform="translate(681.000000, 238.000000)">
                <path d="M43.5708,16.9390698 L34.731,16.9390698 L34.731,14.2530698 L43.5708,14.2530698 L43.5708,16.9390698 L43.5708,16.9390698 Z M72.1467,19.3981744 L34.7319,19.3981744 L34.7319,22.0841744 L72.1476,22.0841744 L72.1476,19.3981744 L72.1467,19.3981744 Z M72.1467,24.5396047 L34.7319,24.5396047 L34.7319,27.2256047 L72.1476,27.2256047 L72.1476,24.5396047 L72.1467,24.5396047 Z M72.1467,29.6847093 L34.7319,29.6847093 L34.7319,32.3707093 L72.1476,32.3707093 L72.1476,29.6847093 L72.1467,29.6847093 Z M89.2899,38.3398023 L89.2755,38.5409767 L83.8944,74.7918721 C83.835,76.6952209 82.3014,78.2246977 80.4231,78.2246977 L8.5014,78.2246977 C6.6204,78.2246977 5.0832,76.6906279 5.0283,74.7845233 L0.7101,43.480314 C0.7101,41.5255233 2.268,39.9354186 4.1841,39.9354186 L5.0265,39.9354186 L5.0265,22.189814 C5.0265,20.2350233 6.5853,18.6449186 8.5014,18.6449186 L27.6201,18.6449186 L27.6201,0.775302326 L65.7045,0.775302326 L79.4628,14.8198488 L79.4628,18.6449186 L80.4222,18.6449186 C82.3365,18.6449186 83.8953,20.2350233 83.8953,22.189814 L83.8953,34.7958256 L85.8177,34.7958256 C87.732,34.7958256 89.2899,36.3850116 89.2899,38.3398023 Z M79.4628,21.3309186 L79.4628,34.7958256 L81.2637,34.7958256 L81.2637,22.189814 C81.2637,21.7167326 80.8857,21.3309186 80.4222,21.3309186 L79.4628,21.3309186 Z M66.4758,5.36097674 L66.4758,14.0326047 L74.9709,14.0326047 L66.4758,5.36097674 Z M30.2517,3.46130233 L30.2517,39.9354186 L45.504,39.9354186 L46.9665,37.5139767 L34.7319,37.5139767 L34.7319,34.8279767 L48.5901,34.8279767 L48.6099,34.7958256 L76.8321,34.7958256 L76.8321,16.7195233 L65.16,16.7195233 L63.8442,15.3765233 L63.8442,3.46222093 L30.2517,3.46222093 L30.2517,3.46130233 Z M27.6201,27.3817674 L13.0842,27.3817674 L13.0842,39.9354186 L27.6201,39.9354186 L27.6201,27.3817674 Z M7.6581,39.9354186 L10.4526,39.9354186 L10.4526,24.6957674 L27.6201,24.6957674 L27.6201,21.3309186 L8.5014,21.3309186 C8.0361,21.3309186 7.6581,21.715814 7.6581,22.189814 L7.6581,39.9354186 Z M86.6547,38.2617209 C86.616,37.8244651 86.2551,37.4818256 85.8186,37.4818256 L50.0778,37.4818256 L46.9719,42.6214186 L4.1841,42.6214186 C3.744,42.6214186 3.3813,42.9677326 3.3444,43.4077442 L7.6581,74.6788837 C7.6581,75.1528837 8.0361,75.5386977 8.5014,75.5386977 L80.4231,75.5386977 C80.8866,75.5386977 81.2646,75.1528837 81.2646,74.6788837 L81.279,74.4777093 L86.6547,38.2617209 Z" id="Shape"></path>
            </g>
        </g>
    </g>
</svg>