<svg width="48" height="40" viewBox="0 0 48 40" fill="none" xmlns="http://www.w3.org/2000/svg">
<path d="M41 5.19805L40.2292 6.10657C40.2292 6.10657 38.3023 4.39066 34.7708 4.69327C31.2383 4.99609 25.0093 7.82247 24.0458 14.0299C23.0825 20.2373 26.8716 27 26.8716 27H9.78911C9.78911 27 9.33966 24.7794 10.4314 20.5402C11.5229 16.3009 13.1284 13.4748 15.8899 9.43724C18.6513 5.39995 23.0824 2.06906 29.5044 1.61509C35.9266 1.16075 41 5.19805 41 5.19805ZM6.38534 20.2374L6 22.7609L9.14678 23.0635L9.725 20.4392L6.38534 20.2374ZM12.5505 12.7178L9.59658 11.8092L8.63329 13.9287L11.6516 14.6857L12.5505 12.7178ZM17.5599 6.30852L15.312 5.14772L13.5139 6.71189L15.8258 7.92329L17.5599 6.30852ZM24.0458 2.17025L22.5045 0.807546L20.3854 1.66547L21.9266 3.12888L24.0458 2.17025ZM30.9176 1.41325L30.6603 0.101138L27.8992 0L28.2842 1.4639L30.9176 1.41325ZM38.9449 2.77573L36.8258 1.56455L36.7615 2.47286L38.5597 3.22986L38.9449 2.77573ZM36.4401 6.20733L38.1742 6.35863V5.75315L36.4401 5.45033V6.20733ZM30.9176 6.10662L31.7521 7.31759L32.9723 6.56059L32.7154 5.7532L30.9176 6.10662ZM29.5688 9.18523L28.2842 7.67123L26.9358 8.63013L28.798 10.2449L29.5688 9.18523ZM24.8808 13.1717L27.0641 14.6356L27.5779 12.97L25.7158 11.8598L24.8808 13.1717ZM24.6881 18.2188L27.3854 19.1271L27.2573 17.4618L24.8165 16.4523L24.6881 18.2188ZM29.6327 24.6787L28.4127 22.7103H25.5872L26.2295 24.5274L29.6327 24.6787Z" fill="black"/>
<path d="M0.742188 31.3325H2.625C3.05208 31.3325 3.41276 31.3976 3.70703 31.5278C4.00391 31.658 4.22917 31.8507 4.38281 32.1059C4.53906 32.3585 4.61719 32.6697 4.61719 33.0395C4.61719 33.2999 4.5638 33.5382 4.45703 33.7544C4.35286 33.9679 4.20182 34.1502 4.00391 34.3012C3.80859 34.4497 3.57422 34.5604 3.30078 34.6333L3.08984 34.7153H1.32031L1.3125 34.102H2.64844C2.91927 34.102 3.14453 34.0551 3.32422 33.9614C3.50391 33.865 3.63932 33.7361 3.73047 33.5747C3.82161 33.4132 3.86719 33.2348 3.86719 33.0395C3.86719 32.8208 3.82422 32.6294 3.73828 32.4653C3.65234 32.3012 3.51693 32.1749 3.33203 32.0864C3.14974 31.9952 2.91406 31.9497 2.625 31.9497H1.49609V37.02H0.742188V31.3325ZM4.06641 37.02L2.68359 34.4419L3.46875 34.438L4.87109 36.9731V37.02H4.06641ZM8.14844 36.0434V32.7934H8.875V37.02H8.18359L8.14844 36.0434ZM8.28516 35.1528L8.58594 35.145C8.58594 35.4262 8.55599 35.6867 8.49609 35.9262C8.4388 36.1632 8.34505 36.3689 8.21484 36.5434C8.08464 36.7179 7.91406 36.8546 7.70312 36.9536C7.49219 37.0499 7.23568 37.0981 6.93359 37.0981C6.72786 37.0981 6.53906 37.0682 6.36719 37.0083C6.19792 36.9484 6.05208 36.8559 5.92969 36.7309C5.80729 36.6059 5.71224 36.4432 5.64453 36.2426C5.57943 36.0421 5.54688 35.8012 5.54688 35.52V32.7934H6.26953V35.5278C6.26953 35.7179 6.29036 35.8755 6.33203 36.0005C6.3763 36.1229 6.4349 36.2205 6.50781 36.2934C6.58333 36.3637 6.66667 36.4132 6.75781 36.4419C6.85156 36.4705 6.94792 36.4848 7.04688 36.4848C7.35417 36.4848 7.59766 36.4262 7.77734 36.3091C7.95703 36.1893 8.08594 36.0291 8.16406 35.8286C8.24479 35.6255 8.28516 35.4002 8.28516 35.1528ZM9.97266 31.02H10.6992V36.1997L10.6367 37.02H9.97266V31.02ZM13.5547 34.8716V34.9536C13.5547 35.2609 13.5182 35.546 13.4453 35.8091C13.3724 36.0695 13.2656 36.296 13.125 36.4887C12.9844 36.6814 12.8125 36.8312 12.6094 36.938C12.4062 37.0447 12.1732 37.0981 11.9102 37.0981C11.6419 37.0981 11.4062 37.0525 11.2031 36.9614C11.0026 36.8676 10.8333 36.7335 10.6953 36.5591C10.5573 36.3846 10.4466 36.1736 10.3633 35.9262C10.2826 35.6788 10.2266 35.4002 10.1953 35.0903V34.7309C10.2266 34.4184 10.2826 34.1385 10.3633 33.8911C10.4466 33.6437 10.5573 33.4327 10.6953 33.2583C10.8333 33.0812 11.0026 32.9471 11.2031 32.8559C11.4036 32.7622 11.6367 32.7153 11.9023 32.7153C12.168 32.7153 12.4036 32.7674 12.6094 32.8716C12.8151 32.9731 12.987 33.1189 13.125 33.3091C13.2656 33.4992 13.3724 33.727 13.4453 33.9926C13.5182 34.2557 13.5547 34.5486 13.5547 34.8716ZM12.8281 34.9536V34.8716C12.8281 34.6606 12.8086 34.4627 12.7695 34.2778C12.7305 34.0903 12.668 33.9262 12.582 33.7856C12.4961 33.6424 12.3828 33.5304 12.2422 33.4497C12.1016 33.3663 11.9284 33.3247 11.7227 33.3247C11.5404 33.3247 11.3815 33.3559 11.2461 33.4184C11.1133 33.4809 11 33.5656 10.9062 33.6723C10.8125 33.7765 10.7357 33.8963 10.6758 34.0317C10.6185 34.1645 10.5755 34.3025 10.5469 34.4458V35.3872C10.5885 35.5695 10.6562 35.7452 10.75 35.9145C10.8464 36.0812 10.974 36.2179 11.1328 36.3247C11.2943 36.4314 11.4935 36.4848 11.7305 36.4848C11.9258 36.4848 12.0924 36.4458 12.2305 36.3676C12.3711 36.2869 12.4844 36.1762 12.5703 36.0356C12.6589 35.895 12.724 35.7322 12.7656 35.5473C12.8073 35.3624 12.8281 35.1645 12.8281 34.9536ZM15.6094 36.5825L16.7852 32.7934H17.5586L15.8633 37.6723C15.8242 37.7765 15.7721 37.8885 15.707 38.0083C15.6445 38.1307 15.5638 38.2466 15.4648 38.3559C15.3659 38.4653 15.2461 38.5538 15.1055 38.6216C14.9674 38.6919 14.8021 38.727 14.6094 38.727C14.5521 38.727 14.4792 38.7192 14.3906 38.7036C14.3021 38.688 14.2396 38.6749 14.2031 38.6645L14.1992 38.0786C14.2201 38.0812 14.2526 38.0838 14.2969 38.0864C14.3438 38.0916 14.3763 38.0942 14.3945 38.0942C14.5586 38.0942 14.6979 38.0721 14.8125 38.0278C14.9271 37.9861 15.0234 37.9145 15.1016 37.813C15.1823 37.714 15.2513 37.5773 15.3086 37.4028L15.6094 36.5825ZM14.7461 32.7934L15.8438 36.0747L16.0312 36.8364L15.5117 37.102L13.957 32.7934H14.7461ZM20.0039 34.9536V34.8637C20.0039 34.5591 20.0482 34.2765 20.1367 34.0161C20.2253 33.7531 20.3529 33.5252 20.5195 33.3325C20.6862 33.1372 20.888 32.9861 21.125 32.8794C21.362 32.77 21.6276 32.7153 21.9219 32.7153C22.2188 32.7153 22.4857 32.77 22.7227 32.8794C22.9622 32.9861 23.1654 33.1372 23.332 33.3325C23.5013 33.5252 23.6302 33.7531 23.7188 34.0161C23.8073 34.2765 23.8516 34.5591 23.8516 34.8637V34.9536C23.8516 35.2583 23.8073 35.5408 23.7188 35.8012C23.6302 36.0617 23.5013 36.2895 23.332 36.4848C23.1654 36.6775 22.9635 36.8286 22.7266 36.938C22.4922 37.0447 22.2266 37.0981 21.9297 37.0981C21.6328 37.0981 21.3659 37.0447 21.1289 36.938C20.8919 36.8286 20.6888 36.6775 20.5195 36.4848C20.3529 36.2895 20.2253 36.0617 20.1367 35.8012C20.0482 35.5408 20.0039 35.2583 20.0039 34.9536ZM20.7266 34.8637V34.9536C20.7266 35.1645 20.7513 35.3637 20.8008 35.5512C20.8503 35.7361 20.9245 35.9002 21.0234 36.0434C21.125 36.1867 21.2513 36.2999 21.4023 36.3833C21.5534 36.464 21.7292 36.5044 21.9297 36.5044C22.1276 36.5044 22.3008 36.464 22.4492 36.3833C22.6003 36.2999 22.7253 36.1867 22.8242 36.0434C22.9232 35.9002 22.9974 35.7361 23.0469 35.5512C23.099 35.3637 23.125 35.1645 23.125 34.9536V34.8637C23.125 34.6554 23.099 34.4588 23.0469 34.2739C22.9974 34.0864 22.9219 33.921 22.8203 33.7778C22.7214 33.632 22.5964 33.5174 22.4453 33.4341C22.2969 33.3507 22.1224 33.3091 21.9219 33.3091C21.724 33.3091 21.5495 33.3507 21.3984 33.4341C21.25 33.5174 21.125 33.632 21.0234 33.7778C20.9245 33.921 20.8503 34.0864 20.8008 34.2739C20.7513 34.4588 20.7266 34.6554 20.7266 34.8637ZM25.4805 33.6958V37.02H24.7578V32.7934H25.4414L25.4805 33.6958ZM25.3086 34.7466L25.0078 34.7348C25.0104 34.4458 25.0534 34.1788 25.1367 33.9341C25.2201 33.6867 25.3372 33.4718 25.4883 33.2895C25.6393 33.1072 25.819 32.9666 26.0273 32.8676C26.2383 32.7661 26.4714 32.7153 26.7266 32.7153C26.9349 32.7153 27.1224 32.7439 27.2891 32.8012C27.4557 32.8559 27.5977 32.9445 27.7148 33.0669C27.8346 33.1893 27.9258 33.3481 27.9883 33.5434C28.0508 33.7361 28.082 33.9718 28.082 34.2505V37.02H27.3555V34.2426C27.3555 34.0213 27.3229 33.8442 27.2578 33.7114C27.1927 33.576 27.0977 33.4783 26.9727 33.4184C26.8477 33.3559 26.694 33.3247 26.5117 33.3247C26.332 33.3247 26.168 33.3624 26.0195 33.438C25.8737 33.5135 25.7474 33.6176 25.6406 33.7505C25.5365 33.8833 25.4544 34.0356 25.3945 34.2075C25.3372 34.3768 25.3086 34.5564 25.3086 34.7466ZM31.2734 31.3325H33.1562C33.5833 31.3325 33.944 31.3976 34.2383 31.5278C34.5352 31.658 34.7604 31.8507 34.9141 32.1059C35.0703 32.3585 35.1484 32.6697 35.1484 33.0395C35.1484 33.2999 35.0951 33.5382 34.9883 33.7544C34.8841 33.9679 34.7331 34.1502 34.5352 34.3012C34.3398 34.4497 34.1055 34.5604 33.832 34.6333L33.6211 34.7153H31.8516L31.8438 34.102H33.1797C33.4505 34.102 33.6758 34.0551 33.8555 33.9614C34.0352 33.865 34.1706 33.7361 34.2617 33.5747C34.3529 33.4132 34.3984 33.2348 34.3984 33.0395C34.3984 32.8208 34.3555 32.6294 34.2695 32.4653C34.1836 32.3012 34.0482 32.1749 33.8633 32.0864C33.681 31.9952 33.4453 31.9497 33.1562 31.9497H32.0273V37.02H31.2734V31.3325ZM34.5977 37.02L33.2148 34.4419L34 34.438L35.4023 36.9731V37.02H34.5977ZM38.5859 36.2973V34.1216C38.5859 33.9549 38.5521 33.8104 38.4844 33.688C38.4193 33.563 38.3203 33.4666 38.1875 33.3989C38.0547 33.3312 37.8906 33.2973 37.6953 33.2973C37.513 33.2973 37.3529 33.3286 37.2148 33.3911C37.0794 33.4536 36.9727 33.5356 36.8945 33.6372C36.819 33.7387 36.7812 33.8481 36.7812 33.9653H36.0586C36.0586 33.8143 36.0977 33.6645 36.1758 33.5161C36.2539 33.3676 36.3659 33.2335 36.5117 33.1137C36.6602 32.9913 36.8372 32.895 37.043 32.8247C37.2513 32.7518 37.4831 32.7153 37.7383 32.7153C38.0456 32.7153 38.3164 32.7674 38.5508 32.8716C38.7878 32.9757 38.9727 33.1333 39.1055 33.3442C39.2409 33.5525 39.3086 33.8143 39.3086 34.1294V36.0981C39.3086 36.2387 39.3203 36.3885 39.3438 36.5473C39.3698 36.7062 39.4076 36.8429 39.457 36.9575V37.02H38.7031C38.6667 36.9367 38.638 36.826 38.6172 36.688C38.5964 36.5473 38.5859 36.4171 38.5859 36.2973ZM38.7109 34.4575L38.7188 34.9653H37.9883C37.7826 34.9653 37.599 34.9822 37.4375 35.0161C37.276 35.0473 37.1406 35.0955 37.0312 35.1606C36.9219 35.2257 36.8385 35.3077 36.7812 35.4067C36.724 35.5031 36.6953 35.6163 36.6953 35.7466C36.6953 35.8794 36.7253 36.0005 36.7852 36.1098C36.8451 36.2192 36.9349 36.3064 37.0547 36.3716C37.1771 36.4341 37.3268 36.4653 37.5039 36.4653C37.7253 36.4653 37.9206 36.4184 38.0898 36.3247C38.2591 36.2309 38.3932 36.1163 38.4922 35.9809C38.5938 35.8455 38.6484 35.714 38.6562 35.5864L38.9648 35.9341C38.9466 36.0434 38.8971 36.1645 38.8164 36.2973C38.7357 36.4301 38.6276 36.5577 38.4922 36.6801C38.3594 36.7999 38.2005 36.9002 38.0156 36.9809C37.8333 37.0591 37.6276 37.0981 37.3984 37.0981C37.112 37.0981 36.8607 37.0421 36.6445 36.9301C36.431 36.8182 36.2643 36.6684 36.1445 36.4809C36.0273 36.2908 35.9688 36.0786 35.9688 35.8442C35.9688 35.6176 36.013 35.4184 36.1016 35.2466C36.1901 35.0721 36.3177 34.9275 36.4844 34.813C36.651 34.6958 36.8516 34.6072 37.0859 34.5473C37.3203 34.4874 37.582 34.4575 37.8711 34.4575H38.7109ZM41.2305 32.7934V37.02H40.5039V32.7934H41.2305ZM40.4492 31.6723C40.4492 31.5551 40.4844 31.4562 40.5547 31.3755C40.6276 31.2947 40.7344 31.2544 40.875 31.2544C41.013 31.2544 41.1185 31.2947 41.1914 31.3755C41.2669 31.4562 41.3047 31.5551 41.3047 31.6723C41.3047 31.7843 41.2669 31.8807 41.1914 31.9614C41.1185 32.0395 41.013 32.0786 40.875 32.0786C40.7344 32.0786 40.6276 32.0395 40.5547 31.9614C40.4844 31.8807 40.4492 31.7843 40.4492 31.6723ZM43.1758 31.02V37.02H42.4492V31.02H43.1758ZM46.7969 35.8989C46.7969 35.7947 46.7734 35.6984 46.7266 35.6098C46.6823 35.5187 46.5898 35.4367 46.4492 35.3637C46.3112 35.2882 46.1029 35.2231 45.8242 35.1684C45.5898 35.1189 45.3776 35.0604 45.1875 34.9926C45 34.9249 44.8398 34.8429 44.707 34.7466C44.5768 34.6502 44.4766 34.5369 44.4062 34.4067C44.3359 34.2765 44.3008 34.1242 44.3008 33.9497C44.3008 33.783 44.3372 33.6255 44.4102 33.477C44.4857 33.3286 44.5911 33.1971 44.7266 33.0825C44.8646 32.9679 45.0299 32.8781 45.2227 32.813C45.4154 32.7479 45.6302 32.7153 45.8672 32.7153C46.2057 32.7153 46.4948 32.7752 46.7344 32.895C46.974 33.0148 47.1576 33.1749 47.2852 33.3755C47.4128 33.5734 47.4766 33.7934 47.4766 34.0356H46.7539C46.7539 33.9184 46.7188 33.8051 46.6484 33.6958C46.5807 33.5838 46.4805 33.4913 46.3477 33.4184C46.2174 33.3455 46.0573 33.3091 45.8672 33.3091C45.6667 33.3091 45.5039 33.3403 45.3789 33.4028C45.2565 33.4627 45.1667 33.5395 45.1094 33.6333C45.0547 33.727 45.0273 33.826 45.0273 33.9301C45.0273 34.0083 45.0404 34.0786 45.0664 34.1411C45.0951 34.201 45.1445 34.257 45.2148 34.3091C45.2852 34.3585 45.3841 34.4054 45.5117 34.4497C45.6393 34.4939 45.8021 34.5382 46 34.5825C46.3464 34.6606 46.6315 34.7544 46.8555 34.8637C47.0794 34.9731 47.2461 35.1072 47.3555 35.2661C47.4648 35.4249 47.5195 35.6176 47.5195 35.8442C47.5195 36.0291 47.4805 36.1984 47.4023 36.352C47.3268 36.5057 47.2161 36.6385 47.0703 36.7505C46.9271 36.8598 46.7552 36.9458 46.5547 37.0083C46.3568 37.0682 46.1341 37.0981 45.8867 37.0981C45.5143 37.0981 45.1992 37.0317 44.9414 36.8989C44.6836 36.7661 44.4883 36.5942 44.3555 36.3833C44.2227 36.1723 44.1562 35.9497 44.1562 35.7153H44.8828C44.8932 35.9132 44.9505 36.0708 45.0547 36.188C45.1589 36.3025 45.2865 36.3846 45.4375 36.4341C45.5885 36.4809 45.7383 36.5044 45.8867 36.5044C46.0846 36.5044 46.25 36.4783 46.3828 36.4262C46.5182 36.3742 46.6211 36.3025 46.6914 36.2114C46.7617 36.1202 46.7969 36.0161 46.7969 35.8989Z" fill="#1E1E1E"/>
</svg>
