<svg width="34" height="34" viewBox="0 0 34 34" fill="none" xmlns="http://www.w3.org/2000/svg">
<path d="M7.00992 29.1417V29.755H3.9982V29.1417H7.00992ZM4.15054 24.0675V29.755H3.39664V24.0675H4.15054ZM6.61148 26.5128V27.1261H3.9982V26.5128H6.61148ZM6.97086 24.0675V24.6847H3.9982V24.0675H6.97086ZM8.32242 25.5284L9.2482 27.0675L10.1857 25.5284H11.0334L9.65054 27.6144L11.0763 29.755H10.2404L9.26382 28.1691L8.28726 29.755H7.44742L8.86929 27.6144L7.49039 25.5284H8.32242ZM12.5255 26.3409V31.38H11.799V25.5284H12.463L12.5255 26.3409ZM15.3732 27.6066V27.6886C15.3732 27.9959 15.3367 28.281 15.2638 28.5441C15.1909 28.8045 15.0841 29.031 14.9435 29.2238C14.8055 29.4165 14.6349 29.5662 14.4318 29.673C14.2287 29.7797 13.9956 29.8331 13.7326 29.8331C13.4643 29.8331 13.2274 29.7889 13.0216 29.7003C12.8159 29.6118 12.6414 29.4829 12.4982 29.3136C12.355 29.1443 12.2404 28.9412 12.1544 28.7042C12.0711 28.4672 12.0138 28.2003 11.9826 27.9034V27.4659C12.0138 27.1534 12.0724 26.8735 12.1584 26.6261C12.2443 26.3787 12.3576 26.1678 12.4982 25.9933C12.6414 25.8162 12.8146 25.6821 13.0177 25.5909C13.2209 25.4972 13.4552 25.4503 13.7209 25.4503C13.9865 25.4503 14.2222 25.5024 14.4279 25.6066C14.6336 25.7081 14.8068 25.854 14.9474 26.0441C15.088 26.2342 15.1935 26.462 15.2638 26.7277C15.3367 26.9907 15.3732 27.2837 15.3732 27.6066ZM14.6466 27.6886V27.6066C14.6466 27.3956 14.6245 27.1977 14.5802 27.0128C14.536 26.8253 14.4669 26.6613 14.3732 26.5206C14.2821 26.3774 14.1649 26.2654 14.0216 26.1847C13.8784 26.1014 13.7078 26.0597 13.5099 26.0597C13.3276 26.0597 13.1688 26.0909 13.0334 26.1534C12.9005 26.2159 12.7873 26.3006 12.6935 26.4073C12.5998 26.5115 12.5229 26.6313 12.463 26.7667C12.4058 26.8995 12.3628 27.0376 12.3341 27.1808V28.1925C12.3862 28.3748 12.4591 28.5467 12.5529 28.7081C12.6466 28.867 12.7716 28.9959 12.9279 29.0948C13.0841 29.1912 13.2808 29.2394 13.5177 29.2394C13.713 29.2394 13.881 29.199 14.0216 29.1183C14.1649 29.035 14.2821 28.9217 14.3732 28.7784C14.4669 28.6352 14.536 28.4712 14.5802 28.2863C14.6245 28.0988 14.6466 27.8995 14.6466 27.6886ZM17.0177 26.1925V29.755H16.2951V25.5284H16.9982L17.0177 26.1925ZM18.338 25.505L18.3341 26.1769C18.2742 26.1639 18.2169 26.156 18.1623 26.1534C18.1102 26.1482 18.0503 26.1456 17.9826 26.1456C17.8159 26.1456 17.6688 26.1717 17.5412 26.2238C17.4136 26.2758 17.3055 26.3488 17.2169 26.4425C17.1284 26.5363 17.0581 26.6482 17.006 26.7784C16.9565 26.906 16.924 27.0467 16.9084 27.2003L16.7052 27.3175C16.7052 27.0623 16.73 26.8227 16.7794 26.5988C16.8315 26.3748 16.911 26.1769 17.0177 26.005C17.1245 25.8305 17.2599 25.6951 17.424 25.5988C17.5906 25.4998 17.7886 25.4503 18.0177 25.4503C18.0698 25.4503 18.1297 25.4568 18.1974 25.4698C18.2651 25.4803 18.312 25.492 18.338 25.505ZM20.6818 29.8331C20.3875 29.8331 20.1206 29.7837 19.881 29.6847C19.644 29.5831 19.4396 29.4412 19.2677 29.2589C19.0985 29.0766 18.9683 28.8605 18.8771 28.6105C18.786 28.3605 18.7404 28.087 18.7404 27.7902V27.6261C18.7404 27.2823 18.7912 26.9764 18.8927 26.7081C18.9943 26.4373 19.1323 26.2081 19.3068 26.0206C19.4813 25.8331 19.6792 25.6912 19.9005 25.5948C20.1219 25.4985 20.3511 25.4503 20.588 25.4503C20.8901 25.4503 21.1505 25.5024 21.3693 25.6066C21.5906 25.7107 21.7716 25.8566 21.9123 26.0441C22.0529 26.229 22.1571 26.4477 22.2248 26.7003C22.2925 26.9503 22.3263 27.2238 22.3263 27.5206V27.8448H19.1701V27.255H21.6037V27.2003C21.5933 27.0128 21.5542 26.8305 21.4865 26.6534C21.4214 26.4764 21.3172 26.3305 21.174 26.2159C21.0308 26.1014 20.8354 26.0441 20.588 26.0441C20.424 26.0441 20.2729 26.0792 20.1349 26.1495C19.9969 26.2172 19.8784 26.3188 19.7794 26.4542C19.6805 26.5896 19.6037 26.755 19.549 26.9503C19.4943 27.1456 19.4669 27.3709 19.4669 27.6261V27.7902C19.4669 27.9907 19.4943 28.1795 19.549 28.3566C19.6063 28.531 19.6883 28.6847 19.7951 28.8175C19.9044 28.9503 20.036 29.0545 20.1896 29.13C20.3459 29.2055 20.5229 29.2433 20.7209 29.2433C20.9761 29.2433 21.1922 29.1912 21.3693 29.087C21.5464 28.9829 21.7013 28.8435 21.8341 28.6691L22.2716 29.0167C22.1805 29.1547 22.0646 29.2863 21.924 29.4113C21.7834 29.5363 21.6102 29.6378 21.4044 29.7159C21.2013 29.7941 20.9604 29.8331 20.6818 29.8331ZM25.631 28.6339C25.631 28.5297 25.6076 28.4334 25.5607 28.3448C25.5164 28.2537 25.424 28.1717 25.2834 28.0988C25.1453 28.0232 24.937 27.9581 24.6584 27.9034C24.424 27.854 24.2117 27.7954 24.0216 27.7277C23.8341 27.66 23.674 27.5779 23.5412 27.4816C23.411 27.3852 23.3107 27.2719 23.2404 27.1417C23.1701 27.0115 23.1349 26.8592 23.1349 26.6847C23.1349 26.518 23.1714 26.3605 23.2443 26.212C23.3198 26.0636 23.4253 25.9321 23.5607 25.8175C23.6987 25.7029 23.8641 25.6131 24.0568 25.548C24.2495 25.4829 24.4643 25.4503 24.7013 25.4503C25.0399 25.4503 25.3289 25.5102 25.5685 25.63C25.8081 25.7498 25.9917 25.91 26.1193 26.1105C26.2469 26.3084 26.3107 26.5284 26.3107 26.7706H25.588C25.588 26.6534 25.5529 26.5402 25.4826 26.4308C25.4149 26.3188 25.3146 26.2264 25.1818 26.1534C25.0516 26.0805 24.8914 26.0441 24.7013 26.0441C24.5008 26.0441 24.338 26.0753 24.213 26.1378C24.0906 26.1977 24.0008 26.2745 23.9435 26.3683C23.8888 26.462 23.8615 26.561 23.8615 26.6652C23.8615 26.7433 23.8745 26.8136 23.9005 26.8761C23.9292 26.936 23.9787 26.992 24.049 27.0441C24.1193 27.0935 24.2183 27.1404 24.3459 27.1847C24.4735 27.229 24.6362 27.2732 24.8341 27.3175C25.1805 27.3956 25.4656 27.4894 25.6896 27.5988C25.9136 27.7081 26.0802 27.8422 26.1896 28.0011C26.299 28.16 26.3537 28.3527 26.3537 28.5792C26.3537 28.7641 26.3146 28.9334 26.2365 29.087C26.161 29.2407 26.0503 29.3735 25.9044 29.4855C25.7612 29.5948 25.5893 29.6808 25.3888 29.7433C25.1909 29.8032 24.9683 29.8331 24.7209 29.8331C24.3485 29.8331 24.0334 29.7667 23.7755 29.6339C23.5177 29.5011 23.3224 29.3292 23.1896 29.1183C23.0568 28.9073 22.9904 28.6847 22.9904 28.4503H23.7169C23.7274 28.6482 23.7847 28.8058 23.8888 28.923C23.993 29.0376 24.1206 29.1196 24.2716 29.1691C24.4227 29.2159 24.5724 29.2394 24.7209 29.2394C24.9188 29.2394 25.0841 29.2133 25.2169 29.1613C25.3524 29.1092 25.4552 29.0376 25.5255 28.9464C25.5959 28.8553 25.631 28.7511 25.631 28.6339ZM29.7638 28.6339C29.7638 28.5297 29.7404 28.4334 29.6935 28.3448C29.6492 28.2537 29.5568 28.1717 29.4162 28.0988C29.2781 28.0232 29.0698 27.9581 28.7912 27.9034C28.5568 27.854 28.3446 27.7954 28.1544 27.7277C27.9669 27.66 27.8068 27.5779 27.674 27.4816C27.5438 27.3852 27.4435 27.2719 27.3732 27.1417C27.3029 27.0115 27.2677 26.8592 27.2677 26.6847C27.2677 26.518 27.3042 26.3605 27.3771 26.212C27.4526 26.0636 27.5581 25.9321 27.6935 25.8175C27.8315 25.7029 27.9969 25.6131 28.1896 25.548C28.3823 25.4829 28.5972 25.4503 28.8341 25.4503C29.1727 25.4503 29.4617 25.5102 29.7013 25.63C29.9409 25.7498 30.1245 25.91 30.2521 26.1105C30.3797 26.3084 30.4435 26.5284 30.4435 26.7706H29.7209C29.7209 26.6534 29.6857 26.5402 29.6154 26.4308C29.5477 26.3188 29.4474 26.2264 29.3146 26.1534C29.1844 26.0805 29.0242 26.0441 28.8341 26.0441C28.6336 26.0441 28.4709 26.0753 28.3459 26.1378C28.2235 26.1977 28.1336 26.2745 28.0763 26.3683C28.0216 26.462 27.9943 26.561 27.9943 26.6652C27.9943 26.7433 28.0073 26.8136 28.0334 26.8761C28.062 26.936 28.1115 26.992 28.1818 27.0441C28.2521 27.0935 28.3511 27.1404 28.4787 27.1847C28.6063 27.229 28.769 27.2732 28.9669 27.3175C29.3133 27.3956 29.5985 27.4894 29.8224 27.5988C30.0464 27.7081 30.213 27.8422 30.3224 28.0011C30.4318 28.16 30.4865 28.3527 30.4865 28.5792C30.4865 28.7641 30.4474 28.9334 30.3693 29.087C30.2938 29.2407 30.1831 29.3735 30.0373 29.4855C29.894 29.5948 29.7222 29.6808 29.5216 29.7433C29.3237 29.8032 29.1011 29.8331 28.8537 29.8331C28.4813 29.8331 28.1662 29.7667 27.9084 29.6339C27.6505 29.5011 27.4552 29.3292 27.3224 29.1183C27.1896 28.9073 27.1232 28.6847 27.1232 28.4503H27.8498C27.8602 28.6482 27.9175 28.8058 28.0216 28.923C28.1258 29.0376 28.2534 29.1196 28.4044 29.1691C28.5555 29.2159 28.7052 29.2394 28.8537 29.2394C29.0516 29.2394 29.2169 29.2133 29.3498 29.1613C29.4852 29.1092 29.588 29.0376 29.6584 28.9464C29.7287 28.8553 29.7638 28.7511 29.7638 28.6339Z" fill="#1E1E1E"/>
<path d="M30.3663 14.6242C29.968 14.7668 29.5283 14.7665 29.1303 14.6233C28.7322 14.4802 28.4032 14.2041 28.2055 13.8472L24.2716 8.69852L23.7014 7.97871L19.137 13.8537C18.9511 14.1956 18.64 14.4618 18.2618 14.6024C17.8837 14.743 17.4643 14.7485 17.0822 14.6177L22.9637 7.14991L17.4927 0.404042C17.8861 0.269874 18.3163 0.268096 18.7109 0.399005C19.1055 0.529915 19.4404 0.785516 19.6592 1.12277L23.7368 6.33514L27.8372 1.14435C28.0245 0.8085 28.3357 0.549501 28.7116 0.416591C29.0875 0.283682 29.5018 0.286128 29.876 0.423467L27.7528 3.09009L24.8771 6.63299C24.7972 6.70041 24.7333 6.78305 24.6895 6.87548C24.6458 6.96791 24.6232 7.06805 24.6232 7.16934C24.6232 7.27062 24.6458 7.37076 24.6895 7.46319C24.7333 7.55563 24.7972 7.63826 24.8771 7.70568L30.3549 14.6253L30.3663 14.6242ZM3.00229 7.05711L3.4812 4.81783C4.79706 0.390013 10.1609 -1.45212 13.8507 1.28896C16.0115 2.89584 16.5509 5.17072 16.4448 7.73482H4.27254C4.07528 12.3137 7.56676 15.0786 12.0309 13.6659C12.7546 13.4194 13.4023 13.0068 13.9161 12.4651C14.43 11.9235 14.7938 11.2697 14.975 10.5622C15.2111 9.84351 15.5999 9.72049 16.3137 9.92769C16.1947 10.8044 15.8673 11.6441 15.356 12.3838C14.8446 13.1234 14.1627 13.7437 13.3616 14.198C12.0382 14.883 10.5198 15.1546 9.02358 14.9737C7.52733 14.7929 6.1298 14.1689 5.03082 13.1911C3.94418 12.0336 3.28745 10.5714 3.16079 9.02766C3.16079 8.77406 3.06957 8.53664 3.008 8.30894C3.00244 7.89204 2.99978 7.47511 3.00001 7.05818L3.00229 7.05711ZM4.28737 6.74846H15.2954C15.227 3.42895 13.0138 1.0742 10.0616 1.05262C6.77542 1.00945 4.4242 3.3124 4.27939 6.73336L4.28737 6.74846Z" fill="black"/>
</svg>
