<svg width="36" height="40" viewBox="0 0 36 40" fill="none" xmlns="http://www.w3.org/2000/svg">
<path d="M1.26953 31.8985H2L3.86328 36.5352L5.72266 31.8985H6.45703L4.14453 37.586H3.57422L1.26953 31.8985ZM1.03125 31.8985H1.67578L1.78125 35.3672V37.586H1.03125V31.8985ZM6.04688 31.8985H6.69141V37.586H5.94141V35.3672L6.04688 31.8985ZM7.71484 35.5196V35.4297C7.71484 35.1251 7.75911 34.8425 7.84766 34.5821C7.9362 34.3191 8.0638 34.0912 8.23047 33.8985C8.39714 33.7032 8.59896 33.5521 8.83594 33.4454C9.07292 33.336 9.33854 33.2813 9.63281 33.2813C9.92969 33.2813 10.1966 33.336 10.4336 33.4454C10.6732 33.5521 10.8763 33.7032 11.043 33.8985C11.2122 34.0912 11.3411 34.3191 11.4297 34.5821C11.5182 34.8425 11.5625 35.1251 11.5625 35.4297V35.5196C11.5625 35.8243 11.5182 36.1068 11.4297 36.3672C11.3411 36.6277 11.2122 36.8555 11.043 37.0508C10.8763 37.2436 10.6745 37.3946 10.4375 37.504C10.2031 37.6107 9.9375 37.6641 9.64062 37.6641C9.34375 37.6641 9.07682 37.6107 8.83984 37.504C8.60286 37.3946 8.39974 37.2436 8.23047 37.0508C8.0638 36.8555 7.9362 36.6277 7.84766 36.3672C7.75911 36.1068 7.71484 35.8243 7.71484 35.5196ZM8.4375 35.4297V35.5196C8.4375 35.7305 8.46224 35.9297 8.51172 36.1172C8.5612 36.3021 8.63542 36.4662 8.73438 36.6094C8.83594 36.7527 8.96224 36.8659 9.11328 36.9493C9.26432 37.03 9.4401 37.0704 9.64062 37.0704C9.83854 37.0704 10.0117 37.03 10.1602 36.9493C10.3112 36.8659 10.4362 36.7527 10.5352 36.6094C10.6341 36.4662 10.7083 36.3021 10.7578 36.1172C10.8099 35.9297 10.8359 35.7305 10.8359 35.5196V35.4297C10.8359 35.2214 10.8099 35.0248 10.7578 34.8399C10.7083 34.6524 10.6328 34.487 10.5312 34.3438C10.4323 34.198 10.3073 34.0834 10.1562 34.0001C10.0078 33.9167 9.83333 33.8751 9.63281 33.8751C9.4349 33.8751 9.26042 33.9167 9.10938 34.0001C8.96094 34.0834 8.83594 34.198 8.73438 34.3438C8.63542 34.487 8.5612 34.6524 8.51172 34.8399C8.46224 35.0248 8.4375 35.2214 8.4375 35.4297ZM13.1914 34.2618V37.586H12.4688V33.3594H13.1523L13.1914 34.2618ZM13.0195 35.3126L12.7188 35.3008C12.7214 35.0118 12.7643 34.7449 12.8477 34.5001C12.931 34.2527 13.0482 34.0378 13.1992 33.8555C13.3503 33.6732 13.5299 33.5326 13.7383 33.4337C13.9492 33.3321 14.1823 33.2813 14.4375 33.2813C14.6458 33.2813 14.8333 33.31 15 33.3672C15.1667 33.4219 15.3086 33.5105 15.4258 33.6329C15.5456 33.7553 15.6367 33.9141 15.6992 34.1094C15.7617 34.3021 15.793 34.5378 15.793 34.8165V37.586H15.0664V34.8087C15.0664 34.5873 15.0339 34.4102 14.9688 34.2774C14.9036 34.142 14.8086 34.0443 14.6836 33.9844C14.5586 33.9219 14.4049 33.8907 14.2227 33.8907C14.043 33.8907 13.8789 33.9284 13.7305 34.004C13.5846 34.0795 13.4583 34.1837 13.3516 34.3165C13.2474 34.4493 13.1654 34.6016 13.1055 34.7735C13.0482 34.9428 13.0195 35.1225 13.0195 35.3126ZM19.6289 33.3594H20.2852V37.4962C20.2852 37.8686 20.2096 38.1863 20.0586 38.4493C19.9076 38.7123 19.6966 38.9115 19.4258 39.0469C19.1576 39.185 18.8477 39.254 18.4961 39.254C18.3503 39.254 18.1784 39.2305 17.9805 39.1837C17.7852 39.1394 17.5924 39.0626 17.4023 38.9532C17.2148 38.8464 17.0573 38.7019 16.9297 38.5196L17.3086 38.0899C17.4857 38.3034 17.6706 38.4519 17.8633 38.5352C18.0586 38.6186 18.2513 38.6602 18.4414 38.6602C18.6706 38.6602 18.8685 38.6172 19.0352 38.5313C19.2018 38.4454 19.3307 38.3178 19.4219 38.1485C19.5156 37.9818 19.5625 37.7761 19.5625 37.5313V34.2891L19.6289 33.3594ZM16.7188 35.5196V35.4376C16.7188 35.1146 16.7565 34.8217 16.832 34.5587C16.9102 34.293 17.0208 34.0652 17.1641 33.8751C17.3099 33.685 17.4857 33.5391 17.6914 33.4376C17.8971 33.3334 18.1289 33.2813 18.3867 33.2813C18.6523 33.2813 18.8841 33.3282 19.082 33.4219C19.2826 33.5131 19.4518 33.6472 19.5898 33.8243C19.7305 33.9988 19.8411 34.2097 19.9219 34.4571C20.0026 34.7045 20.0586 34.9844 20.0898 35.2969V35.6563C20.0612 35.9662 20.0052 36.2449 19.9219 36.4922C19.8411 36.7396 19.7305 36.9506 19.5898 37.1251C19.4518 37.2995 19.2826 37.4337 19.082 37.5274C18.8815 37.6186 18.6471 37.6641 18.3789 37.6641C18.1263 37.6641 17.8971 37.6107 17.6914 37.504C17.4883 37.3972 17.3138 37.2475 17.168 37.0547C17.0221 36.862 16.9102 36.6355 16.832 36.3751C16.7565 36.112 16.7188 35.8269 16.7188 35.5196ZM17.4414 35.4376V35.5196C17.4414 35.7305 17.4622 35.9284 17.5039 36.1133C17.5482 36.2982 17.6146 36.461 17.7031 36.6016C17.7943 36.7422 17.9102 36.8529 18.0508 36.9337C18.1914 37.0118 18.3594 37.0508 18.5547 37.0508C18.7943 37.0508 18.9922 37.0001 19.1484 36.8985C19.3047 36.7969 19.4284 36.6628 19.5195 36.4962C19.6133 36.3295 19.6862 36.1485 19.7383 35.9532V35.0118C19.7096 34.8686 19.6654 34.7305 19.6055 34.5977C19.5482 34.4623 19.4727 34.3425 19.3789 34.2383C19.2878 34.1316 19.1745 34.0469 19.0391 33.9844C18.9036 33.9219 18.7448 33.8907 18.5625 33.8907C18.3646 33.8907 18.194 33.9324 18.0508 34.0157C17.9102 34.0964 17.7943 34.2084 17.7031 34.3516C17.6146 34.4922 17.5482 34.6563 17.5039 34.8438C17.4622 35.0287 17.4414 35.2266 17.4414 35.4376ZM21.1914 35.5196V35.4297C21.1914 35.1251 21.2357 34.8425 21.3242 34.5821C21.4128 34.3191 21.5404 34.0912 21.707 33.8985C21.8737 33.7032 22.0755 33.5521 22.3125 33.4454C22.5495 33.336 22.8151 33.2813 23.1094 33.2813C23.4062 33.2813 23.6732 33.336 23.9102 33.4454C24.1497 33.5521 24.3529 33.7032 24.5195 33.8985C24.6888 34.0912 24.8177 34.3191 24.9062 34.5821C24.9948 34.8425 25.0391 35.1251 25.0391 35.4297V35.5196C25.0391 35.8243 24.9948 36.1068 24.9062 36.3672C24.8177 36.6277 24.6888 36.8555 24.5195 37.0508C24.3529 37.2436 24.151 37.3946 23.9141 37.504C23.6797 37.6107 23.4141 37.6641 23.1172 37.6641C22.8203 37.6641 22.5534 37.6107 22.3164 37.504C22.0794 37.3946 21.8763 37.2436 21.707 37.0508C21.5404 36.8555 21.4128 36.6277 21.3242 36.3672C21.2357 36.1068 21.1914 35.8243 21.1914 35.5196ZM21.9141 35.4297V35.5196C21.9141 35.7305 21.9388 35.9297 21.9883 36.1172C22.0378 36.3021 22.112 36.4662 22.2109 36.6094C22.3125 36.7527 22.4388 36.8659 22.5898 36.9493C22.7409 37.03 22.9167 37.0704 23.1172 37.0704C23.3151 37.0704 23.4883 37.03 23.6367 36.9493C23.7878 36.8659 23.9128 36.7527 24.0117 36.6094C24.1107 36.4662 24.1849 36.3021 24.2344 36.1172C24.2865 35.9297 24.3125 35.7305 24.3125 35.5196V35.4297C24.3125 35.2214 24.2865 35.0248 24.2344 34.8399C24.1849 34.6524 24.1094 34.487 24.0078 34.3438C23.9089 34.198 23.7839 34.0834 23.6328 34.0001C23.4844 33.9167 23.3099 33.8751 23.1094 33.8751C22.9115 33.8751 22.737 33.9167 22.5859 34.0001C22.4375 34.0834 22.3125 34.198 22.2109 34.3438C22.112 34.487 22.0378 34.6524 21.9883 34.8399C21.9388 35.0248 21.9141 35.2214 21.9141 35.4297ZM27.5938 37.586H26.4062L26.4141 36.9727H27.5938C28 36.9727 28.3385 36.8881 28.6094 36.7188C28.8802 36.5469 29.0833 36.3074 29.2188 36.0001C29.3568 35.6902 29.4258 35.3282 29.4258 34.9141V34.5665C29.4258 34.2409 29.3867 33.9519 29.3086 33.6993C29.2305 33.4441 29.1159 33.2292 28.9648 33.0547C28.8138 32.8777 28.6289 32.7436 28.4102 32.6524C28.194 32.5613 27.9453 32.5157 27.6641 32.5157H26.3828V31.8985H27.6641C28.0365 31.8985 28.3763 31.961 28.6836 32.086C28.9909 32.2084 29.2552 32.3868 29.4766 32.6212C29.7005 32.8529 29.8724 33.1342 29.9922 33.4649C30.112 33.793 30.1719 34.1628 30.1719 34.5743V34.9141C30.1719 35.3256 30.112 35.6967 29.9922 36.0274C29.8724 36.3555 29.6992 36.6355 29.4727 36.8672C29.2487 37.099 28.9779 37.2774 28.6602 37.4024C28.3451 37.5248 27.9896 37.586 27.5938 37.586ZM26.8086 31.8985V37.586H26.0547V31.8985H26.8086ZM33.332 34.9258H31.8906L31.8828 34.3204H33.1914C33.4076 34.3204 33.5964 34.2839 33.7578 34.211C33.9193 34.1381 34.0443 34.0339 34.1328 33.8985C34.224 33.7605 34.2695 33.5964 34.2695 33.4063C34.2695 33.198 34.2292 33.0287 34.1484 32.8985C34.0703 32.7657 33.9492 32.6693 33.7852 32.6094C33.6237 32.5469 33.418 32.5157 33.168 32.5157H32.0586V37.586H31.3047V31.8985H33.168C33.4596 31.8985 33.7201 31.9284 33.9492 31.9883C34.1784 32.0456 34.3724 32.1368 34.5312 32.2618C34.6927 32.3842 34.8151 32.5404 34.8984 32.7305C34.9818 32.9206 35.0234 33.1485 35.0234 33.4141C35.0234 33.6485 34.9635 33.8607 34.8438 34.0508C34.724 34.2383 34.5573 34.392 34.3438 34.5118C34.1328 34.6316 33.8854 34.7084 33.6016 34.7422L33.332 34.9258ZM33.2969 37.586H31.5938L32.0195 36.9727H33.2969C33.5365 36.9727 33.7396 36.9311 33.9062 36.8477C34.0755 36.7644 34.2044 36.6472 34.293 36.4962C34.3815 36.3425 34.4258 36.1615 34.4258 35.9532C34.4258 35.7422 34.388 35.56 34.3125 35.4063C34.237 35.2527 34.1185 35.1342 33.957 35.0508C33.7956 34.9675 33.5872 34.9258 33.332 34.9258H32.2578L32.2656 34.3204H33.7344L33.8945 34.5391C34.168 34.5626 34.3997 34.6407 34.5898 34.7735C34.7799 34.9037 34.9245 35.0704 35.0234 35.2735C35.125 35.4766 35.1758 35.7006 35.1758 35.9454C35.1758 36.2995 35.0977 36.599 34.9414 36.8438C34.7878 37.086 34.5703 37.2709 34.2891 37.3985C34.0078 37.5235 33.6771 37.586 33.2969 37.586Z" fill="#1E1E1E"/>
<path d="M16.349 19.1284C16.349 19.1284 16.349 10.3863 16.6393 10.3871C16.8637 10.3871 17.1556 21.6638 17.1556 21.6638C16.754 21.6166 16.349 19.8084 16.349 19.1284ZM21.9751 10.4884C21.1997 7.09986 19.5013 4.18639 17.159 1.9378L17.1531 1.93274C16.8679 1.49736 16.6072 0.997861 16.398 0.471361L16.3777 0.413986C16.3785 0.430861 16.3785 0.451111 16.3785 0.471361C16.3785 0.94808 16.1651 1.37417 15.8284 1.66021L15.8259 1.66189C12.8103 4.22183 10.8916 7.99424 10.8284 12.2155V12.2265C10.8275 12.2788 10.8275 12.3404 10.8275 12.402C10.8275 16.5845 12.8399 20.297 15.9491 22.624L15.982 22.6476L16.0554 22.7008C16.191 23.7043 16.3068 24.7101 16.403 25.7181H16.9101C17.0502 24.46 17.2392 23.3589 17.4864 22.2789L17.4476 22.4806C17.7817 22.2486 18.0736 22.0081 18.3462 21.7474L18.3436 21.7499C20.707 19.5587 22.1819 16.4368 22.1819 12.9715C22.1819 12.92 22.1819 12.8694 22.181 12.818V12.8255C22.1785 11.9978 22.1034 11.1887 21.9608 10.4031L21.9735 10.4867L21.9751 10.4884Z" fill="black"/>
</svg>
