<svg width="27" height="40" viewBox="0 0 27 40" fill="none" xmlns="http://www.w3.org/2000/svg">
<path d="M6.18359 31.3325V37.02H5.42578L2.5625 32.6333V37.02H1.80859V31.3325H2.5625L5.4375 35.7309V31.3325H6.18359ZM9.16406 37.0981C8.86979 37.0981 8.60286 37.0486 8.36328 36.9497C8.1263 36.8481 7.92188 36.7062 7.75 36.5239C7.58073 36.3416 7.45052 36.1255 7.35938 35.8755C7.26823 35.6255 7.22266 35.352 7.22266 35.0551V34.8911C7.22266 34.5473 7.27344 34.2413 7.375 33.9731C7.47656 33.7023 7.61458 33.4731 7.78906 33.2856C7.96354 33.0981 8.16146 32.9562 8.38281 32.8598C8.60417 32.7635 8.83333 32.7153 9.07031 32.7153C9.3724 32.7153 9.63281 32.7674 9.85156 32.8716C10.0729 32.9757 10.2539 33.1216 10.3945 33.3091C10.5352 33.4939 10.6393 33.7127 10.707 33.9653C10.7747 34.2153 10.8086 34.4887 10.8086 34.7856V35.1098H7.65234V34.52H10.0859V34.4653C10.0755 34.2778 10.0365 34.0955 9.96875 33.9184C9.90365 33.7413 9.79948 33.5955 9.65625 33.4809C9.51302 33.3663 9.31771 33.3091 9.07031 33.3091C8.90625 33.3091 8.75521 33.3442 8.61719 33.4145C8.47917 33.4822 8.36068 33.5838 8.26172 33.7192C8.16276 33.8546 8.08594 34.02 8.03125 34.2153C7.97656 34.4106 7.94922 34.6359 7.94922 34.8911V35.0551C7.94922 35.2557 7.97656 35.4445 8.03125 35.6216C8.08854 35.796 8.17057 35.9497 8.27734 36.0825C8.38672 36.2153 8.51823 36.3195 8.67188 36.395C8.82812 36.4705 9.00521 36.5083 9.20312 36.5083C9.45833 36.5083 9.67448 36.4562 9.85156 36.352C10.0286 36.2479 10.1836 36.1085 10.3164 35.9341L10.7539 36.2817C10.6628 36.4197 10.5469 36.5512 10.4062 36.6762C10.2656 36.8012 10.0924 36.9028 9.88672 36.9809C9.68359 37.0591 9.44271 37.0981 9.16406 37.0981ZM12.1406 32.7934L13.0664 34.3325L14.0039 32.7934H14.8516L13.4688 34.8794L14.8945 37.02H14.0586L13.082 35.4341L12.1055 37.02H11.2656L12.6875 34.8794L11.3086 32.7934H12.1406ZM17.3906 32.7934V33.3481H15.1055V32.7934H17.3906ZM15.8789 31.7661H16.6016V35.9731C16.6016 36.1163 16.6237 36.2244 16.668 36.2973C16.7122 36.3702 16.7695 36.4184 16.8398 36.4419C16.9102 36.4653 16.9857 36.477 17.0664 36.477C17.1263 36.477 17.1888 36.4718 17.2539 36.4614C17.3216 36.4484 17.3724 36.438 17.4062 36.4301L17.4102 37.02C17.3529 37.0382 17.2773 37.0551 17.1836 37.0708C17.0924 37.089 16.9818 37.0981 16.8516 37.0981C16.6745 37.0981 16.5117 37.063 16.3633 36.9926C16.2148 36.9223 16.0964 36.8051 16.0078 36.6411C15.9219 36.4744 15.8789 36.2505 15.8789 35.9692V31.7661ZM20.7344 35.3598V31.3325H21.4844V35.3598C21.4844 35.7348 21.4076 36.0512 21.2539 36.3091C21.1003 36.5669 20.888 36.7635 20.6172 36.8989C20.349 37.0317 20.0404 37.0981 19.6914 37.0981C19.3424 37.0981 19.0326 37.0382 18.7617 36.9184C18.4909 36.7986 18.2786 36.6163 18.125 36.3716C17.9714 36.1268 17.8945 35.8182 17.8945 35.4458H18.6484C18.6484 35.6854 18.6927 35.882 18.7812 36.0356C18.8698 36.1893 18.9922 36.3025 19.1484 36.3755C19.3073 36.4484 19.4883 36.4848 19.6914 36.4848C19.8893 36.4848 20.0664 36.4432 20.2227 36.3598C20.3815 36.2739 20.5065 36.1476 20.5977 35.9809C20.6888 35.8117 20.7344 35.6046 20.7344 35.3598ZM25.793 35.5825C25.793 35.4497 25.7721 35.3325 25.7305 35.2309C25.6914 35.1268 25.6211 35.033 25.5195 34.9497C25.4206 34.8663 25.2826 34.7869 25.1055 34.7114C24.931 34.6359 24.7096 34.5591 24.4414 34.4809C24.1602 34.3976 23.9062 34.3051 23.6797 34.2036C23.4531 34.0994 23.2591 33.9809 23.0977 33.8481C22.9362 33.7153 22.8125 33.563 22.7266 33.3911C22.6406 33.2192 22.5977 33.0226 22.5977 32.8012C22.5977 32.5799 22.6432 32.3755 22.7344 32.188C22.8255 32.0005 22.9557 31.8377 23.125 31.6997C23.2969 31.5591 23.5013 31.4497 23.7383 31.3716C23.9753 31.2934 24.2396 31.2544 24.5312 31.2544C24.9583 31.2544 25.3203 31.3364 25.6172 31.5005C25.9167 31.6619 26.1445 31.8742 26.3008 32.1372C26.457 32.3976 26.5352 32.6762 26.5352 32.9731H25.7852C25.7852 32.7596 25.7396 32.5708 25.6484 32.4067C25.5573 32.24 25.4193 32.1098 25.2344 32.0161C25.0495 31.9197 24.8151 31.8716 24.5312 31.8716C24.263 31.8716 24.0417 31.9119 23.8672 31.9926C23.6927 32.0734 23.5625 32.1827 23.4766 32.3208C23.3932 32.4588 23.3516 32.6163 23.3516 32.7934C23.3516 32.9132 23.3763 33.0226 23.4258 33.1216C23.4779 33.2179 23.5573 33.3077 23.6641 33.3911C23.7734 33.4744 23.9115 33.5512 24.0781 33.6216C24.2474 33.6919 24.4492 33.7596 24.6836 33.8247C25.0065 33.9158 25.2852 34.0174 25.5195 34.1294C25.7539 34.2413 25.9466 34.3676 26.0977 34.5083C26.2513 34.6463 26.3646 34.8038 26.4375 34.9809C26.513 35.1554 26.5508 35.3533 26.5508 35.5747C26.5508 35.8064 26.5039 36.0161 26.4102 36.2036C26.3164 36.3911 26.1823 36.5512 26.0078 36.6841C25.8333 36.8169 25.6237 36.9197 25.3789 36.9926C25.1367 37.063 24.8659 37.0981 24.5664 37.0981C24.3034 37.0981 24.0443 37.0617 23.7891 36.9887C23.5365 36.9158 23.306 36.8064 23.0977 36.6606C22.8919 36.5148 22.7266 36.3351 22.6016 36.1216C22.4792 35.9054 22.418 35.6554 22.418 35.3716H23.168C23.168 35.5669 23.2057 35.7348 23.2812 35.8755C23.3568 36.0135 23.4596 36.1281 23.5898 36.2192C23.7227 36.3104 23.8724 36.3781 24.0391 36.4223C24.2083 36.464 24.3841 36.4848 24.5664 36.4848C24.8294 36.4848 25.0521 36.4484 25.2344 36.3755C25.4167 36.3025 25.5547 36.1984 25.6484 36.063C25.7448 35.9275 25.793 35.7674 25.793 35.5825Z" fill="#1E1E1E"/>
<path d="M12.6158 0.0272548C12.5578 0.0325326 12.373 0.051005 12.2067 0.0641995C8.37185 0.409897 4.77977 2.4788 2.50469 5.65869C1.23783 7.42675 0.427566 9.43232 0.121408 11.5566C0.0131965 12.2982 0 12.5172 0 13.5226C0 14.5281 0.0131965 14.7471 0.121408 15.4886C0.855132 20.558 4.46305 24.8172 9.35631 26.3952C10.2326 26.6776 11.1563 26.8702 12.2067 26.9863C12.6158 27.0312 14.3842 27.0312 14.7933 26.9863C16.6065 26.7858 18.1425 26.3372 19.6575 25.564C19.8897 25.4452 19.9346 25.4136 19.9029 25.3872C19.8818 25.3713 18.8921 24.044 17.7044 22.4395L15.5455 19.5235L12.8402 15.5203C11.3516 13.3194 10.127 11.5197 10.1164 11.5197C10.1059 11.5171 10.0953 13.2957 10.09 15.4675C10.0821 19.2702 10.0795 19.4232 10.032 19.513C9.96334 19.6423 9.91056 19.695 9.79971 19.7531C9.71525 19.7953 9.64135 19.8032 9.24282 19.8032H8.78622L8.66481 19.7267C8.58563 19.6766 8.52757 19.6106 8.48798 19.5341L8.43255 19.4153L8.43783 14.1243L8.44575 8.83065L8.52757 8.72774C8.56979 8.67232 8.65953 8.60107 8.72287 8.56676C8.83109 8.51398 8.87331 8.50871 9.32991 8.50871C9.86833 8.50871 9.95806 8.52982 10.0979 8.68287C10.1375 8.7251 11.6023 10.9312 13.3548 13.5886C15.1073 16.246 17.5038 19.8745 18.6809 21.6557L20.8188 24.8937L20.927 24.8224C21.885 24.1997 22.8985 23.313 23.7009 22.3894C25.4085 20.4287 26.5091 18.0378 26.8786 15.4886C26.9868 14.7471 27 14.5281 27 13.5226C27 12.5172 26.9868 12.2982 26.8786 11.5566C26.1449 6.4873 22.5369 2.2281 17.6437 0.650037C16.7806 0.370313 15.8622 0.177673 14.8328 0.0615606C14.5795 0.0351715 12.8349 0.00614354 12.6158 0.0272548ZM18.1425 8.19204C18.2692 8.25537 18.3721 8.37676 18.4091 8.50343C18.4302 8.57204 18.4355 10.0393 18.4302 13.3458L18.4223 18.0906L17.5856 16.8081L16.7463 15.5256V12.0765C16.7463 9.84663 16.7569 8.59315 16.7727 8.53246C16.815 8.38468 16.9073 8.26857 17.034 8.19995C17.1422 8.14454 17.1818 8.13926 17.5962 8.13926C17.9868 8.13926 18.0554 8.14454 18.1425 8.19204Z" fill="black"/>
</svg>
