<svg width="27" height="40" viewBox="0 0 27 40" fill="none" xmlns="http://www.w3.org/2000/svg">
<path d="M9.51953 32.3125V38H8.76172L5.89844 33.6133V38H5.14453V32.3125H5.89844L8.77344 36.7109V32.3125H9.51953ZM10.5547 35.9336V35.8438C10.5547 35.5391 10.599 35.2565 10.6875 34.9961C10.776 34.7331 10.9036 34.5052 11.0703 34.3125C11.237 34.1172 11.4388 33.9661 11.6758 33.8594C11.9128 33.75 12.1784 33.6953 12.4727 33.6953C12.7695 33.6953 13.0365 33.75 13.2734 33.8594C13.513 33.9661 13.7161 34.1172 13.8828 34.3125C14.0521 34.5052 14.181 34.7331 14.2695 34.9961C14.3581 35.2565 14.4023 35.5391 14.4023 35.8438V35.9336C14.4023 36.2383 14.3581 36.5208 14.2695 36.7812C14.181 37.0417 14.0521 37.2695 13.8828 37.4648C13.7161 37.6576 13.5143 37.8086 13.2773 37.918C13.043 38.0247 12.7773 38.0781 12.4805 38.0781C12.1836 38.0781 11.9167 38.0247 11.6797 37.918C11.4427 37.8086 11.2396 37.6576 11.0703 37.4648C10.9036 37.2695 10.776 37.0417 10.6875 36.7812C10.599 36.5208 10.5547 36.2383 10.5547 35.9336ZM11.2773 35.8438V35.9336C11.2773 36.1445 11.3021 36.3438 11.3516 36.5312C11.401 36.7161 11.4753 36.8802 11.5742 37.0234C11.6758 37.1667 11.8021 37.2799 11.9531 37.3633C12.1042 37.444 12.2799 37.4844 12.4805 37.4844C12.6784 37.4844 12.8516 37.444 13 37.3633C13.151 37.2799 13.276 37.1667 13.375 37.0234C13.474 36.8802 13.5482 36.7161 13.5977 36.5312C13.6497 36.3438 13.6758 36.1445 13.6758 35.9336V35.8438C13.6758 35.6354 13.6497 35.4388 13.5977 35.2539C13.5482 35.0664 13.4727 34.901 13.3711 34.7578C13.2721 34.612 13.1471 34.4974 12.9961 34.4141C12.8477 34.3307 12.6732 34.2891 12.4727 34.2891C12.2747 34.2891 12.1003 34.3307 11.9492 34.4141C11.8008 34.4974 11.6758 34.612 11.5742 34.7578C11.4753 34.901 11.401 35.0664 11.3516 35.2539C11.3021 35.4388 11.2773 35.6354 11.2773 35.8438ZM17.9727 37.1797V32H18.6992V38H18.0352L17.9727 37.1797ZM15.1289 35.9336V35.8516C15.1289 35.5286 15.168 35.2357 15.2461 34.9727C15.3268 34.707 15.4401 34.4792 15.5859 34.2891C15.7344 34.099 15.9102 33.9531 16.1133 33.8516C16.319 33.7474 16.5482 33.6953 16.8008 33.6953C17.0664 33.6953 17.2982 33.7422 17.4961 33.8359C17.6966 33.9271 17.8659 34.0612 18.0039 34.2383C18.1445 34.4128 18.2552 34.6237 18.3359 34.8711C18.4167 35.1185 18.4727 35.3984 18.5039 35.7109V36.0703C18.4753 36.3802 18.4193 36.6589 18.3359 36.9062C18.2552 37.1536 18.1445 37.3646 18.0039 37.5391C17.8659 37.7135 17.6966 37.8477 17.4961 37.9414C17.2956 38.0326 17.0612 38.0781 16.793 38.0781C16.5456 38.0781 16.319 38.0247 16.1133 37.918C15.9102 37.8112 15.7344 37.6615 15.5859 37.4688C15.4401 37.276 15.3268 37.0495 15.2461 36.7891C15.168 36.526 15.1289 36.2409 15.1289 35.9336ZM15.8555 35.8516V35.9336C15.8555 36.1445 15.8763 36.3424 15.918 36.5273C15.9622 36.7122 16.0299 36.875 16.1211 37.0156C16.2122 37.1562 16.3281 37.2669 16.4688 37.3477C16.6094 37.4258 16.7773 37.4648 16.9727 37.4648C17.2122 37.4648 17.4089 37.4141 17.5625 37.3125C17.7188 37.2109 17.8438 37.0768 17.9375 36.9102C18.0312 36.7435 18.1042 36.5625 18.1562 36.3672V35.4258C18.125 35.2826 18.0794 35.1445 18.0195 35.0117C17.9622 34.8763 17.8867 34.7565 17.793 34.6523C17.7018 34.5456 17.5885 34.4609 17.4531 34.3984C17.3203 34.3359 17.1628 34.3047 16.9805 34.3047C16.7826 34.3047 16.612 34.3464 16.4688 34.4297C16.3281 34.5104 16.2122 34.6224 16.1211 34.7656C16.0299 34.9062 15.9622 35.0703 15.918 35.2578C15.8763 35.4427 15.8555 35.6406 15.8555 35.8516ZM21.5781 38.0781C21.2839 38.0781 21.0169 38.0286 20.7773 37.9297C20.5404 37.8281 20.3359 37.6862 20.1641 37.5039C19.9948 37.3216 19.8646 37.1055 19.7734 36.8555C19.6823 36.6055 19.6367 36.332 19.6367 36.0352V35.8711C19.6367 35.5273 19.6875 35.2214 19.7891 34.9531C19.8906 34.6823 20.0286 34.4531 20.2031 34.2656C20.3776 34.0781 20.5755 33.9362 20.7969 33.8398C21.0182 33.7435 21.2474 33.6953 21.4844 33.6953C21.7865 33.6953 22.0469 33.7474 22.2656 33.8516C22.487 33.9557 22.668 34.1016 22.8086 34.2891C22.9492 34.474 23.0534 34.6927 23.1211 34.9453C23.1888 35.1953 23.2227 35.4688 23.2227 35.7656V36.0898H20.0664V35.5H22.5V35.4453C22.4896 35.2578 22.4505 35.0755 22.3828 34.8984C22.3177 34.7214 22.2135 34.5755 22.0703 34.4609C21.9271 34.3464 21.7318 34.2891 21.4844 34.2891C21.3203 34.2891 21.1693 34.3242 21.0312 34.3945C20.8932 34.4622 20.7747 34.5638 20.6758 34.6992C20.5768 34.8346 20.5 35 20.4453 35.1953C20.3906 35.3906 20.3633 35.6159 20.3633 35.8711V36.0352C20.3633 36.2357 20.3906 36.4245 20.4453 36.6016C20.5026 36.776 20.5846 36.9297 20.6914 37.0625C20.8008 37.1953 20.9323 37.2995 21.0859 37.375C21.2422 37.4505 21.4193 37.4883 21.6172 37.4883C21.8724 37.4883 22.0885 37.4362 22.2656 37.332C22.4427 37.2279 22.5977 37.0885 22.7305 36.9141L23.168 37.2617C23.0768 37.3997 22.9609 37.5312 22.8203 37.6562C22.6797 37.7812 22.5065 37.8828 22.3008 37.9609C22.0977 38.0391 21.8568 38.0781 21.5781 38.0781Z" fill="#1E1E1E"/>
<path d="M13.4934 0C13.0828 0 12.6722 0.0929749 12.3179 0.279898L1.16895 6.22063C0.448945 6.60486 0 7.33235 0 8.10081V18.8789C0 19.6578 0.448945 20.3749 1.16895 20.7591L4.0957 22.3168C5.5132 22.9606 6.01866 22.9597 6.65991 22.9597C8.76366 22.9597 9.9668 21.7864 9.9668 19.7511V8.63018C9.9668 8.46403 9.8216 8.32798 9.6416 8.32798H8.23535C8.0441 8.32798 7.90796 8.46403 7.90796 8.63018V19.7409C7.90796 20.6548 6.88544 21.5476 5.23169 20.7895L2.1709 19.1588C2.0584 19.1069 1.99072 18.9931 1.99072 18.8789V8.11095C1.99072 7.98634 2.0584 7.88119 2.1709 7.81889L13.3198 1.88018C13.4211 1.81788 13.5567 1.81788 13.6692 1.88018L24.8181 7.81889C24.9306 7.88119 24.9983 7.98658 24.9983 8.10081V18.8789C24.9983 18.9931 24.9304 19.1069 24.8291 19.1588L13.6692 25.1097C13.5679 25.1616 13.4211 25.1616 13.3198 25.1097L10.4502 23.5418C10.3714 23.4899 10.2609 23.48 10.1821 23.5216C9.38338 23.9369 9.23713 23.9885 8.49463 24.2274C8.31463 24.2793 8.0332 24.3828 8.5957 24.6736L12.3179 26.71C12.6779 26.8969 13.084 27 13.489 27C13.9053 27 14.3089 26.8969 14.6689 26.71L25.8311 20.7591C26.5511 20.3749 27 19.6578 27 18.8789V8.11095C27 7.33211 26.5511 6.615 25.8311 6.23077L14.6689 0.279898C14.3146 0.0929749 13.904 0 13.4934 0ZM16.4927 8.31378C13.3089 8.31378 11.4082 9.55912 11.4082 11.636C11.4082 13.8895 13.2964 14.5116 16.3564 14.792C20.0127 15.1243 20.2939 15.6242 20.2939 16.2888C20.2939 17.4311 19.2944 17.9195 16.9431 17.9195C13.9844 17.9195 13.3314 17.2332 13.1177 15.8832C13.0952 15.7378 12.961 15.6337 12.8035 15.6337H11.3511C11.1711 15.6337 11.0369 15.77 11.0369 15.9258C11.0369 17.66 12.0606 19.7247 16.9431 19.7247C20.4756 19.7247 22.5 18.4386 22.5 16.1955C22.5 13.9732 20.8685 13.3802 17.4485 12.9544C13.9722 12.539 13.623 12.3209 13.623 11.5732C13.623 10.9501 13.9277 10.1311 16.4927 10.1311C18.7764 10.1311 19.631 10.5865 19.9797 12.0092C20.0135 12.1442 20.1364 12.2486 20.2939 12.2486H21.7463C21.8363 12.2486 21.9139 12.2074 21.9814 12.1451C22.0377 12.0932 22.0718 12.0094 22.0605 11.9159C21.8355 9.46517 20.0702 8.31378 16.4927 8.31378Z" fill="black"/>
</svg>
