<svg width="32" height="40" viewBox="0 0 32 40" fill="none" xmlns="http://www.w3.org/2000/svg">
<path d="M2.85547 34.8564H1.33594V34.2431H2.85547C3.14974 34.2431 3.38802 34.1962 3.57031 34.1025C3.7526 34.0087 3.88542 33.8785 3.96875 33.7119C4.05469 33.5452 4.09766 33.3551 4.09766 33.1415C4.09766 32.9462 4.05469 32.7626 3.96875 32.5908C3.88542 32.4189 3.7526 32.2809 3.57031 32.1767C3.38802 32.0699 3.14974 32.0165 2.85547 32.0165H1.51172V37.0869H0.757812V31.3994H2.85547C3.28516 31.3994 3.64844 31.4736 3.94531 31.622C4.24219 31.7704 4.46745 31.9762 4.62109 32.2392C4.77474 32.4996 4.85156 32.7978 4.85156 33.1337C4.85156 33.4983 4.77474 33.8095 4.62109 34.0673C4.46745 34.3251 4.24219 34.5217 3.94531 34.6572C3.64844 34.79 3.28516 34.8564 2.85547 34.8564ZM5.44922 35.0204V34.9306C5.44922 34.6259 5.49349 34.3434 5.58203 34.0829C5.67057 33.8199 5.79818 33.5921 5.96484 33.3994C6.13151 33.204 6.33333 33.053 6.57031 32.9462C6.80729 32.8369 7.07292 32.7822 7.36719 32.7822C7.66406 32.7822 7.93099 32.8369 8.16797 32.9462C8.40755 33.053 8.61068 33.204 8.77734 33.3994C8.94661 33.5921 9.07552 33.8199 9.16406 34.0829C9.2526 34.3434 9.29688 34.6259 9.29688 34.9306V35.0204C9.29688 35.3251 9.2526 35.6077 9.16406 35.8681C9.07552 36.1285 8.94661 36.3564 8.77734 36.5517C8.61068 36.7444 8.40885 36.8954 8.17188 37.0048C7.9375 37.1116 7.67188 37.165 7.375 37.165C7.07812 37.165 6.8112 37.1116 6.57422 37.0048C6.33724 36.8954 6.13411 36.7444 5.96484 36.5517C5.79818 36.3564 5.67057 36.1285 5.58203 35.8681C5.49349 35.6077 5.44922 35.3251 5.44922 35.0204ZM6.17188 34.9306V35.0204C6.17188 35.2314 6.19661 35.4306 6.24609 35.6181C6.29557 35.803 6.36979 35.9671 6.46875 36.1103C6.57031 36.2535 6.69661 36.3668 6.84766 36.4501C6.9987 36.5309 7.17448 36.5712 7.375 36.5712C7.57292 36.5712 7.74609 36.5309 7.89453 36.4501C8.04557 36.3668 8.17057 36.2535 8.26953 36.1103C8.36849 35.9671 8.44271 35.803 8.49219 35.6181C8.54427 35.4306 8.57031 35.2314 8.57031 35.0204V34.9306C8.57031 34.7223 8.54427 34.5257 8.49219 34.3408C8.44271 34.1533 8.36719 33.9879 8.26562 33.8447C8.16667 33.6988 8.04167 33.5842 7.89062 33.5009C7.74219 33.4176 7.56771 33.3759 7.36719 33.3759C7.16927 33.3759 6.99479 33.4176 6.84375 33.5009C6.69531 33.5842 6.57031 33.6988 6.46875 33.8447C6.36979 33.9879 6.29557 34.1533 6.24609 34.3408C6.19661 34.5257 6.17188 34.7223 6.17188 34.9306ZM12.6641 35.9658C12.6641 35.8616 12.6406 35.7652 12.5938 35.6767C12.5495 35.5856 12.457 35.5035 12.3164 35.4306C12.1784 35.3551 11.9701 35.29 11.6914 35.2353C11.457 35.1858 11.2448 35.1272 11.0547 35.0595C10.8672 34.9918 10.707 34.9098 10.5742 34.8134C10.444 34.7171 10.3438 34.6038 10.2734 34.4736C10.2031 34.3434 10.168 34.191 10.168 34.0165C10.168 33.8499 10.2044 33.6923 10.2773 33.5439C10.3529 33.3954 10.4583 33.2639 10.5938 33.1494C10.7318 33.0348 10.8971 32.9449 11.0898 32.8798C11.2826 32.8147 11.4974 32.7822 11.7344 32.7822C12.0729 32.7822 12.362 32.8421 12.6016 32.9619C12.8411 33.0816 13.0247 33.2418 13.1523 33.4423C13.2799 33.6402 13.3438 33.8603 13.3438 34.1025H12.6211C12.6211 33.9853 12.5859 33.872 12.5156 33.7626C12.4479 33.6507 12.3477 33.5582 12.2148 33.4853C12.0846 33.4124 11.9245 33.3759 11.7344 33.3759C11.5339 33.3759 11.3711 33.4072 11.2461 33.4697C11.1237 33.5296 11.0339 33.6064 10.9766 33.7001C10.9219 33.7939 10.8945 33.8928 10.8945 33.997C10.8945 34.0751 10.9076 34.1454 10.9336 34.2079C10.9622 34.2678 11.0117 34.3238 11.082 34.3759C11.1523 34.4254 11.2513 34.4723 11.3789 34.5165C11.5065 34.5608 11.6693 34.6051 11.8672 34.6494C12.2135 34.7275 12.4987 34.8212 12.7227 34.9306C12.9466 35.04 13.1133 35.1741 13.2227 35.3329C13.332 35.4918 13.3867 35.6845 13.3867 35.9111C13.3867 36.096 13.3477 36.2652 13.2695 36.4189C13.194 36.5725 13.0833 36.7053 12.9375 36.8173C12.7943 36.9267 12.6224 37.0126 12.4219 37.0751C12.224 37.135 12.0013 37.165 11.7539 37.165C11.3815 37.165 11.0664 37.0986 10.8086 36.9658C10.5508 36.8329 10.3555 36.6611 10.2227 36.4501C10.0898 36.2392 10.0234 36.0165 10.0234 35.7822H10.75C10.7604 35.9801 10.8177 36.1376 10.9219 36.2548C11.026 36.3694 11.1536 36.4514 11.3047 36.5009C11.4557 36.5478 11.6055 36.5712 11.7539 36.5712C11.9518 36.5712 12.1172 36.5452 12.25 36.4931C12.3854 36.441 12.4883 36.3694 12.5586 36.2783C12.6289 36.1871 12.6641 36.0829 12.6641 35.9658ZM16.1055 32.8603V33.415H13.8203V32.8603H16.1055ZM14.5938 31.8329H15.3164V36.04C15.3164 36.1832 15.3385 36.2913 15.3828 36.3642C15.4271 36.4371 15.4844 36.4853 15.5547 36.5087C15.625 36.5322 15.7005 36.5439 15.7812 36.5439C15.8411 36.5439 15.9036 36.5387 15.9688 36.5283C16.0365 36.5152 16.0872 36.5048 16.1211 36.497L16.125 37.0869C16.0677 37.1051 15.9922 37.122 15.8984 37.1376C15.8073 37.1559 15.6966 37.165 15.5664 37.165C15.3893 37.165 15.2266 37.1298 15.0781 37.0595C14.9297 36.9892 14.8112 36.872 14.7227 36.7079C14.6367 36.5413 14.5938 36.3173 14.5938 36.0361V31.8329ZM19.6914 32.8603H20.3477V36.997C20.3477 37.3694 20.2721 37.6871 20.1211 37.9501C19.9701 38.2132 19.7591 38.4124 19.4883 38.5478C19.2201 38.6858 18.9102 38.7548 18.5586 38.7548C18.4128 38.7548 18.2409 38.7314 18.043 38.6845C17.8477 38.6402 17.6549 38.5634 17.4648 38.454C17.2773 38.3473 17.1198 38.2027 16.9922 38.0204L17.3711 37.5908C17.5482 37.8043 17.7331 37.9527 17.9258 38.0361C18.1211 38.1194 18.3138 38.1611 18.5039 38.1611C18.7331 38.1611 18.931 38.1181 19.0977 38.0322C19.2643 37.9462 19.3932 37.8186 19.4844 37.6494C19.5781 37.4827 19.625 37.277 19.625 37.0322V33.79L19.6914 32.8603ZM16.7812 35.0204V34.9384C16.7812 34.6155 16.819 34.3225 16.8945 34.0595C16.9727 33.7939 17.0833 33.566 17.2266 33.3759C17.3724 33.1858 17.5482 33.04 17.7539 32.9384C17.9596 32.8342 18.1914 32.7822 18.4492 32.7822C18.7148 32.7822 18.9466 32.829 19.1445 32.9228C19.3451 33.0139 19.5143 33.1481 19.6523 33.3251C19.793 33.4996 19.9036 33.7106 19.9844 33.9579C20.0651 34.2053 20.1211 34.4853 20.1523 34.7978V35.1572C20.1237 35.4671 20.0677 35.7457 19.9844 35.9931C19.9036 36.2405 19.793 36.4514 19.6523 36.6259C19.5143 36.8004 19.3451 36.9345 19.1445 37.0283C18.944 37.1194 18.7096 37.165 18.4414 37.165C18.1888 37.165 17.9596 37.1116 17.7539 37.0048C17.5508 36.8981 17.3763 36.7483 17.2305 36.5556C17.0846 36.3629 16.9727 36.1363 16.8945 35.8759C16.819 35.6129 16.7812 35.3277 16.7812 35.0204ZM17.5039 34.9384V35.0204C17.5039 35.2314 17.5247 35.4293 17.5664 35.6142C17.6107 35.7991 17.6771 35.9619 17.7656 36.1025C17.8568 36.2431 17.9727 36.3538 18.1133 36.4345C18.2539 36.5126 18.4219 36.5517 18.6172 36.5517C18.8568 36.5517 19.0547 36.5009 19.2109 36.3994C19.3672 36.2978 19.4909 36.1637 19.582 35.997C19.6758 35.8303 19.7487 35.6494 19.8008 35.454V34.5126C19.7721 34.3694 19.7279 34.2314 19.668 34.0986C19.6107 33.9632 19.5352 33.8434 19.4414 33.7392C19.3503 33.6324 19.237 33.5478 19.1016 33.4853C18.9661 33.4228 18.8073 33.3915 18.625 33.3915C18.4271 33.3915 18.2565 33.4332 18.1133 33.5165C17.9727 33.5973 17.8568 33.7092 17.7656 33.8525C17.6771 33.9931 17.6107 34.1572 17.5664 34.3447C17.5247 34.5296 17.5039 34.7275 17.5039 34.9384ZM22.168 33.5244V37.0869H21.4453V32.8603H22.1484L22.168 33.5244ZM23.4883 32.8369L23.4844 33.5087C23.4245 33.4957 23.3672 33.4879 23.3125 33.4853C23.2604 33.4801 23.2005 33.4775 23.1328 33.4775C22.9661 33.4775 22.819 33.5035 22.6914 33.5556C22.5638 33.6077 22.4557 33.6806 22.3672 33.7744C22.2786 33.8681 22.2083 33.9801 22.1562 34.1103C22.1068 34.2379 22.0742 34.3785 22.0586 34.5322L21.8555 34.6494C21.8555 34.3941 21.8802 34.1546 21.9297 33.9306C21.9818 33.7066 22.0612 33.5087 22.168 33.3369C22.2747 33.1624 22.4102 33.027 22.5742 32.9306C22.7409 32.8316 22.9388 32.7822 23.168 32.7822C23.2201 32.7822 23.2799 32.7887 23.3477 32.8017C23.4154 32.8121 23.4622 32.8238 23.4883 32.8369ZM25.832 37.165C25.5378 37.165 25.2708 37.1155 25.0312 37.0165C24.7943 36.915 24.5898 36.7731 24.418 36.5908C24.2487 36.4085 24.1185 36.1923 24.0273 35.9423C23.9362 35.6923 23.8906 35.4189 23.8906 35.122V34.9579C23.8906 34.6142 23.9414 34.3082 24.043 34.04C24.1445 33.7691 24.2826 33.54 24.457 33.3525C24.6315 33.165 24.8294 33.0231 25.0508 32.9267C25.2721 32.8303 25.5013 32.7822 25.7383 32.7822C26.0404 32.7822 26.3008 32.8342 26.5195 32.9384C26.7409 33.0426 26.9219 33.1884 27.0625 33.3759C27.2031 33.5608 27.3073 33.7796 27.375 34.0322C27.4427 34.2822 27.4766 34.5556 27.4766 34.8525V35.1767H24.3203V34.5869H26.7539V34.5322C26.7435 34.3447 26.7044 34.1624 26.6367 33.9853C26.5716 33.8082 26.4674 33.6624 26.3242 33.5478C26.181 33.4332 25.9857 33.3759 25.7383 33.3759C25.5742 33.3759 25.4232 33.4111 25.2852 33.4814C25.1471 33.5491 25.0286 33.6507 24.9297 33.7861C24.8307 33.9215 24.7539 34.0869 24.6992 34.2822C24.6445 34.4775 24.6172 34.7027 24.6172 34.9579V35.122C24.6172 35.3225 24.6445 35.5113 24.6992 35.6884C24.7565 35.8629 24.8385 36.0165 24.9453 36.1494C25.0547 36.2822 25.1862 36.3863 25.3398 36.4619C25.4961 36.5374 25.6732 36.5751 25.8711 36.5751C26.1263 36.5751 26.3424 36.5231 26.5195 36.4189C26.6966 36.3147 26.8516 36.1754 26.9844 36.0009L27.4219 36.3486C27.3307 36.4866 27.2148 36.6181 27.0742 36.7431C26.9336 36.8681 26.7604 36.9697 26.5547 37.0478C26.3516 37.1259 26.1107 37.165 25.832 37.165ZM30.7812 35.9658C30.7812 35.8616 30.7578 35.7652 30.7109 35.6767C30.6667 35.5856 30.5742 35.5035 30.4336 35.4306C30.2956 35.3551 30.0872 35.29 29.8086 35.2353C29.5742 35.1858 29.362 35.1272 29.1719 35.0595C28.9844 34.9918 28.8242 34.9098 28.6914 34.8134C28.5612 34.7171 28.4609 34.6038 28.3906 34.4736C28.3203 34.3434 28.2852 34.191 28.2852 34.0165C28.2852 33.8499 28.3216 33.6923 28.3945 33.5439C28.4701 33.3954 28.5755 33.2639 28.7109 33.1494C28.849 33.0348 29.0143 32.9449 29.207 32.8798C29.3997 32.8147 29.6146 32.7822 29.8516 32.7822C30.1901 32.7822 30.4792 32.8421 30.7188 32.9619C30.9583 33.0816 31.1419 33.2418 31.2695 33.4423C31.3971 33.6402 31.4609 33.8603 31.4609 34.1025H30.7383C30.7383 33.9853 30.7031 33.872 30.6328 33.7626C30.5651 33.6507 30.4648 33.5582 30.332 33.4853C30.2018 33.4124 30.0417 33.3759 29.8516 33.3759C29.651 33.3759 29.4883 33.4072 29.3633 33.4697C29.2409 33.5296 29.151 33.6064 29.0938 33.7001C29.0391 33.7939 29.0117 33.8928 29.0117 33.997C29.0117 34.0751 29.0247 34.1454 29.0508 34.2079C29.0794 34.2678 29.1289 34.3238 29.1992 34.3759C29.2695 34.4254 29.3685 34.4723 29.4961 34.5165C29.6237 34.5608 29.7865 34.6051 29.9844 34.6494C30.3307 34.7275 30.6159 34.8212 30.8398 34.9306C31.0638 35.04 31.2305 35.1741 31.3398 35.3329C31.4492 35.4918 31.5039 35.6845 31.5039 35.9111C31.5039 36.096 31.4648 36.2652 31.3867 36.4189C31.3112 36.5725 31.2005 36.7053 31.0547 36.8173C30.9115 36.9267 30.7396 37.0126 30.5391 37.0751C30.3411 37.135 30.1185 37.165 29.8711 37.165C29.4987 37.165 29.1836 37.0986 28.9258 36.9658C28.668 36.8329 28.4727 36.6611 28.3398 36.4501C28.207 36.2392 28.1406 36.0165 28.1406 35.7822H28.8672C28.8776 35.9801 28.9349 36.1376 29.0391 36.2548C29.1432 36.3694 29.2708 36.4514 29.4219 36.5009C29.5729 36.5478 29.7227 36.5712 29.8711 36.5712C30.069 36.5712 30.2344 36.5452 30.3672 36.4931C30.5026 36.441 30.6055 36.3694 30.6758 36.2783C30.7461 36.1871 30.7812 36.0829 30.7812 35.9658Z" fill="#1E1E1E"/>
<path d="M22.4989 8.44446C22.4905 8.57524 22.4297 8.69083 22.3378 8.77099L22.3369 8.77183C22.2264 8.89249 22.0787 8.97686 21.9117 9.0064L21.9075 9.00724C21.8838 9.01061 21.856 9.01315 21.8281 9.01315C21.8273 9.01315 21.8256 9.01315 21.8248 9.01315C21.5615 9.01315 21.3354 8.85368 21.2392 8.62502L21.2375 8.6208C21.2122 8.43433 21.516 8.29343 21.829 8.24955C22.142 8.20568 22.4736 8.25883 22.4989 8.44446ZM14.1374 8.87815C14.0353 9.14055 13.7847 9.32365 13.4911 9.32365C13.4877 9.32365 13.4851 9.32365 13.4818 9.32365H13.4826C13.4522 9.32365 13.4235 9.32111 13.394 9.31774H13.3974C13.1772 9.27808 12.9899 9.15658 12.8658 8.98699L12.8641 8.98446C12.795 8.90515 12.7528 8.79968 12.7528 8.68577V8.68493C12.7629 8.61996 12.7992 8.56427 12.8498 8.52883L12.8506 8.52799C12.9789 8.45711 13.1325 8.41577 13.2961 8.41577C13.3662 8.41577 13.4345 8.42336 13.5003 8.43771L13.4944 8.43686C13.8277 8.48327 14.172 8.64105 14.1391 8.87815H14.1374ZM23.4338 15.3269L23.3435 15.2139L23.3064 15.1675C23.692 14.4536 23.9181 13.604 23.9181 12.7029C23.9181 12.2911 23.8709 11.8912 23.7814 11.5064L23.7882 11.5419C23.7291 11.1596 23.6945 10.7184 23.6945 10.2695C23.6945 10.2636 23.6945 10.2577 23.6945 10.2518C23.7139 9.82905 23.7586 9.43418 23.8278 9.0469L23.8194 9.10258C23.8945 8.71108 23.9375 8.26052 23.9375 7.79983C23.9375 7.7568 23.9375 7.71461 23.9367 7.67243V7.67918C23.9468 7.63783 23.9527 7.59143 23.9527 7.54249C23.9527 7.51971 23.951 7.49777 23.9493 7.47583V7.47837C23.6118 6.14524 22.9782 4.99015 22.1201 4.04177L22.126 4.04852C21.3573 3.1474 20.4123 2.42093 19.3416 1.91974L19.291 1.89865C19.8782 1.77293 20.5532 1.70121 21.2451 1.70121C21.3084 1.70121 21.3717 1.70205 21.435 1.7029H21.4257C21.4636 1.70205 21.5075 1.70121 21.5522 1.70121C23.5587 1.70121 25.3457 2.63693 26.5017 4.09577L26.5118 4.10927C26.5354 4.13965 26.559 4.17424 26.5793 4.21052L26.5818 4.21474C27.3446 5.64405 26.2907 10.8314 23.433 15.3286L23.4338 15.3269ZM23.1925 7.9323C23.179 8.31621 23.1385 8.67986 23.0744 9.03508L23.0811 8.98868C23.0153 9.34727 22.968 9.77421 22.9486 10.2079L22.9478 10.229C22.9478 10.2433 22.9478 10.2594 22.9478 10.2762C22.9478 10.7546 22.9832 11.2246 23.0524 11.6836L23.0457 11.6321C23.1174 11.9502 23.1587 12.3147 23.1587 12.6902C23.1587 13.334 23.0372 13.9499 22.8153 14.5144L22.8271 14.4806C22.763 14.3701 22.6964 14.2368 22.6381 14.0984L22.6289 14.074C22.5732 13.9398 22.4525 13.723 22.2863 13.4243C21.6375 12.2599 20.117 9.53374 20.895 8.42168C21.2949 7.84962 22.3091 7.82515 23.1916 7.93315L23.1925 7.9323ZM22.5926 17.7071C22.5495 16.8305 22.8761 16.7385 23.222 16.6415C23.2698 16.6286 23.3174 16.6142 23.3646 16.5985C23.4068 16.6356 23.4532 16.6719 23.5013 16.7039L23.5055 16.7065C24.0286 16.9368 24.6378 17.0701 25.2791 17.0701C25.7786 17.0701 26.2587 16.9891 26.7076 16.8389L26.6755 16.8482C26.3852 17.0954 26.0545 17.3072 25.6967 17.4709L25.6706 17.4819C25.1272 17.7046 24.4969 17.8438 23.8371 17.8649H23.8287C23.7283 17.8801 23.6127 17.8894 23.4954 17.8894C23.1697 17.8894 22.8592 17.8219 22.5782 17.7004L22.5934 17.7063L22.5926 17.7071ZM21.6535 19.4166C21.6358 19.6031 21.6155 19.8131 21.5885 20.0452L21.435 20.5076C21.4231 20.5413 21.4164 20.5801 21.4156 20.6206C21.4164 20.6434 21.4164 20.6696 21.4164 20.6957C21.4164 20.9952 21.3717 21.2855 21.289 21.558L21.2941 21.5369C21.1962 21.8651 21.1287 22.2457 21.1059 22.638L21.105 22.6515C21.0612 24.0724 19.9618 25.2224 18.567 25.3465L18.5561 25.3473C16.958 25.6899 16.6745 24.8233 16.4248 24.0589C16.3995 23.979 16.3725 23.8994 16.3438 23.8201C16.2088 23.27 16.1311 22.638 16.1311 21.9883C16.1311 21.6846 16.148 21.3851 16.1809 21.0897L16.1775 21.126C16.1826 21.018 16.1851 20.8906 16.1851 20.7632C16.1851 19.8975 16.0552 19.0622 15.8131 18.2758L15.8291 18.3357C15.8336 18.0264 15.8403 17.7131 15.8493 17.3958C15.8493 17.3933 15.8493 17.3891 15.8493 17.3857C15.8493 17.3469 15.8434 17.3097 15.8325 17.2743L15.8333 17.2768C15.8215 17.1925 15.8055 17.1182 15.7844 17.0465L15.7869 17.0575C15.6679 16.6179 15.3684 16.2635 14.9735 16.0753L14.9642 16.0711C14.8157 15.9969 14.6402 15.953 14.4538 15.953C14.366 15.953 14.2808 15.9623 14.199 15.9808L14.2066 15.9791C14.3146 15.5826 14.4259 15.2586 14.5542 14.943L14.5322 15.0046L14.5879 14.8553C14.6504 14.6865 14.7288 14.5119 14.8124 14.3271C15.2731 13.3787 15.5422 12.2641 15.5422 11.0862C15.5422 10.2948 15.4207 9.53205 15.1954 8.81487L15.2098 8.86802C15.0554 7.93315 14.2521 7.22861 13.2852 7.22861C13.1333 7.22861 12.9848 7.24633 12.8431 7.27924L12.8566 7.27671C12.1849 7.36446 11.5774 7.5619 11.0248 7.85215L11.0543 7.8378C10.9846 7.87324 10.9156 7.9098 10.8476 7.94749C10.9244 6.13596 11.6036 4.49655 12.6878 3.20983L12.6777 3.22165C12.7772 3.12124 12.8819 3.0259 12.9899 2.93646L12.9975 2.93055C13.0557 2.91874 13.1071 2.89512 13.151 2.86221L13.1502 2.86305C13.9036 2.31124 14.8495 1.97965 15.873 1.97965C15.9548 1.97965 16.0358 1.98133 16.116 1.98555L16.105 1.98471C16.5488 1.99146 16.9774 2.02183 17.3993 2.07583L17.3428 2.06993C19.0666 2.40152 20.538 3.30433 21.5885 4.56996L21.5978 4.58177C22.2289 5.31499 22.7402 6.17393 23.0879 7.11133L23.1064 7.16955C22.8896 7.11133 22.6407 7.07758 22.3842 7.07758C21.5548 7.07758 20.8081 7.42858 20.2832 7.98968L20.2815 7.99136C19.2353 9.48733 20.8545 12.3915 21.6324 13.7871C21.775 14.0427 21.8982 14.2638 21.937 14.3575C22.1564 14.8646 22.4323 15.3008 22.7639 15.6881L22.758 15.6813C22.8314 15.7733 22.9022 15.8619 22.9571 15.9395C22.5344 16.061 21.775 16.3428 21.8442 17.7502C21.8315 17.9147 21.7995 18.221 21.7564 18.6091C21.7109 18.8361 21.6737 19.1128 21.6526 19.3938L21.651 19.4174L21.6535 19.4166ZM13.8893 14.5954L13.8336 14.7439C13.718 15.0206 13.5982 15.3725 13.4986 15.7328L13.4826 15.8011C12.7291 15.7901 12.0525 15.4678 11.5749 14.9565L11.5732 14.9548C11.04 14.3921 10.7126 13.6301 10.7126 12.7915C10.7126 12.6244 10.7252 12.4607 10.7506 12.3004L10.748 12.3181C10.8299 11.7106 10.8771 11.0095 10.8771 10.2965C10.8771 9.87293 10.8602 9.45358 10.8282 9.03846L10.8316 9.0933C10.8265 9.00302 10.8214 8.92371 10.8189 8.86127C11.4981 8.34574 12.3579 8.0344 13.2902 8.0344C13.4016 8.0344 13.5113 8.03862 13.6201 8.04705L13.6058 8.04621C14.0732 8.15505 14.4251 8.54233 14.4808 9.01905L14.4816 9.02411C14.6824 9.63836 14.798 10.3454 14.798 11.0786C14.798 12.1468 14.5525 13.1576 14.1154 14.0588L14.1331 14.0183C14.0445 14.2149 13.961 14.4005 13.8893 14.5937V14.5954ZM11.6812 18.8006C11.5082 18.7568 11.3564 18.6926 11.218 18.6091L11.2256 18.6133C11.3707 18.5517 11.542 18.5003 11.7192 18.4674L11.7352 18.4648C13.0886 18.1864 13.297 17.9898 13.7535 17.4101C13.8581 17.2777 13.9762 17.1266 14.1407 16.9436C14.1745 16.9056 14.2015 16.86 14.2175 16.8094L14.2184 16.8069C14.3981 16.6474 14.5052 16.6913 14.6791 16.763C14.8706 16.8685 15.0123 17.0465 15.0672 17.2583L15.068 17.2642C15.0874 17.319 15.0992 17.3815 15.0992 17.4473C15.0992 17.5527 15.0697 17.6515 15.0191 17.735L15.0208 17.7325C14.4766 18.4766 13.6066 18.9551 12.6254 18.9551C12.2879 18.9551 11.963 18.8985 11.6601 18.7939L11.6812 18.8006ZM5.34718 13.4369C4.79789 11.7621 4.35071 9.77505 4.08661 7.7298L4.06889 7.5619C4.01743 7.29021 3.98874 6.97718 3.98874 6.65824C3.98874 5.13443 4.65446 3.76671 5.71083 2.83015L5.71589 2.82593C7.6523 1.45652 10.8189 2.25555 12.1562 2.6884L12.1461 2.69852C10.851 4.27802 10.0654 6.3199 10.0654 8.54402C10.0654 8.61996 10.0663 8.6959 10.068 8.77183V8.76086C10.068 8.84777 10.0747 8.97096 10.0848 9.13971C10.1127 9.48565 10.1287 9.88896 10.1287 10.2965C10.1287 10.9732 10.0848 11.6397 9.99877 12.2936L10.0072 12.2169C9.97936 12.3907 9.96418 12.5915 9.96418 12.7957C9.96418 13.8343 10.3709 14.7785 11.0349 15.4763L11.0332 15.4746C11.1181 15.5635 11.2067 15.647 11.299 15.7252C10.9336 16.1167 10.1388 16.9824 9.29339 17.9999C8.69518 18.7196 8.28174 18.5813 8.14589 18.5366C7.56793 18.2261 7.11483 17.7443 6.84821 17.1604L6.84061 17.1418C6.26349 16.0855 5.75555 14.857 5.38093 13.5711L5.34802 13.4386L5.34718 13.4369ZM27.688 16.4381C27.672 16.3901 27.6517 16.3487 27.6272 16.3107L27.6289 16.3133C27.4821 16.0357 27.126 15.953 26.5666 16.0686C24.8235 16.428 24.1485 16.207 23.9038 16.0483C25.2681 13.9795 26.3658 11.5832 27.0687 9.02327L27.11 8.84693C27.396 7.73908 27.9512 5.1319 27.2391 3.85783C27.1893 3.76333 27.1362 3.68233 27.0771 3.6064L27.0796 3.60977C25.7609 1.96024 23.7485 0.913147 21.4915 0.913147C21.4274 0.913147 21.3632 0.913991 21.3 0.915678H21.3092C21.2738 0.914834 21.2325 0.914834 21.1903 0.914834C20.058 0.914834 18.9687 1.10046 17.952 1.44218L18.0237 1.42108C17.8431 1.38733 17.6617 1.35865 17.4795 1.33502C17.0677 1.25655 16.591 1.20762 16.1033 1.20002H16.0966C16.0265 1.19665 15.9447 1.19496 15.862 1.19496C14.7525 1.19496 13.7206 1.5274 12.8608 2.09862L12.881 2.08596C11.9774 1.74762 7.83202 0.351209 5.26618 2.16865C4.00983 3.24021 3.21924 4.82393 3.21924 6.59327C3.21924 6.93499 3.24877 7.26996 3.3053 7.59565L3.30024 7.56105C3.58289 9.83749 4.04189 11.8861 4.67724 13.8563L4.61058 13.6166C5.02655 15.0645 5.54124 16.3175 6.17321 17.4979L6.12174 17.3933C6.48708 18.2235 7.11905 18.8816 7.90711 19.2706L7.92905 19.2807C8.0708 19.3221 8.23364 19.3466 8.40239 19.3466C9.02846 19.3466 9.57689 19.0166 9.88402 18.5205L9.88824 18.5129C10.7328 17.4971 11.5648 16.5875 11.9386 16.1859C12.3621 16.4213 12.8641 16.5664 13.3991 16.5833H13.4041L13.405 16.5875C13.3161 16.6932 13.2292 16.8007 13.1443 16.9098C12.7865 17.3637 12.7123 17.4574 11.5622 17.6945C11.2349 17.762 10.3658 17.9409 10.3531 18.5501C10.3531 18.5534 10.3531 18.5568 10.3531 18.561C10.3531 18.6851 10.3894 18.8006 10.4519 18.8977L10.4502 18.8951C10.7134 19.2284 11.0838 19.4672 11.5082 19.56L11.5209 19.5626C11.8576 19.6722 12.2457 19.7355 12.6473 19.7355C13.5754 19.7355 14.4242 19.3997 15.0807 18.8428L15.0756 18.8471C15.0554 19.1997 15.0444 19.6132 15.0444 20.0291C15.0444 21.5082 15.1887 22.9544 15.4629 24.3534L15.4401 24.2125C15.7624 25.3709 16.8036 26.2096 18.0422 26.2206H18.0439C18.3553 26.2181 18.6565 26.1818 18.9467 26.116L18.9189 26.121C20.538 25.9767 21.8138 24.6824 21.9285 23.0675L21.9294 23.0574C22.088 22.1394 22.353 20.0258 22.4972 18.7331C22.504 18.6783 22.5259 18.6294 22.558 18.5889L22.5571 18.5897C22.558 18.5889 22.6306 18.5399 23.0077 18.6218L23.0541 18.6294L23.3216 18.653L23.3376 18.6538C23.4178 18.6572 23.5123 18.6597 23.6068 18.6597C24.4708 18.6597 25.296 18.491 26.0494 18.1839L26.0064 18.1991C26.6856 17.8843 27.9099 17.1106 27.688 16.4381Z" fill="black"/>
</svg>
