<svg width="27" height="37" viewBox="0 0 27 37" fill="none" xmlns="http://www.w3.org/2000/svg">
<path d="M3.99609 28.3325H5.87891C6.30599 28.3325 6.66667 28.3976 6.96094 28.5278C7.25781 28.658 7.48307 28.8507 7.63672 29.1059C7.79297 29.3585 7.87109 29.6697 7.87109 30.0395C7.87109 30.2999 7.81771 30.5382 7.71094 30.7544C7.60677 30.9679 7.45573 31.1502 7.25781 31.3012C7.0625 31.4497 6.82812 31.5604 6.55469 31.6333L6.34375 31.7153H4.57422L4.56641 31.102H5.90234C6.17318 31.102 6.39844 31.0551 6.57812 30.9614C6.75781 30.865 6.89323 30.7361 6.98438 30.5747C7.07552 30.4132 7.12109 30.2348 7.12109 30.0395C7.12109 29.8208 7.07812 29.6294 6.99219 29.4653C6.90625 29.3012 6.77083 29.1749 6.58594 29.0864C6.40365 28.9952 6.16797 28.9497 5.87891 28.9497H4.75V34.02H3.99609V28.3325ZM7.32031 34.02L5.9375 31.4419L6.72266 31.438L8.125 33.9731V34.02H7.32031ZM10.5703 34.0981C10.276 34.0981 10.0091 34.0486 9.76953 33.9497C9.53255 33.8481 9.32812 33.7062 9.15625 33.5239C8.98698 33.3416 8.85677 33.1255 8.76562 32.8755C8.67448 32.6255 8.62891 32.352 8.62891 32.0551V31.8911C8.62891 31.5473 8.67969 31.2413 8.78125 30.9731C8.88281 30.7023 9.02083 30.4731 9.19531 30.2856C9.36979 30.0981 9.56771 29.9562 9.78906 29.8598C10.0104 29.7635 10.2396 29.7153 10.4766 29.7153C10.7786 29.7153 11.0391 29.7674 11.2578 29.8716C11.4792 29.9757 11.6602 30.1216 11.8008 30.3091C11.9414 30.4939 12.0456 30.7127 12.1133 30.9653C12.181 31.2153 12.2148 31.4887 12.2148 31.7856V32.1098H9.05859V31.52H11.4922V31.4653C11.4818 31.2778 11.4427 31.0955 11.375 30.9184C11.3099 30.7413 11.2057 30.5955 11.0625 30.4809C10.9193 30.3663 10.724 30.3091 10.4766 30.3091C10.3125 30.3091 10.1615 30.3442 10.0234 30.4145C9.88542 30.4822 9.76693 30.5838 9.66797 30.7192C9.56901 30.8546 9.49219 31.02 9.4375 31.2153C9.38281 31.4106 9.35547 31.6359 9.35547 31.8911V32.0551C9.35547 32.2557 9.38281 32.4445 9.4375 32.6216C9.49479 32.796 9.57682 32.9497 9.68359 33.0825C9.79297 33.2153 9.92448 33.3195 10.0781 33.395C10.2344 33.4705 10.4115 33.5083 10.6094 33.5083C10.8646 33.5083 11.0807 33.4562 11.2578 33.352C11.4349 33.2479 11.5898 33.1085 11.7227 32.9341L12.1602 33.2817C12.069 33.4197 11.9531 33.5512 11.8125 33.6762C11.6719 33.8012 11.4987 33.9028 11.293 33.9809C11.0898 34.0591 10.849 34.0981 10.5703 34.0981ZM15.5508 33.2973V31.1216C15.5508 30.9549 15.5169 30.8104 15.4492 30.688C15.3841 30.563 15.2852 30.4666 15.1523 30.3989C15.0195 30.3312 14.8555 30.2973 14.6602 30.2973C14.4779 30.2973 14.3177 30.3286 14.1797 30.3911C14.0443 30.4536 13.9375 30.5356 13.8594 30.6372C13.7839 30.7387 13.7461 30.8481 13.7461 30.9653H13.0234C13.0234 30.8143 13.0625 30.6645 13.1406 30.5161C13.2188 30.3676 13.3307 30.2335 13.4766 30.1137C13.625 29.9913 13.8021 29.895 14.0078 29.8247C14.2161 29.7518 14.4479 29.7153 14.7031 29.7153C15.0104 29.7153 15.2812 29.7674 15.5156 29.8716C15.7526 29.9757 15.9375 30.1333 16.0703 30.3442C16.2057 30.5525 16.2734 30.8143 16.2734 31.1294V33.0981C16.2734 33.2387 16.2852 33.3885 16.3086 33.5473C16.3346 33.7062 16.3724 33.8429 16.4219 33.9575V34.02H15.668C15.6315 33.9367 15.6029 33.826 15.582 33.688C15.5612 33.5473 15.5508 33.4171 15.5508 33.2973ZM15.6758 31.4575L15.6836 31.9653H14.9531C14.7474 31.9653 14.5638 31.9822 14.4023 32.0161C14.2409 32.0473 14.1055 32.0955 13.9961 32.1606C13.8867 32.2257 13.8034 32.3077 13.7461 32.4067C13.6888 32.5031 13.6602 32.6163 13.6602 32.7466C13.6602 32.8794 13.6901 33.0005 13.75 33.1098C13.8099 33.2192 13.8997 33.3064 14.0195 33.3716C14.1419 33.4341 14.2917 33.4653 14.4688 33.4653C14.6901 33.4653 14.8854 33.4184 15.0547 33.3247C15.224 33.2309 15.3581 33.1163 15.457 32.9809C15.5586 32.8455 15.6133 32.714 15.6211 32.5864L15.9297 32.9341C15.9115 33.0434 15.862 33.1645 15.7812 33.2973C15.7005 33.4301 15.5924 33.5577 15.457 33.6801C15.3242 33.7999 15.1654 33.9002 14.9805 33.9809C14.7982 34.0591 14.5924 34.0981 14.3633 34.0981C14.0768 34.0981 13.8255 34.0421 13.6094 33.9301C13.3958 33.8182 13.2292 33.6684 13.1094 33.4809C12.9922 33.2908 12.9336 33.0786 12.9336 32.8442C12.9336 32.6176 12.9779 32.4184 13.0664 32.2466C13.1549 32.0721 13.2826 31.9275 13.4492 31.813C13.6159 31.6958 13.8164 31.6072 14.0508 31.5473C14.2852 31.4874 14.5469 31.4575 14.8359 31.4575H15.6758ZM19.1016 33.5044C19.2734 33.5044 19.4323 33.4692 19.5781 33.3989C19.724 33.3286 19.8438 33.2322 19.9375 33.1098C20.0312 32.9848 20.0846 32.8429 20.0977 32.6841H20.7852C20.7721 32.9341 20.6875 33.1671 20.5312 33.3833C20.3776 33.5968 20.1758 33.77 19.9258 33.9028C19.6758 34.033 19.401 34.0981 19.1016 34.0981C18.7839 34.0981 18.5065 34.0421 18.2695 33.9301C18.0352 33.8182 17.8398 33.6645 17.6836 33.4692C17.5299 33.2739 17.4141 33.0499 17.3359 32.7973C17.2604 32.5421 17.2227 32.2726 17.2227 31.9887V31.8247C17.2227 31.5408 17.2604 31.2726 17.3359 31.02C17.4141 30.7648 17.5299 30.5395 17.6836 30.3442C17.8398 30.1489 18.0352 29.9952 18.2695 29.8833C18.5065 29.7713 18.7839 29.7153 19.1016 29.7153C19.4323 29.7153 19.7214 29.783 19.9688 29.9184C20.2161 30.0512 20.4102 30.2335 20.5508 30.4653C20.694 30.6945 20.7721 30.9549 20.7852 31.2466H20.0977C20.0846 31.0721 20.0352 30.9145 19.9492 30.7739C19.8659 30.6333 19.7513 30.5213 19.6055 30.438C19.4622 30.352 19.2943 30.3091 19.1016 30.3091C18.8802 30.3091 18.694 30.3533 18.543 30.4419C18.3945 30.5278 18.276 30.645 18.1875 30.7934C18.1016 30.9393 18.0391 31.102 18 31.2817C17.9635 31.4588 17.9453 31.6398 17.9453 31.8247V31.9887C17.9453 32.1736 17.9635 32.3559 18 32.5356C18.0365 32.7153 18.0977 32.8781 18.1836 33.0239C18.2721 33.1697 18.3906 33.2869 18.5391 33.3755C18.6901 33.4614 18.8776 33.5044 19.1016 33.5044ZM23.3672 29.7934V30.3481H21.082V29.7934H23.3672ZM21.8555 28.7661H22.5781V32.9731C22.5781 33.1163 22.6003 33.2244 22.6445 33.2973C22.6888 33.3702 22.7461 33.4184 22.8164 33.4419C22.8867 33.4653 22.9622 33.477 23.043 33.477C23.1029 33.477 23.1654 33.4718 23.2305 33.4614C23.2982 33.4484 23.349 33.438 23.3828 33.4301L23.3867 34.02C23.3294 34.0382 23.2539 34.0551 23.1602 34.0708C23.069 34.089 22.9583 34.0981 22.8281 34.0981C22.651 34.0981 22.4883 34.063 22.3398 33.9926C22.1914 33.9223 22.0729 33.8051 21.9844 33.6411C21.8984 33.4744 21.8555 33.2505 21.8555 32.9692V28.7661Z" fill="#1E1E1E"/>
<path d="M22.0535 7.86472C21.7688 7.76979 21.484 7.68015 21.1992 7.59577C21.2467 7.40065 21.2889 7.20554 21.3311 7.01042C21.9797 3.86745 21.5525 1.34147 20.1129 0.50827C18.726 -0.288019 16.4637 0.539911 14.175 2.53327C13.9482 2.72839 13.7268 2.93405 13.5158 3.13972C13.3734 3.00261 13.2258 2.8655 13.0781 2.73366C10.6787 0.603192 8.27402 -0.293292 6.83438 0.545184C5.45273 1.34675 5.04141 3.72507 5.62148 6.69929C5.67949 6.9946 5.74277 7.28464 5.8166 7.57995C5.4791 7.67487 5.14687 7.78034 4.83574 7.89108C2.01973 8.86667 0 10.4065 0 11.9991C0 13.6444 2.15156 15.295 5.07832 16.2969C5.31563 16.376 5.55293 16.4551 5.79551 16.5237C5.71641 16.8401 5.64785 17.1512 5.58457 17.4729C5.03086 20.3997 5.46328 22.72 6.84492 23.5163C8.26875 24.3389 10.6629 23.4952 12.9937 21.4544C13.1783 21.2909 13.3629 21.1221 13.5475 20.9428C13.7795 21.1696 14.0221 21.3858 14.2646 21.5967C16.5217 23.5374 18.7523 24.3231 20.1287 23.5268C21.5525 22.7042 22.0166 20.2098 21.4154 17.1723C21.368 16.9403 21.3152 16.703 21.2572 16.4604C21.426 16.413 21.5895 16.3602 21.7529 16.3075C24.7957 15.3003 27 13.6708 27 11.9991C27 10.4012 24.9223 8.85085 22.0535 7.86472ZM14.9186 3.38757C16.8803 1.67897 18.7102 1.00925 19.5434 1.48913C20.4346 2.00065 20.7773 4.06784 20.2184 6.78366C20.1814 6.96296 20.1445 7.13698 20.0971 7.311C18.9264 7.04733 17.7398 6.85749 16.548 6.75202C15.8625 5.77116 15.1137 4.83249 14.3016 3.95182C14.5072 3.75671 14.7076 3.57214 14.9186 3.38757ZM8.81719 14.736C9.08613 15.1948 9.36035 15.6536 9.65039 16.1018C8.82773 16.0122 8.01035 15.8803 7.20352 15.7063C7.43555 14.9469 7.72559 14.1612 8.06309 13.3596C8.30566 13.8237 8.55352 14.2825 8.81719 14.736ZM7.21934 8.39206C7.97871 8.22331 8.78555 8.0862 9.62402 7.98073C9.34453 8.41843 9.07031 8.86667 8.81191 9.32018C8.55352 9.76843 8.30039 10.2272 8.06309 10.6913C7.73086 9.90554 7.45137 9.13561 7.21934 8.39206ZM8.66426 12.0255C9.01231 11.2977 9.39199 10.5858 9.79277 9.88444C10.1936 9.18307 10.626 8.5028 11.0795 7.83308C11.8705 7.77507 12.6773 7.74343 13.5 7.74343C14.3227 7.74343 15.1348 7.77507 15.9205 7.83308C16.3687 8.49753 16.7959 9.1778 17.202 9.8739C17.608 10.57 17.9877 11.2819 18.3463 12.0044C17.993 12.7321 17.6133 13.4493 17.2072 14.1559C16.8064 14.8573 16.3793 15.5376 15.9311 16.2126C15.1453 16.2706 14.3279 16.2969 13.5 16.2969C12.6721 16.2969 11.8705 16.2706 11.0953 16.2231C10.6365 15.5534 10.2041 14.8678 9.79805 14.1665C9.39199 13.4651 9.01758 12.7532 8.66426 12.0255ZM18.1881 14.7255C18.457 14.2614 18.7102 13.7921 18.958 13.3175C19.2955 14.0821 19.5908 14.8573 19.8492 15.6536C19.0318 15.8382 18.2039 15.9805 17.3707 16.0755C17.6555 15.6325 17.9244 15.179 18.1881 14.7255ZM18.9475 10.6913C18.6996 10.2272 18.4465 9.76315 18.1828 9.30964C17.9244 8.8614 17.6555 8.41843 17.376 7.98073C18.225 8.0862 19.0371 8.22858 19.7965 8.40261C19.5539 9.18307 19.2691 9.94245 18.9475 10.6913ZM13.5105 4.75866C14.0643 5.35983 14.5863 5.99265 15.0715 6.64655C14.0273 6.59909 12.9779 6.59909 11.9338 6.64655C12.4506 5.96628 12.9832 5.33347 13.5105 4.75866ZM7.39336 1.52604C8.2793 1.00925 10.2463 1.74753 12.3188 3.58268C12.4506 3.6987 12.5824 3.82526 12.7195 3.95182C11.9021 4.83249 11.148 5.77116 10.4572 6.75202C9.26543 6.85749 8.08418 7.04206 6.91348 7.30046C6.84492 7.03151 6.78691 6.75729 6.72891 6.48308C6.2332 3.93073 6.56016 2.00593 7.39336 1.52604ZM6.10137 15.4268C5.87988 15.3635 5.66367 15.295 5.44746 15.2212C4.32422 14.8678 3.04805 14.3089 2.1252 13.5758C1.59258 13.2067 1.23398 12.6372 1.13379 11.9991C1.13379 11.0341 2.8002 9.80007 5.20488 8.96159C5.50547 8.85612 5.81133 8.7612 6.11719 8.67155C6.47578 9.81589 6.9082 10.9391 7.40918 12.0255C6.90293 13.1276 6.46523 14.2667 6.10137 15.4268ZM12.2502 20.5948C11.3801 21.3911 10.3729 22.0239 9.27598 22.4563C8.69062 22.7358 8.01562 22.7622 7.41445 22.5249C6.57598 22.0397 6.22793 20.1782 6.70254 17.6733C6.76055 17.378 6.82383 17.0827 6.89766 16.7926C8.07891 17.0458 9.2707 17.2198 10.4783 17.3094C11.1744 18.2956 11.9391 19.2395 12.7564 20.1255C12.5877 20.2889 12.4189 20.4471 12.2502 20.5948ZM13.5422 19.3133C13.0043 18.7333 12.4664 18.0899 11.9443 17.3991C12.4506 17.4202 12.9727 17.4307 13.5 17.4307C14.0432 17.4307 14.5758 17.4202 15.1031 17.3938C14.618 18.0635 14.0959 18.7016 13.5422 19.3133ZM20.4346 20.8954C20.3871 21.5387 20.0707 22.1399 19.5645 22.546C18.726 23.0311 16.9383 22.3983 15.0082 20.7425C14.7867 20.5526 14.5652 20.3469 14.3385 20.136C15.1453 19.2448 15.8889 18.3008 16.5639 17.3094C17.7715 17.2092 18.9738 17.0247 20.1604 16.7557C20.2131 16.9719 20.2605 17.1882 20.3027 17.3991C20.5611 18.5382 20.6033 19.7247 20.4346 20.8954ZM21.3943 15.2264C21.2467 15.2739 21.099 15.3214 20.9461 15.3635C20.577 14.2139 20.1234 13.0907 19.6014 11.9991C20.1076 10.9233 20.5348 9.81589 20.8934 8.6821C21.1676 8.7612 21.4313 8.84557 21.6844 8.92995C24.1418 9.7737 25.8662 11.0288 25.8662 11.9885C25.8662 13.0221 24.0258 14.3563 21.3943 15.2264ZM13.5 14.4354C14.8342 14.4354 15.9152 13.3544 15.9152 12.0202C15.9152 10.686 14.8342 9.60495 13.5 9.60495C12.1658 9.60495 11.0848 10.686 11.0848 12.0202C11.0848 13.3544 12.1658 14.4354 13.5 14.4354Z" fill="black"/>
</svg>
