<svg width="27" height="37" viewBox="0 0 27 37" fill="none" xmlns="http://www.w3.org/2000/svg">
<path d="M2.125 29.2896H4.00781C4.4349 29.2896 4.79557 29.3547 5.08984 29.485C5.38672 29.6152 5.61198 29.8079 5.76562 30.0631C5.92188 30.3157 6 30.6269 6 30.9967C6 31.2571 5.94661 31.4954 5.83984 31.7115C5.73568 31.9251 5.58464 32.1074 5.38672 32.2584C5.19141 32.4068 4.95703 32.5175 4.68359 32.5904L4.47266 32.6725H2.70312L2.69531 32.0592H4.03125C4.30208 32.0592 4.52734 32.0123 4.70703 31.9185C4.88672 31.8222 5.02214 31.6933 5.11328 31.5318C5.20443 31.3704 5.25 31.192 5.25 30.9967C5.25 30.7779 5.20703 30.5865 5.12109 30.4225C5.03516 30.2584 4.89974 30.1321 4.71484 30.0435C4.53255 29.9524 4.29688 29.9068 4.00781 29.9068H2.87891V34.9771H2.125V29.2896ZM5.44922 34.9771L4.06641 32.399L4.85156 32.3951L6.25391 34.9303V34.9771H5.44922ZM8.69922 35.0553C8.40495 35.0553 8.13802 35.0058 7.89844 34.9068C7.66146 34.8053 7.45703 34.6633 7.28516 34.481C7.11589 34.2988 6.98568 34.0826 6.89453 33.8326C6.80339 33.5826 6.75781 33.3092 6.75781 33.0123V32.8482C6.75781 32.5045 6.80859 32.1985 6.91016 31.9303C7.01172 31.6594 7.14974 31.4303 7.32422 31.2428C7.4987 31.0553 7.69661 30.9133 7.91797 30.817C8.13932 30.7206 8.36849 30.6725 8.60547 30.6725C8.90755 30.6725 9.16797 30.7245 9.38672 30.8287C9.60807 30.9329 9.78906 31.0787 9.92969 31.2662C10.0703 31.4511 10.1745 31.6699 10.2422 31.9225C10.3099 32.1725 10.3438 32.4459 10.3438 32.7428V33.067H7.1875V32.4771H9.62109V32.4225C9.61068 32.235 9.57161 32.0527 9.50391 31.8756C9.4388 31.6985 9.33464 31.5527 9.19141 31.4381C9.04818 31.3235 8.85286 31.2662 8.60547 31.2662C8.44141 31.2662 8.29036 31.3014 8.15234 31.3717C8.01432 31.4394 7.89583 31.5409 7.79688 31.6764C7.69792 31.8118 7.62109 31.9771 7.56641 32.1725C7.51172 32.3678 7.48438 32.593 7.48438 32.8482V33.0123C7.48438 33.2128 7.51172 33.4016 7.56641 33.5787C7.6237 33.7532 7.70573 33.9068 7.8125 34.0396C7.92188 34.1725 8.05339 34.2766 8.20703 34.3521C8.36328 34.4277 8.54036 34.4654 8.73828 34.4654C8.99349 34.4654 9.20964 34.4133 9.38672 34.3092C9.5638 34.205 9.71875 34.0657 9.85156 33.8912L10.2891 34.2389C10.1979 34.3769 10.082 34.5084 9.94141 34.6334C9.80078 34.7584 9.6276 34.86 9.42188 34.9381C9.21875 35.0162 8.97786 35.0553 8.69922 35.0553ZM13.8516 34.1568V28.9771H14.5781V34.9771H13.9141L13.8516 34.1568ZM11.0078 32.9107V32.8287C11.0078 32.5058 11.0469 32.2128 11.125 31.9498C11.2057 31.6842 11.319 31.4563 11.4648 31.2662C11.6133 31.0761 11.7891 30.9303 11.9922 30.8287C12.1979 30.7245 12.4271 30.6725 12.6797 30.6725C12.9453 30.6725 13.1771 30.7193 13.375 30.8131C13.5755 30.9042 13.7448 31.0383 13.8828 31.2154C14.0234 31.3899 14.1341 31.6008 14.2148 31.8482C14.2956 32.0956 14.3516 32.3756 14.3828 32.6881V33.0475C14.3542 33.3574 14.2982 33.636 14.2148 33.8834C14.1341 34.1308 14.0234 34.3417 13.8828 34.5162C13.7448 34.6907 13.5755 34.8248 13.375 34.9185C13.1745 35.0097 12.9401 35.0553 12.6719 35.0553C12.4245 35.0553 12.1979 35.0019 11.9922 34.8951C11.7891 34.7883 11.6133 34.6386 11.4648 34.4459C11.319 34.2532 11.2057 34.0266 11.125 33.7662C11.0469 33.5032 11.0078 33.218 11.0078 32.9107ZM11.7344 32.8287V32.9107C11.7344 33.1217 11.7552 33.3196 11.7969 33.5045C11.8411 33.6894 11.9089 33.8521 12 33.9928C12.0911 34.1334 12.207 34.2441 12.3477 34.3248C12.4883 34.4029 12.6562 34.442 12.8516 34.442C13.0911 34.442 13.2878 34.3912 13.4414 34.2896C13.5977 34.1881 13.7227 34.054 13.8164 33.8873C13.9102 33.7206 13.9831 33.5396 14.0352 33.3443V32.4029C14.0039 32.2597 13.9583 32.1217 13.8984 31.9889C13.8411 31.8534 13.7656 31.7337 13.6719 31.6295C13.5807 31.5227 13.4674 31.4381 13.332 31.3756C13.1992 31.3131 13.0417 31.2818 12.8594 31.2818C12.6615 31.2818 12.4909 31.3235 12.3477 31.4068C12.207 31.4876 12.0911 31.5995 12 31.7428C11.9089 31.8834 11.8411 32.0475 11.7969 32.235C11.7552 32.4199 11.7344 32.6178 11.7344 32.8287ZM18.2891 34.0006V30.7506H19.0156V34.9771H18.3242L18.2891 34.0006ZM18.4258 33.11L18.7266 33.1021C18.7266 33.3834 18.6966 33.6438 18.6367 33.8834C18.5794 34.1204 18.4857 34.3261 18.3555 34.5006C18.2253 34.6751 18.0547 34.8118 17.8438 34.9107C17.6328 35.0071 17.3763 35.0553 17.0742 35.0553C16.8685 35.0553 16.6797 35.0253 16.5078 34.9654C16.3385 34.9055 16.1927 34.8131 16.0703 34.6881C15.9479 34.5631 15.8529 34.4003 15.7852 34.1998C15.7201 33.9993 15.6875 33.7584 15.6875 33.4771V30.7506H16.4102V33.485C16.4102 33.6751 16.431 33.8326 16.4727 33.9576C16.5169 34.08 16.5755 34.1777 16.6484 34.2506C16.724 34.3209 16.8073 34.3704 16.8984 34.399C16.9922 34.4277 17.0885 34.442 17.1875 34.442C17.4948 34.442 17.7383 34.3834 17.918 34.2662C18.0977 34.1464 18.2266 33.9863 18.3047 33.7857C18.3854 33.5826 18.4258 33.3574 18.4258 33.11ZM20.6055 30.7506L21.5312 32.2896L22.4688 30.7506H23.3164L21.9336 32.8365L23.3594 34.9771H22.5234L21.5469 33.3912L20.5703 34.9771H19.7305L21.1523 32.8365L19.7734 30.7506H20.6055Z" fill="#1E1E1E"/>
<path d="M18.7118 17.8912C19.6894 17.8069 20.4477 16.9462 20.3982 15.918C20.3464 14.8897 19.5038 14.064 18.4767 14.064H18.408C17.3472 14.0989 16.5203 14.991 16.554 16.0541C16.5878 16.593 16.8083 17.0317 17.1098 17.3512C15.9308 19.644 14.1612 21.3292 11.4803 22.7456C9.67691 23.6884 7.77229 24.0439 5.91829 23.7907C4.36804 23.5725 3.15529 22.8795 2.41279 21.768C1.30129 20.0816 1.20004 18.2625 2.12591 16.4422C2.80204 15.1271 3.81229 14.1664 4.48729 13.6939C4.31854 13.2562 4.11604 12.5149 4.01479 11.9591C-0.975713 15.5332 -0.468338 20.4202 1.04816 22.7299C2.17766 24.4151 4.48729 25.4929 7.01516 25.4929C7.68904 25.4929 8.39779 25.4434 9.08854 25.2746C13.4715 24.432 16.7914 21.8029 18.696 17.9261L18.7118 17.8912ZM24.7283 13.677C22.1172 10.6091 18.273 8.92386 13.89 8.92386H13.3163C13.0317 8.30061 12.3747 7.91248 11.6322 7.91248H11.5815C10.5207 7.91248 9.69379 8.82373 9.72866 9.88461C9.76241 10.8949 10.6219 11.7386 11.6502 11.7386H11.7334C12.4928 11.7049 13.1498 11.2324 13.4187 10.5585H14.043C16.6407 10.5585 19.0999 11.3167 21.342 12.7995C23.0599 13.929 24.2918 15.4117 24.9825 17.1825C25.5878 18.6315 25.5552 20.0479 24.9319 21.2291C23.9712 23.082 22.3523 24.0607 20.2125 24.0607C18.8637 24.0607 17.5497 23.6389 16.8747 23.3362C16.4708 23.6715 15.7958 24.2284 15.3064 24.5659C16.7892 25.2386 18.2899 25.6267 19.7389 25.6267C23.0262 25.6267 25.4685 23.7739 26.3967 21.9862C27.4069 19.9635 27.3237 16.5592 24.744 13.6432L24.7283 13.677ZM7.30091 18.4965C7.33354 19.5079 8.19304 20.3505 9.22241 20.3505H9.28991C10.3688 20.3167 11.1945 19.4246 11.1439 18.3615C11.1439 17.3501 10.2675 16.5086 9.23929 16.5086H9.17066C9.10316 16.5086 9.00304 16.5086 8.91754 16.5412C7.51916 14.181 6.92854 11.652 7.14904 8.92386C7.28291 6.86736 7.95791 5.07973 9.17066 3.59698C10.182 2.33248 12.0867 1.70811 13.3849 1.67548C17.0254 1.60686 18.543 6.14286 18.66 7.94623L20.3453 8.45136C19.9572 2.92311 16.5203 0.0228577 13.233 0.0228577C10.1483 0.0228577 7.30091 2.26498 6.15341 5.55223C4.58629 9.93523 5.61454 14.1484 7.53604 17.52C7.36841 17.7394 7.26716 18.1264 7.30091 18.4965Z" fill="black"/>
</svg>
