<svg width="46" height="37" viewBox="0 0 46 37" fill="none" xmlns="http://www.w3.org/2000/svg">
<path d="M14.7675 24.0625C14.7675 23.9297 14.7466 23.8125 14.705 23.7109C14.6659 23.6068 14.5956 23.513 14.494 23.4297C14.3951 23.3464 14.257 23.2669 14.08 23.1914C13.9055 23.1159 13.6841 23.0391 13.4159 22.9609C13.1346 22.8776 12.8807 22.7852 12.6542 22.6836C12.4276 22.5794 12.2336 22.4609 12.0721 22.3281C11.9107 22.1953 11.787 22.043 11.701 21.8711C11.6151 21.6992 11.5721 21.5026 11.5721 21.2812C11.5721 21.0599 11.6177 20.8555 11.7089 20.668C11.8 20.4805 11.9302 20.3177 12.0995 20.1797C12.2714 20.0391 12.4758 19.9297 12.7128 19.8516C12.9497 19.7734 13.2141 19.7344 13.5057 19.7344C13.9328 19.7344 14.2948 19.8164 14.5917 19.9805C14.8912 20.1419 15.119 20.3542 15.2753 20.6172C15.4315 20.8776 15.5096 21.1562 15.5096 21.4531H14.7596C14.7596 21.2396 14.7141 21.0508 14.6229 20.8867C14.5318 20.7201 14.3938 20.5898 14.2089 20.4961C14.024 20.3997 13.7896 20.3516 13.5057 20.3516C13.2375 20.3516 13.0162 20.3919 12.8417 20.4727C12.6672 20.5534 12.537 20.6628 12.451 20.8008C12.3677 20.9388 12.326 21.0964 12.326 21.2734C12.326 21.3932 12.3508 21.5026 12.4003 21.6016C12.4524 21.6979 12.5318 21.7878 12.6385 21.8711C12.7479 21.9544 12.8859 22.0312 13.0526 22.1016C13.2219 22.1719 13.4237 22.2396 13.6581 22.3047C13.981 22.3958 14.2596 22.4974 14.494 22.6094C14.7284 22.7214 14.9211 22.8477 15.0721 22.9883C15.2258 23.1263 15.3391 23.2839 15.412 23.4609C15.4875 23.6354 15.5253 23.8333 15.5253 24.0547C15.5253 24.2865 15.4784 24.4961 15.3846 24.6836C15.2909 24.8711 15.1568 25.0312 14.9823 25.1641C14.8078 25.2969 14.5982 25.3997 14.3534 25.4727C14.1112 25.543 13.8404 25.5781 13.5409 25.5781C13.2779 25.5781 13.0188 25.5417 12.7635 25.4688C12.5109 25.3958 12.2805 25.2865 12.0721 25.1406C11.8664 24.9948 11.701 24.8151 11.576 24.6016C11.4537 24.3854 11.3925 24.1354 11.3925 23.8516H12.1425C12.1425 24.0469 12.1802 24.2148 12.2557 24.3555C12.3313 24.4935 12.4341 24.6081 12.5643 24.6992C12.6971 24.7904 12.8469 24.8581 13.0135 24.9023C13.1828 24.944 13.3586 24.9648 13.5409 24.9648C13.8039 24.9648 14.0266 24.9284 14.2089 24.8555C14.3912 24.7826 14.5292 24.6784 14.6229 24.543C14.7193 24.4076 14.7675 24.2474 14.7675 24.0625ZM18.1464 21.2734V21.8281H15.8612V21.2734H18.1464ZM16.6346 20.2461H17.3573V24.4531C17.3573 24.5964 17.3794 24.7044 17.4237 24.7773C17.468 24.8503 17.5253 24.8984 17.5956 24.9219C17.6659 24.9453 17.7414 24.957 17.8221 24.957C17.882 24.957 17.9445 24.9518 18.0096 24.9414C18.0774 24.9284 18.1281 24.918 18.162 24.9102L18.1659 25.5C18.1086 25.5182 18.0331 25.5352 17.9393 25.5508C17.8482 25.569 17.7375 25.5781 17.6073 25.5781C17.4302 25.5781 17.2675 25.543 17.119 25.4727C16.9706 25.4023 16.8521 25.2852 16.7635 25.1211C16.6776 24.9544 16.6346 24.7305 16.6346 24.4492V20.2461ZM20.1815 25.0625L21.3573 21.2734H22.1307L20.4354 26.1523C20.3964 26.2565 20.3443 26.3685 20.2792 26.4883C20.2167 26.6107 20.1359 26.7266 20.037 26.8359C19.938 26.9453 19.8182 27.0339 19.6776 27.1016C19.5396 27.1719 19.3742 27.207 19.1815 27.207C19.1242 27.207 19.0513 27.1992 18.9628 27.1836C18.8742 27.168 18.8117 27.1549 18.7753 27.1445L18.7714 26.5586C18.7922 26.5612 18.8247 26.5638 18.869 26.5664C18.9159 26.5716 18.9484 26.5742 18.9667 26.5742C19.1307 26.5742 19.2701 26.5521 19.3846 26.5078C19.4992 26.4661 19.5956 26.3945 19.6737 26.293C19.7544 26.194 19.8234 26.0573 19.8807 25.8828L20.1815 25.0625ZM19.3182 21.2734L20.4159 24.5547L20.6034 25.3164L20.0839 25.582L18.5292 21.2734H19.3182ZM23.5682 19.5V25.5H22.8417V19.5H23.5682ZM26.4823 25.5781C26.188 25.5781 25.9211 25.5286 25.6815 25.4297C25.4445 25.3281 25.2401 25.1862 25.0682 25.0039C24.899 24.8216 24.7688 24.6055 24.6776 24.3555C24.5865 24.1055 24.5409 23.832 24.5409 23.5352V23.3711C24.5409 23.0273 24.5917 22.7214 24.6932 22.4531C24.7948 22.1823 24.9328 21.9531 25.1073 21.7656C25.2818 21.5781 25.4797 21.4362 25.701 21.3398C25.9224 21.2435 26.1516 21.1953 26.3885 21.1953C26.6906 21.1953 26.951 21.2474 27.1698 21.3516C27.3912 21.4557 27.5721 21.6016 27.7128 21.7891C27.8534 21.974 27.9576 22.1927 28.0253 22.4453C28.093 22.6953 28.1268 22.9688 28.1268 23.2656V23.5898H24.9706V23H27.4042V22.9453C27.3938 22.7578 27.3547 22.5755 27.287 22.3984C27.2219 22.2214 27.1177 22.0755 26.9745 21.9609C26.8313 21.8464 26.6359 21.7891 26.3885 21.7891C26.2245 21.7891 26.0734 21.8242 25.9354 21.8945C25.7974 21.9622 25.6789 22.0638 25.58 22.1992C25.481 22.3346 25.4042 22.5 25.3495 22.6953C25.2948 22.8906 25.2675 23.1159 25.2675 23.3711V23.5352C25.2675 23.7357 25.2948 23.9245 25.3495 24.1016C25.4068 24.276 25.4888 24.4297 25.5956 24.5625C25.705 24.6953 25.8365 24.7995 25.9901 24.875C26.1464 24.9505 26.3234 24.9883 26.5214 24.9883C26.7766 24.9883 26.9927 24.9362 27.1698 24.832C27.3469 24.7279 27.5018 24.5885 27.6346 24.4141L28.0721 24.7617C27.981 24.8997 27.8651 25.0312 27.7245 25.1562C27.5839 25.2812 27.4107 25.3828 27.205 25.4609C27.0018 25.5391 26.7609 25.5781 26.4823 25.5781ZM31.6346 24.6797V19.5H32.3612V25.5H31.6971L31.6346 24.6797ZM28.7909 23.4336V23.3516C28.7909 23.0286 28.83 22.7357 28.9081 22.4727C28.9888 22.207 29.1021 21.9792 29.2479 21.7891C29.3964 21.599 29.5721 21.4531 29.7753 21.3516C29.981 21.2474 30.2102 21.1953 30.4628 21.1953C30.7284 21.1953 30.9602 21.2422 31.1581 21.3359C31.3586 21.4271 31.5279 21.5612 31.6659 21.7383C31.8065 21.9128 31.9172 22.1237 31.9979 22.3711C32.0787 22.6185 32.1346 22.8984 32.1659 23.2109V23.5703C32.1372 23.8802 32.0813 24.1589 31.9979 24.4062C31.9172 24.6536 31.8065 24.8646 31.6659 25.0391C31.5279 25.2135 31.3586 25.3477 31.1581 25.4414C30.9576 25.5326 30.7232 25.5781 30.455 25.5781C30.2076 25.5781 29.981 25.5247 29.7753 25.418C29.5721 25.3112 29.3964 25.1615 29.2479 24.9688C29.1021 24.776 28.9888 24.5495 28.9081 24.2891C28.83 24.026 28.7909 23.7409 28.7909 23.4336ZM29.5175 23.3516V23.4336C29.5175 23.6445 29.5383 23.8424 29.58 24.0273C29.6242 24.2122 29.6919 24.375 29.7831 24.5156C29.8742 24.6562 29.9901 24.7669 30.1307 24.8477C30.2714 24.9258 30.4393 24.9648 30.6346 24.9648C30.8742 24.9648 31.0708 24.9141 31.2245 24.8125C31.3807 24.7109 31.5057 24.5768 31.5995 24.4102C31.6932 24.2435 31.7662 24.0625 31.8182 23.8672V22.9258C31.787 22.7826 31.7414 22.6445 31.6815 22.5117C31.6242 22.3763 31.5487 22.2565 31.455 22.1523C31.3638 22.0456 31.2505 21.9609 31.1151 21.8984C30.9823 21.8359 30.8247 21.8047 30.6425 21.8047C30.4445 21.8047 30.274 21.8464 30.1307 21.9297C29.9901 22.0104 29.8742 22.1224 29.7831 22.2656C29.6919 22.4062 29.6242 22.5703 29.58 22.7578C29.5383 22.9427 29.5175 23.1406 29.5175 23.3516ZM4.25183 32.6914H5.00183C4.96277 33.0508 4.8599 33.3724 4.69324 33.6562C4.52657 33.9401 4.29089 34.1654 3.98621 34.332C3.68152 34.4961 3.30131 34.5781 2.84558 34.5781C2.51225 34.5781 2.20886 34.5156 1.93542 34.3906C1.66459 34.2656 1.43152 34.0885 1.23621 33.8594C1.04089 33.6276 0.889852 33.3503 0.783081 33.0273C0.678914 32.7018 0.626831 32.3398 0.626831 31.9414V31.375C0.626831 30.9766 0.678914 30.6159 0.783081 30.293C0.889852 29.9674 1.0422 29.6888 1.24011 29.457C1.44063 29.2253 1.68152 29.0469 1.96277 28.9219C2.24402 28.7969 2.56042 28.7344 2.91199 28.7344C3.34167 28.7344 3.70496 28.8151 4.00183 28.9766C4.29871 29.138 4.52917 29.362 4.69324 29.6484C4.8599 29.9323 4.96277 30.2617 5.00183 30.6367H4.25183C4.21537 30.3711 4.14766 30.1432 4.04871 29.9531C3.94975 29.7604 3.80912 29.612 3.62683 29.5078C3.44454 29.4036 3.20626 29.3516 2.91199 29.3516C2.65938 29.3516 2.43673 29.3997 2.24402 29.4961C2.05391 29.5924 1.89376 29.7292 1.76355 29.9062C1.63595 30.0833 1.53959 30.2956 1.47449 30.543C1.40938 30.7904 1.37683 31.0651 1.37683 31.3672V31.9414C1.37683 32.2201 1.40548 32.4818 1.46277 32.7266C1.52266 32.9714 1.61251 33.1862 1.7323 33.3711C1.85209 33.556 2.00444 33.7018 2.18933 33.8086C2.37423 33.9128 2.59298 33.9648 2.84558 33.9648C3.16589 33.9648 3.4211 33.9141 3.61121 33.8125C3.80131 33.7109 3.94454 33.5651 4.04089 33.375C4.13985 33.1849 4.21016 32.957 4.25183 32.6914ZM5.72839 32.4336V32.3438C5.72839 32.0391 5.77266 31.7565 5.86121 31.4961C5.94975 31.2331 6.07735 31.0052 6.24402 30.8125C6.41069 30.6172 6.61251 30.4661 6.84949 30.3594C7.08647 30.25 7.35209 30.1953 7.64636 30.1953C7.94324 30.1953 8.21016 30.25 8.44714 30.3594C8.68673 30.4661 8.88985 30.6172 9.05652 30.8125C9.22579 31.0052 9.3547 31.2331 9.44324 31.4961C9.53178 31.7565 9.57605 32.0391 9.57605 32.3438V32.4336C9.57605 32.7383 9.53178 33.0208 9.44324 33.2812C9.3547 33.5417 9.22579 33.7695 9.05652 33.9648C8.88985 34.1576 8.68803 34.3086 8.45105 34.418C8.21667 34.5247 7.95105 34.5781 7.65417 34.5781C7.3573 34.5781 7.09037 34.5247 6.85339 34.418C6.61641 34.3086 6.41329 34.1576 6.24402 33.9648C6.07735 33.7695 5.94975 33.5417 5.86121 33.2812C5.77266 33.0208 5.72839 32.7383 5.72839 32.4336ZM6.45105 32.3438V32.4336C6.45105 32.6445 6.47579 32.8438 6.52527 33.0312C6.57475 33.2161 6.64897 33.3802 6.74792 33.5234C6.84949 33.6667 6.97579 33.7799 7.12683 33.8633C7.27787 33.944 7.45365 33.9844 7.65417 33.9844C7.85209 33.9844 8.02527 33.944 8.17371 33.8633C8.32475 33.7799 8.44975 33.6667 8.54871 33.5234C8.64766 33.3802 8.72188 33.2161 8.77136 33.0312C8.82345 32.8438 8.84949 32.6445 8.84949 32.4336V32.3438C8.84949 32.1354 8.82345 31.9388 8.77136 31.7539C8.72188 31.5664 8.64636 31.401 8.5448 31.2578C8.44584 31.112 8.32084 30.9974 8.1698 30.9141C8.02136 30.8307 7.84688 30.7891 7.64636 30.7891C7.44845 30.7891 7.27397 30.8307 7.12292 30.9141C6.97449 30.9974 6.84949 31.112 6.74792 31.2578C6.64897 31.401 6.57475 31.5664 6.52527 31.7539C6.47579 31.9388 6.45105 32.1354 6.45105 32.3438ZM11.201 31.1133V34.5H10.4745V30.2734H11.162L11.201 31.1133ZM11.0526 32.2266L10.7167 32.2148C10.7193 31.9258 10.757 31.6589 10.83 31.4141C10.9029 31.1667 11.0109 30.9518 11.1542 30.7695C11.2974 30.5872 11.4758 30.4466 11.6893 30.3477C11.9029 30.2461 12.1503 30.1953 12.4315 30.1953C12.6294 30.1953 12.8117 30.224 12.9784 30.2812C13.1451 30.3359 13.2896 30.4232 13.412 30.543C13.5344 30.6628 13.6294 30.8164 13.6971 31.0039C13.7649 31.1914 13.7987 31.418 13.7987 31.6836V34.5H13.076V31.7188C13.076 31.4974 13.0383 31.3203 12.9628 31.1875C12.8899 31.0547 12.7857 30.9583 12.6503 30.8984C12.5149 30.8359 12.356 30.8047 12.1737 30.8047C11.9602 30.8047 11.7818 30.8424 11.6385 30.918C11.4953 30.9935 11.3807 31.0977 11.2948 31.2305C11.2089 31.3633 11.1464 31.5156 11.1073 31.6875C11.0708 31.8568 11.0526 32.0365 11.0526 32.2266ZM13.7909 31.8281L13.3065 31.9766C13.3091 31.7448 13.3469 31.5221 13.4198 31.3086C13.4953 31.0951 13.6034 30.9049 13.744 30.7383C13.8872 30.5716 14.063 30.4401 14.2714 30.3438C14.4797 30.2448 14.718 30.1953 14.9862 30.1953C15.2128 30.1953 15.4133 30.2253 15.5878 30.2852C15.7649 30.3451 15.9133 30.4375 16.0331 30.5625C16.1555 30.6849 16.2479 30.8424 16.3104 31.0352C16.3729 31.2279 16.4042 31.457 16.4042 31.7227V34.5H15.6776V31.7148C15.6776 31.4779 15.6399 31.2943 15.5643 31.1641C15.4914 31.0312 15.3872 30.9388 15.2518 30.8867C15.119 30.832 14.9602 30.8047 14.7753 30.8047C14.6164 30.8047 14.4758 30.832 14.3534 30.8867C14.231 30.9414 14.1281 31.0169 14.0448 31.1133C13.9615 31.207 13.8977 31.3151 13.8534 31.4375C13.8117 31.5599 13.7909 31.6901 13.7909 31.8281ZM18.2206 31.0859V36.125H17.494V30.2734H18.1581L18.2206 31.0859ZM21.0682 32.3516V32.4336C21.0682 32.7409 21.0318 33.026 20.9589 33.2891C20.8859 33.5495 20.7792 33.776 20.6385 33.9688C20.5005 34.1615 20.33 34.3112 20.1268 34.418C19.9237 34.5247 19.6906 34.5781 19.4276 34.5781C19.1594 34.5781 18.9224 34.5339 18.7167 34.4453C18.5109 34.3568 18.3365 34.2279 18.1932 34.0586C18.05 33.8893 17.9354 33.6862 17.8495 33.4492C17.7662 33.2122 17.7089 32.9453 17.6776 32.6484V32.2109C17.7089 31.8984 17.7675 31.6185 17.8534 31.3711C17.9393 31.1237 18.0526 30.9128 18.1932 30.7383C18.3365 30.5612 18.5096 30.4271 18.7128 30.3359C18.9159 30.2422 19.1503 30.1953 19.4159 30.1953C19.6815 30.1953 19.9172 30.2474 20.1229 30.3516C20.3287 30.4531 20.5018 30.599 20.6425 30.7891C20.7831 30.9792 20.8885 31.207 20.9589 31.4727C21.0318 31.7357 21.0682 32.0286 21.0682 32.3516ZM20.3417 32.4336V32.3516C20.3417 32.1406 20.3195 31.9427 20.2753 31.7578C20.231 31.5703 20.162 31.4062 20.0682 31.2656C19.9771 31.1224 19.8599 31.0104 19.7167 30.9297C19.5734 30.8464 19.4029 30.8047 19.205 30.8047C19.0227 30.8047 18.8638 30.8359 18.7284 30.8984C18.5956 30.9609 18.4823 31.0456 18.3885 31.1523C18.2948 31.2565 18.218 31.3763 18.1581 31.5117C18.1008 31.6445 18.0578 31.7826 18.0292 31.9258V32.9375C18.0813 33.1198 18.1542 33.2917 18.2479 33.4531C18.3417 33.612 18.4667 33.7409 18.6229 33.8398C18.7792 33.9362 18.9758 33.9844 19.2128 33.9844C19.4081 33.9844 19.576 33.944 19.7167 33.8633C19.8599 33.7799 19.9771 33.6667 20.0682 33.5234C20.162 33.3802 20.231 33.2161 20.2753 33.0312C20.3195 32.8438 20.3417 32.6445 20.3417 32.4336ZM21.7987 32.4336V32.3438C21.7987 32.0391 21.843 31.7565 21.9315 31.4961C22.0201 31.2331 22.1477 31.0052 22.3143 30.8125C22.481 30.6172 22.6828 30.4661 22.9198 30.3594C23.1568 30.25 23.4224 30.1953 23.7167 30.1953C24.0135 30.1953 24.2805 30.25 24.5175 30.3594C24.757 30.4661 24.9602 30.6172 25.1268 30.8125C25.2961 31.0052 25.425 31.2331 25.5135 31.4961C25.6021 31.7565 25.6464 32.0391 25.6464 32.3438V32.4336C25.6464 32.7383 25.6021 33.0208 25.5135 33.2812C25.425 33.5417 25.2961 33.7695 25.1268 33.9648C24.9602 34.1576 24.7583 34.3086 24.5214 34.418C24.287 34.5247 24.0214 34.5781 23.7245 34.5781C23.4276 34.5781 23.1607 34.5247 22.9237 34.418C22.6867 34.3086 22.4836 34.1576 22.3143 33.9648C22.1477 33.7695 22.0201 33.5417 21.9315 33.2812C21.843 33.0208 21.7987 32.7383 21.7987 32.4336ZM22.5214 32.3438V32.4336C22.5214 32.6445 22.5461 32.8438 22.5956 33.0312C22.6451 33.2161 22.7193 33.3802 22.8182 33.5234C22.9198 33.6667 23.0461 33.7799 23.1971 33.8633C23.3482 33.944 23.524 33.9844 23.7245 33.9844C23.9224 33.9844 24.0956 33.944 24.244 33.8633C24.3951 33.7799 24.5201 33.6667 24.619 33.5234C24.718 33.3802 24.7922 33.2161 24.8417 33.0312C24.8938 32.8438 24.9198 32.6445 24.9198 32.4336V32.3438C24.9198 32.1354 24.8938 31.9388 24.8417 31.7539C24.7922 31.5664 24.7167 31.401 24.6151 31.2578C24.5162 31.112 24.3912 30.9974 24.2401 30.9141C24.0917 30.8307 23.9172 30.7891 23.7167 30.7891C23.5188 30.7891 23.3443 30.8307 23.1932 30.9141C23.0448 30.9974 22.9198 31.112 22.8182 31.2578C22.7193 31.401 22.6451 31.5664 22.5956 31.7539C22.5461 31.9388 22.5214 32.1354 22.5214 32.3438ZM27.2753 31.1758V34.5H26.5526V30.2734H27.2362L27.2753 31.1758ZM27.1034 32.2266L26.8026 32.2148C26.8052 31.9258 26.8482 31.6589 26.9315 31.4141C27.0149 31.1667 27.132 30.9518 27.2831 30.7695C27.4341 30.5872 27.6138 30.4466 27.8221 30.3477C28.0331 30.2461 28.2662 30.1953 28.5214 30.1953C28.7297 30.1953 28.9172 30.224 29.0839 30.2812C29.2505 30.3359 29.3925 30.4245 29.5096 30.5469C29.6294 30.6693 29.7206 30.8281 29.7831 31.0234C29.8456 31.2161 29.8768 31.4518 29.8768 31.7305V34.5H29.1503V31.7227C29.1503 31.5013 29.1177 31.3242 29.0526 31.1914C28.9875 31.056 28.8925 30.9583 28.7675 30.8984C28.6425 30.8359 28.4888 30.8047 28.3065 30.8047C28.1268 30.8047 27.9628 30.8424 27.8143 30.918C27.6685 30.9935 27.5422 31.0977 27.4354 31.2305C27.3313 31.3633 27.2492 31.5156 27.1893 31.6875C27.132 31.8568 27.1034 32.0365 27.1034 32.2266ZM32.7284 34.5781C32.4341 34.5781 32.1672 34.5286 31.9276 34.4297C31.6906 34.3281 31.4862 34.1862 31.3143 34.0039C31.1451 33.8216 31.0149 33.6055 30.9237 33.3555C30.8326 33.1055 30.787 32.832 30.787 32.5352V32.3711C30.787 32.0273 30.8378 31.7214 30.9393 31.4531C31.0409 31.1823 31.1789 30.9531 31.3534 30.7656C31.5279 30.5781 31.7258 30.4362 31.9471 30.3398C32.1685 30.2435 32.3977 30.1953 32.6346 30.1953C32.9367 30.1953 33.1971 30.2474 33.4159 30.3516C33.6372 30.4557 33.8182 30.6016 33.9589 30.7891C34.0995 30.974 34.2037 31.1927 34.2714 31.4453C34.3391 31.6953 34.3729 31.9688 34.3729 32.2656V32.5898H31.2167V32H33.6503V31.9453C33.6399 31.7578 33.6008 31.5755 33.5331 31.3984C33.468 31.2214 33.3638 31.0755 33.2206 30.9609C33.0774 30.8464 32.882 30.7891 32.6346 30.7891C32.4706 30.7891 32.3195 30.8242 32.1815 30.8945C32.0435 30.9622 31.925 31.0638 31.826 31.1992C31.7271 31.3346 31.6503 31.5 31.5956 31.6953C31.5409 31.8906 31.5135 32.1159 31.5135 32.3711V32.5352C31.5135 32.7357 31.5409 32.9245 31.5956 33.1016C31.6529 33.276 31.7349 33.4297 31.8417 33.5625C31.951 33.6953 32.0826 33.7995 32.2362 33.875C32.3925 33.9505 32.5695 33.9883 32.7675 33.9883C33.0227 33.9883 33.2388 33.9362 33.4159 33.832C33.593 33.7279 33.7479 33.5885 33.8807 33.4141L34.3182 33.7617C34.2271 33.8997 34.1112 34.0312 33.9706 34.1562C33.83 34.2812 33.6568 34.3828 33.451 34.4609C33.2479 34.5391 33.007 34.5781 32.7284 34.5781ZM35.9393 31.1758V34.5H35.2167V30.2734H35.9003L35.9393 31.1758ZM35.7675 32.2266L35.4667 32.2148C35.4693 31.9258 35.5122 31.6589 35.5956 31.4141C35.6789 31.1667 35.7961 30.9518 35.9471 30.7695C36.0982 30.5872 36.2779 30.4466 36.4862 30.3477C36.6971 30.2461 36.9302 30.1953 37.1854 30.1953C37.3938 30.1953 37.5813 30.224 37.7479 30.2812C37.9146 30.3359 38.0565 30.4245 38.1737 30.5469C38.2935 30.6693 38.3846 30.8281 38.4471 31.0234C38.5096 31.2161 38.5409 31.4518 38.5409 31.7305V34.5H37.8143V31.7227C37.8143 31.5013 37.7818 31.3242 37.7167 31.1914C37.6516 31.056 37.5565 30.9583 37.4315 30.8984C37.3065 30.8359 37.1529 30.8047 36.9706 30.8047C36.7909 30.8047 36.6268 30.8424 36.4784 30.918C36.3326 30.9935 36.2063 31.0977 36.0995 31.2305C35.9953 31.3633 35.9133 31.5156 35.8534 31.6875C35.7961 31.8568 35.7675 32.0365 35.7675 32.2266ZM41.4081 30.2734V30.8281H39.1229V30.2734H41.4081ZM39.8964 29.2461H40.619V33.4531C40.619 33.5964 40.6412 33.7044 40.6854 33.7773C40.7297 33.8503 40.787 33.8984 40.8573 33.9219C40.9276 33.9453 41.0031 33.957 41.0839 33.957C41.1438 33.957 41.2063 33.9518 41.2714 33.9414C41.3391 33.9284 41.3899 33.918 41.4237 33.9102L41.4276 34.5C41.3703 34.5182 41.2948 34.5352 41.201 34.5508C41.1099 34.569 40.9992 34.5781 40.869 34.5781C40.6919 34.5781 40.5292 34.543 40.3807 34.4727C40.2323 34.4023 40.1138 34.2852 40.0253 34.1211C39.9393 33.9544 39.8964 33.7305 39.8964 33.4492V29.2461ZM44.7167 33.3789C44.7167 33.2747 44.6932 33.1784 44.6464 33.0898C44.6021 32.9987 44.5096 32.9167 44.369 32.8438C44.231 32.7682 44.0227 32.7031 43.744 32.6484C43.5096 32.599 43.2974 32.5404 43.1073 32.4727C42.9198 32.4049 42.7596 32.3229 42.6268 32.2266C42.4966 32.1302 42.3964 32.0169 42.326 31.8867C42.2557 31.7565 42.2206 31.6042 42.2206 31.4297C42.2206 31.263 42.257 31.1055 42.33 30.957C42.4055 30.8086 42.5109 30.6771 42.6464 30.5625C42.7844 30.4479 42.9497 30.3581 43.1425 30.293C43.3352 30.2279 43.55 30.1953 43.787 30.1953C44.1255 30.1953 44.4146 30.2552 44.6542 30.375C44.8938 30.4948 45.0774 30.6549 45.205 30.8555C45.3326 31.0534 45.3964 31.2734 45.3964 31.5156H44.6737C44.6737 31.3984 44.6385 31.2852 44.5682 31.1758C44.5005 31.0638 44.4003 30.9714 44.2675 30.8984C44.1372 30.8255 43.9771 30.7891 43.787 30.7891C43.5865 30.7891 43.4237 30.8203 43.2987 30.8828C43.1763 30.9427 43.0865 31.0195 43.0292 31.1133C42.9745 31.207 42.9471 31.306 42.9471 31.4102C42.9471 31.4883 42.9602 31.5586 42.9862 31.6211C43.0149 31.681 43.0643 31.737 43.1346 31.7891C43.205 31.8385 43.3039 31.8854 43.4315 31.9297C43.5591 31.974 43.7219 32.0182 43.9198 32.0625C44.2662 32.1406 44.5513 32.2344 44.7753 32.3438C44.9992 32.4531 45.1659 32.5872 45.2753 32.7461C45.3846 32.9049 45.4393 33.0977 45.4393 33.3242C45.4393 33.5091 45.4003 33.6784 45.3221 33.832C45.2466 33.9857 45.1359 34.1185 44.9901 34.2305C44.8469 34.3398 44.675 34.4258 44.4745 34.4883C44.2766 34.5482 44.0539 34.5781 43.8065 34.5781C43.4341 34.5781 43.119 34.5117 42.8612 34.3789C42.6034 34.2461 42.4081 34.0742 42.2753 33.8633C42.1425 33.6523 42.076 33.4297 42.076 33.1953H42.8026C42.813 33.3932 42.8703 33.5508 42.9745 33.668C43.0787 33.7826 43.2063 33.8646 43.3573 33.9141C43.5083 33.9609 43.6581 33.9844 43.8065 33.9844C44.0044 33.9844 44.1698 33.9583 44.3026 33.9062C44.438 33.8542 44.5409 33.7826 44.6112 33.6914C44.6815 33.6003 44.7167 33.4961 44.7167 33.3789Z" fill="#1E1E1E"/>
<path d="M27.8519 0.5L27.7673 0.939875C27.6364 1.7735 27.6838 2.012 28.0426 2.32137L28.389 2.60713L28.0302 4.20238C27.8158 5.15413 27.5529 5.95175 27.3859 6.21387C27.2426 6.44 27.0756 6.773 27.0395 6.95187C26.9797 7.16562 26.7766 7.3805 26.4663 7.57062C26.1921 7.72587 25.6538 8.14213 25.2724 8.47625C24.9678 8.74963 24.7579 8.91725 24.6439 8.98925L24.2715 9.28288C24.1519 9.47412 24.0842 9.62825 24.0583 9.74525C24.0323 9.86562 24.047 9.9455 24.0854 10.004C24.1226 10.0603 24.1869 10.0996 24.2749 10.1244C24.3791 10.1487 24.4864 10.1574 24.5931 10.1503C24.8347 10.1338 25.0738 10.0916 25.3063 10.0243C25.3853 10.0029 25.4473 9.98263 25.5015 9.96463C25.585 9.86225 25.7779 9.66875 26.1198 9.33237C27.0271 8.44025 27.3735 7.952 27.0158 8.08363C26.8838 8.13088 26.9436 8.01163 27.1704 7.77313C27.6488 7.3085 27.923 6.6065 28.4962 4.40487C28.9498 2.66675 28.9498 2.642 29.2838 2.642C29.4407 2.642 29.8841 2.669 29.8841 2.669V0.5H28.8663H27.8519ZM32.1838 4.06063C32.1116 4.06063 31.992 4.16862 31.9209 4.28787C31.79 4.50162 31.9446 4.63212 33.9147 5.85837C35.0849 6.5975 36.0282 7.2275 36.0045 7.27587C35.9808 7.31075 35.0251 7.93062 33.8797 8.645C31.8013 9.92975 31.79 9.94212 31.9807 10.2042C32.2199 10.5136 31.9807 10.6205 34.6786 8.942L36.6375 7.69212V6.75163L34.4518 5.40613C33.2704 4.66813 32.2436 4.073 32.1838 4.06063ZM14.0337 4.19225C13.9739 4.19225 12.9471 4.79975 11.7657 5.52537L9.55627 6.87088V7.81137L11.7532 9.1805C12.9719 9.92975 13.9987 10.5496 14.0461 10.5496C14.0935 10.5496 14.1894 10.4416 14.2853 10.3111C14.4286 10.085 14.3079 9.98937 12.2904 8.71587C10.3687 7.51325 10.1656 7.34675 10.3574 7.21625C10.477 7.133 11.3843 6.57275 12.3637 5.96638C14.5968 4.59725 14.4772 4.69175 14.2977 4.406C14.2267 4.28788 14.1059 4.181 14.0348 4.19225H14.0337ZM23.8326 4.21813C23.5031 4.21588 22.7945 4.7165 20.6731 6.44338C20.5817 6.6605 20.5738 6.81012 20.6156 6.90687C20.6427 6.97325 20.6923 7.01937 20.7611 7.05312C20.8288 7.08687 20.9169 7.10713 21.0139 7.115C21.2069 7.13188 21.4348 7.1015 21.6187 7.0655L21.7428 7.03737C21.7853 6.98057 21.8411 6.93499 21.9053 6.90462C22.0362 6.83262 22.5857 6.33312 23.1353 5.79762C24.1023 4.82112 24.3291 4.38012 23.9353 4.23725C23.903 4.22443 23.8674 4.21794 23.8326 4.21813ZM26.3105 4.8965C26.0205 4.90438 25.4981 5.23962 24.6033 5.95175C24.1542 6.31512 23.8698 6.51087 23.7175 6.55137L23.1262 7.01713C22.9039 7.42213 22.8712 7.673 22.9299 7.81137C22.9446 7.84551 22.9659 7.8764 22.9926 7.90228C23.0194 7.92815 23.051 7.94849 23.0856 7.96213C23.1718 7.99606 23.2637 8.01325 23.3564 8.01275C23.5779 8.0104 23.798 7.97823 24.0109 7.91712C24.1218 7.88745 24.2314 7.85291 24.3392 7.81362L24.372 7.80013L24.4318 7.76862C24.5446 7.6235 24.8041 7.35012 25.1291 7.03512C26.1559 6.04738 26.6806 5.34538 26.5735 5.08325C26.5249 4.95613 26.4414 4.892 26.3105 4.8965ZM23.5753 6.1115C23.4918 6.1205 23.3045 6.2645 22.9671 6.55925C22.4797 6.989 21.9482 7.2365 21.7643 7.12625C21.7215 7.13588 21.6786 7.14488 21.6356 7.15325C21.4483 7.19037 21.2148 7.22075 21.006 7.20387C20.9076 7.19794 20.8112 7.17391 20.7216 7.133C20.6371 7.09448 20.5697 7.02645 20.5321 6.94175C20.4903 6.8405 20.4903 6.7145 20.5377 6.55362L19.8043 7.15438L18.1444 8.5235V10.7431L23.5832 6.4715C23.5822 6.42473 23.5883 6.37807 23.6013 6.33312C23.643 6.18237 23.6408 6.10588 23.5753 6.11263V6.1115ZM25.9156 6.83037C25.8332 6.83037 25.6956 6.94625 25.4755 7.17913C25.1765 7.4975 24.706 7.80575 24.4566 7.86875L24.4182 7.889C24.3773 7.90586 24.3359 7.92161 24.2941 7.93625C24.2264 7.95875 24.1384 7.98575 24.0368 8.01275C23.8337 8.06787 23.581 8.1185 23.3553 8.11287C23.2489 8.11274 23.1435 8.09211 23.045 8.05213C22.9521 8.01396 22.8777 7.94137 22.8374 7.84963C22.7719 7.69325 22.7979 7.47388 22.9412 7.16225L18.1433 10.9299V12.2855H20.2511L24.7218 8.7845C24.838 8.65625 25.0129 8.48075 25.2487 8.26138C25.8806 7.6775 26.0239 7.47612 26.0239 7.178C26.0239 6.94625 25.998 6.82925 25.9156 6.82925V6.83037ZM26.9797 9.02412L26.5971 9.40438C26.3828 9.60688 26.0002 9.85662 25.7384 9.9635L25.6865 9.986L25.6832 9.99162L25.6719 10.0029C25.6617 10.0107 25.6572 10.0119 25.6493 10.0153C25.5448 10.0547 25.4386 10.0896 25.3311 10.1199C25.092 10.1893 24.8461 10.2326 24.5976 10.2493C24.4802 10.2568 24.3622 10.2465 24.2479 10.2189C24.1486 10.1971 24.0609 10.1394 24.0019 10.0569C23.9477 9.97363 23.9319 9.86225 23.9624 9.725C23.9866 9.62729 24.0226 9.53285 24.0696 9.44375L20.4621 12.2855H25.26L25.8332 11.6307C26.6208 10.715 26.9797 10.0603 26.9797 9.5V9.02412Z" fill="black"/>
</svg>
