<svg width="38" height="40" viewBox="0 0 38 40" fill="none" xmlns="http://www.w3.org/2000/svg">
<path d="M6 13.52V27.02H33V0.019989H6V13.52ZM27.7586 12.4445C28.4449 12.6155 28.9669 12.9204 29.4472 13.4176C29.6959 13.6831 30.0649 14.1669 30.0941 14.2839C30.1031 14.3176 28.9286 15.1051 28.2176 15.5472C28.1918 15.5641 28.0882 15.4527 27.9735 15.2817C27.6248 14.7755 27.2614 14.5572 26.7045 14.519C25.8855 14.4627 25.359 14.8914 25.3635 15.6069C25.356 15.7828 25.3957 15.9576 25.4782 16.1131C25.6582 16.4855 25.9935 16.7094 27.042 17.1627C28.9759 17.9952 29.8027 18.5431 30.3169 19.3227C30.8906 20.1924 31.02 21.5817 30.6296 22.6145C30.2021 23.7372 29.139 24.5 27.6428 24.752C27.1804 24.8341 26.0835 24.8217 25.5863 24.7317C24.5017 24.5382 23.4735 24.0027 22.839 23.2996C22.5904 23.0262 22.1055 22.3096 22.1359 22.259C22.1483 22.241 22.2596 22.1724 22.3834 22.1004C22.5049 22.0317 22.9583 21.7696 23.3869 21.521L24.1631 21.071L24.3263 21.3117C24.5535 21.6582 25.0496 22.1341 25.35 22.2927C26.2118 22.7472 27.3941 22.6831 27.9769 22.16C28.0941 22.0613 28.1868 21.9368 28.2479 21.7963C28.309 21.6558 28.3368 21.503 28.329 21.35C28.329 21.0372 28.2896 20.9 28.1265 20.6637C27.9172 20.3645 27.4886 20.1125 26.2714 19.5837C24.8786 18.9841 24.279 18.6117 23.73 18.02C23.3873 17.6295 23.1343 17.1687 22.9886 16.67C22.8862 16.2886 22.8604 15.3324 22.9414 14.9476C23.2283 13.601 24.2441 12.6639 25.71 12.3849C26.1859 12.2949 27.2917 12.3286 27.7586 12.4445ZM21.4204 13.5717L21.4294 14.6776H17.9137V24.6631H15.4275V14.6776H11.9152V13.5931C11.9152 12.9924 11.9276 12.4906 11.9445 12.4794C11.958 12.4614 14.0966 12.4524 16.6886 12.4569L21.408 12.4704L21.4204 13.5717Z" fill="black"/>
<path d="M2.90234 31.3325V37.02H2.16016V31.3325H2.90234ZM4.73047 31.3325V31.9497H0.335938V31.3325H4.73047ZM6.37109 36.5825L7.54688 32.7934H8.32031L6.625 37.6723C6.58594 37.7765 6.53385 37.8885 6.46875 38.0083C6.40625 38.1307 6.32552 38.2466 6.22656 38.3559C6.1276 38.4653 6.00781 38.5538 5.86719 38.6216C5.72917 38.6919 5.5638 38.727 5.37109 38.727C5.3138 38.727 5.24089 38.7192 5.15234 38.7036C5.0638 38.688 5.0013 38.6749 4.96484 38.6645L4.96094 38.0786C4.98177 38.0812 5.01432 38.0838 5.05859 38.0864C5.10547 38.0916 5.13802 38.0942 5.15625 38.0942C5.32031 38.0942 5.45964 38.0721 5.57422 38.0278C5.6888 37.9861 5.78516 37.9145 5.86328 37.813C5.94401 37.714 6.01302 37.5773 6.07031 37.4028L6.37109 36.5825ZM5.50781 32.7934L6.60547 36.0747L6.79297 36.8364L6.27344 37.102L4.71875 32.7934H5.50781ZM9.69531 33.6059V38.645H8.96875V32.7934H9.63281L9.69531 33.6059ZM12.543 34.8716V34.9536C12.543 35.2609 12.5065 35.546 12.4336 35.8091C12.3607 36.0695 12.2539 36.296 12.1133 36.4887C11.9753 36.6814 11.8047 36.8312 11.6016 36.938C11.3984 37.0447 11.1654 37.0981 10.9023 37.0981C10.6341 37.0981 10.3971 37.0538 10.1914 36.9653C9.98568 36.8768 9.8112 36.7479 9.66797 36.5786C9.52474 36.4093 9.41016 36.2062 9.32422 35.9692C9.24089 35.7322 9.18359 35.4653 9.15234 35.1684V34.7309C9.18359 34.4184 9.24219 34.1385 9.32812 33.8911C9.41406 33.6437 9.52734 33.4327 9.66797 33.2583C9.8112 33.0812 9.98438 32.9471 10.1875 32.8559C10.3906 32.7622 10.625 32.7153 10.8906 32.7153C11.1562 32.7153 11.3919 32.7674 11.5977 32.8716C11.8034 32.9731 11.9766 33.1189 12.1172 33.3091C12.2578 33.4992 12.3633 33.727 12.4336 33.9926C12.5065 34.2557 12.543 34.5486 12.543 34.8716ZM11.8164 34.9536V34.8716C11.8164 34.6606 11.7943 34.4627 11.75 34.2778C11.7057 34.0903 11.6367 33.9262 11.543 33.7856C11.4518 33.6424 11.3346 33.5304 11.1914 33.4497C11.0482 33.3663 10.8776 33.3247 10.6797 33.3247C10.4974 33.3247 10.3385 33.3559 10.2031 33.4184C10.0703 33.4809 9.95703 33.5656 9.86328 33.6723C9.76953 33.7765 9.69271 33.8963 9.63281 34.0317C9.57552 34.1645 9.53255 34.3025 9.50391 34.4458V35.4575C9.55599 35.6398 9.62891 35.8117 9.72266 35.9731C9.81641 36.132 9.94141 36.2609 10.0977 36.3598C10.2539 36.4562 10.4505 36.5044 10.6875 36.5044C10.8828 36.5044 11.0508 36.464 11.1914 36.3833C11.3346 36.2999 11.4518 36.1867 11.543 36.0434C11.6367 35.9002 11.7057 35.7361 11.75 35.5512C11.7943 35.3637 11.8164 35.1645 11.8164 34.9536ZM15.2188 37.0981C14.9245 37.0981 14.6576 37.0486 14.418 36.9497C14.181 36.8481 13.9766 36.7062 13.8047 36.5239C13.6354 36.3416 13.5052 36.1255 13.4141 35.8755C13.3229 35.6255 13.2773 35.352 13.2773 35.0551V34.8911C13.2773 34.5473 13.3281 34.2413 13.4297 33.9731C13.5312 33.7023 13.6693 33.4731 13.8438 33.2856C14.0182 33.0981 14.2161 32.9562 14.4375 32.8598C14.6589 32.7635 14.888 32.7153 15.125 32.7153C15.4271 32.7153 15.6875 32.7674 15.9062 32.8716C16.1276 32.9757 16.3086 33.1216 16.4492 33.3091C16.5898 33.4939 16.694 33.7127 16.7617 33.9653C16.8294 34.2153 16.8633 34.4887 16.8633 34.7856V35.1098H13.707V34.52H16.1406V34.4653C16.1302 34.2778 16.0911 34.0955 16.0234 33.9184C15.9583 33.7413 15.8542 33.5955 15.7109 33.4809C15.5677 33.3663 15.3724 33.3091 15.125 33.3091C14.9609 33.3091 14.8099 33.3442 14.6719 33.4145C14.5339 33.4822 14.4154 33.5838 14.3164 33.7192C14.2174 33.8546 14.1406 34.02 14.0859 34.2153C14.0312 34.4106 14.0039 34.6359 14.0039 34.8911V35.0551C14.0039 35.2557 14.0312 35.4445 14.0859 35.6216C14.1432 35.796 14.2253 35.9497 14.332 36.0825C14.4414 36.2153 14.5729 36.3195 14.7266 36.395C14.8828 36.4705 15.0599 36.5083 15.2578 36.5083C15.513 36.5083 15.7292 36.4562 15.9062 36.352C16.0833 36.2479 16.2383 36.1085 16.3711 35.9341L16.8086 36.2817C16.7174 36.4197 16.6016 36.5512 16.4609 36.6762C16.3203 36.8012 16.1471 36.9028 15.9414 36.9809C15.7383 37.0591 15.4974 37.0981 15.2188 37.0981ZM20.8477 35.5825C20.8477 35.4497 20.8268 35.3325 20.7852 35.2309C20.7461 35.1268 20.6758 35.033 20.5742 34.9497C20.4753 34.8663 20.3372 34.7869 20.1602 34.7114C19.9857 34.6359 19.7643 34.5591 19.4961 34.4809C19.2148 34.3976 18.9609 34.3051 18.7344 34.2036C18.5078 34.0994 18.3138 33.9809 18.1523 33.8481C17.9909 33.7153 17.8672 33.563 17.7812 33.3911C17.6953 33.2192 17.6523 33.0226 17.6523 32.8012C17.6523 32.5799 17.6979 32.3755 17.7891 32.188C17.8802 32.0005 18.0104 31.8377 18.1797 31.6997C18.3516 31.5591 18.556 31.4497 18.793 31.3716C19.0299 31.2934 19.2943 31.2544 19.5859 31.2544C20.013 31.2544 20.375 31.3364 20.6719 31.5005C20.9714 31.6619 21.1992 31.8742 21.3555 32.1372C21.5117 32.3976 21.5898 32.6762 21.5898 32.9731H20.8398C20.8398 32.7596 20.7943 32.5708 20.7031 32.4067C20.612 32.24 20.474 32.1098 20.2891 32.0161C20.1042 31.9197 19.8698 31.8716 19.5859 31.8716C19.3177 31.8716 19.0964 31.9119 18.9219 31.9926C18.7474 32.0734 18.6172 32.1827 18.5312 32.3208C18.4479 32.4588 18.4062 32.6163 18.4062 32.7934C18.4062 32.9132 18.431 33.0226 18.4805 33.1216C18.5326 33.2179 18.612 33.3077 18.7188 33.3911C18.8281 33.4744 18.9661 33.5512 19.1328 33.6216C19.3021 33.6919 19.5039 33.7596 19.7383 33.8247C20.0612 33.9158 20.3398 34.0174 20.5742 34.1294C20.8086 34.2413 21.0013 34.3676 21.1523 34.5083C21.306 34.6463 21.4193 34.8038 21.4922 34.9809C21.5677 35.1554 21.6055 35.3533 21.6055 35.5747C21.6055 35.8064 21.5586 36.0161 21.4648 36.2036C21.3711 36.3911 21.237 36.5512 21.0625 36.6841C20.888 36.8169 20.6784 36.9197 20.4336 36.9926C20.1914 37.063 19.9206 37.0981 19.6211 37.0981C19.3581 37.0981 19.099 37.0617 18.8438 36.9887C18.5911 36.9158 18.3607 36.8064 18.1523 36.6606C17.9466 36.5148 17.7812 36.3351 17.6562 36.1216C17.5339 35.9054 17.4727 35.6554 17.4727 35.3716H18.2227C18.2227 35.5669 18.2604 35.7348 18.3359 35.8755C18.4115 36.0135 18.5143 36.1281 18.6445 36.2192C18.7773 36.3104 18.9271 36.3781 19.0938 36.4223C19.263 36.464 19.4388 36.4848 19.6211 36.4848C19.8841 36.4848 20.1068 36.4484 20.2891 36.3755C20.4714 36.3025 20.6094 36.1984 20.7031 36.063C20.7995 35.9275 20.8477 35.7674 20.8477 35.5825ZM24.1484 36.5044C24.3203 36.5044 24.4792 36.4692 24.625 36.3989C24.7708 36.3286 24.8906 36.2322 24.9844 36.1098C25.0781 35.9848 25.1315 35.8429 25.1445 35.6841H25.832C25.819 35.9341 25.7344 36.1671 25.5781 36.3833C25.4245 36.5968 25.2227 36.77 24.9727 36.9028C24.7227 37.033 24.4479 37.0981 24.1484 37.0981C23.8307 37.0981 23.5534 37.0421 23.3164 36.9301C23.082 36.8182 22.8867 36.6645 22.7305 36.4692C22.5768 36.2739 22.4609 36.0499 22.3828 35.7973C22.3073 35.5421 22.2695 35.2726 22.2695 34.9887V34.8247C22.2695 34.5408 22.3073 34.2726 22.3828 34.02C22.4609 33.7648 22.5768 33.5395 22.7305 33.3442C22.8867 33.1489 23.082 32.9952 23.3164 32.8833C23.5534 32.7713 23.8307 32.7153 24.1484 32.7153C24.4792 32.7153 24.7682 32.783 25.0156 32.9184C25.263 33.0512 25.457 33.2335 25.5977 33.4653C25.7409 33.6945 25.819 33.9549 25.832 34.2466H25.1445C25.1315 34.0721 25.082 33.9145 24.9961 33.7739C24.9128 33.6333 24.7982 33.5213 24.6523 33.438C24.5091 33.352 24.3411 33.3091 24.1484 33.3091C23.9271 33.3091 23.7409 33.3533 23.5898 33.4419C23.4414 33.5278 23.3229 33.645 23.2344 33.7934C23.1484 33.9393 23.0859 34.102 23.0469 34.2817C23.0104 34.4588 22.9922 34.6398 22.9922 34.8247V34.9887C22.9922 35.1736 23.0104 35.3559 23.0469 35.5356C23.0833 35.7153 23.1445 35.8781 23.2305 36.0239C23.319 36.1697 23.4375 36.2869 23.5859 36.3755C23.737 36.4614 23.9245 36.5044 24.1484 36.5044ZM27.3672 33.4575V37.02H26.6445V32.7934H27.3477L27.3672 33.4575ZM28.6875 32.77L28.6836 33.4419C28.6237 33.4288 28.5664 33.421 28.5117 33.4184C28.4596 33.4132 28.3997 33.4106 28.332 33.4106C28.1654 33.4106 28.0182 33.4367 27.8906 33.4887C27.763 33.5408 27.6549 33.6137 27.5664 33.7075C27.4779 33.8012 27.4076 33.9132 27.3555 34.0434C27.306 34.171 27.2734 34.3117 27.2578 34.4653L27.0547 34.5825C27.0547 34.3273 27.0794 34.0877 27.1289 33.8637C27.181 33.6398 27.2604 33.4419 27.3672 33.27C27.474 33.0955 27.6094 32.9601 27.7734 32.8637C27.9401 32.7648 28.138 32.7153 28.3672 32.7153C28.4193 32.7153 28.4792 32.7218 28.5469 32.7348C28.6146 32.7452 28.6615 32.757 28.6875 32.77ZM30.1406 32.7934V37.02H29.4141V32.7934H30.1406ZM29.3594 31.6723C29.3594 31.5551 29.3945 31.4562 29.4648 31.3755C29.5378 31.2947 29.6445 31.2544 29.7852 31.2544C29.9232 31.2544 30.0286 31.2947 30.1016 31.3755C30.1771 31.4562 30.2148 31.5551 30.2148 31.6723C30.2148 31.7843 30.1771 31.8807 30.1016 31.9614C30.0286 32.0395 29.9232 32.0786 29.7852 32.0786C29.6445 32.0786 29.5378 32.0395 29.4648 31.9614C29.3945 31.8807 29.3594 31.7843 29.3594 31.6723ZM32.0234 33.6059V38.645H31.2969V32.7934H31.9609L32.0234 33.6059ZM34.8711 34.8716V34.9536C34.8711 35.2609 34.8346 35.546 34.7617 35.8091C34.6888 36.0695 34.582 36.296 34.4414 36.4887C34.3034 36.6814 34.1328 36.8312 33.9297 36.938C33.7266 37.0447 33.4935 37.0981 33.2305 37.0981C32.9622 37.0981 32.7253 37.0538 32.5195 36.9653C32.3138 36.8768 32.1393 36.7479 31.9961 36.5786C31.8529 36.4093 31.7383 36.2062 31.6523 35.9692C31.569 35.7322 31.5117 35.4653 31.4805 35.1684V34.7309C31.5117 34.4184 31.5703 34.1385 31.6562 33.8911C31.7422 33.6437 31.8555 33.4327 31.9961 33.2583C32.1393 33.0812 32.3125 32.9471 32.5156 32.8559C32.7188 32.7622 32.9531 32.7153 33.2188 32.7153C33.4844 32.7153 33.7201 32.7674 33.9258 32.8716C34.1315 32.9731 34.3047 33.1189 34.4453 33.3091C34.5859 33.4992 34.6914 33.727 34.7617 33.9926C34.8346 34.2557 34.8711 34.5486 34.8711 34.8716ZM34.1445 34.9536V34.8716C34.1445 34.6606 34.1224 34.4627 34.0781 34.2778C34.0339 34.0903 33.9648 33.9262 33.8711 33.7856C33.7799 33.6424 33.6628 33.5304 33.5195 33.4497C33.3763 33.3663 33.2057 33.3247 33.0078 33.3247C32.8255 33.3247 32.6667 33.3559 32.5312 33.4184C32.3984 33.4809 32.2852 33.5656 32.1914 33.6723C32.0977 33.7765 32.0208 33.8963 31.9609 34.0317C31.9036 34.1645 31.8607 34.3025 31.832 34.4458V35.4575C31.8841 35.6398 31.957 35.8117 32.0508 35.9731C32.1445 36.132 32.2695 36.2609 32.4258 36.3598C32.582 36.4562 32.7786 36.5044 33.0156 36.5044C33.2109 36.5044 33.3789 36.464 33.5195 36.3833C33.6628 36.2999 33.7799 36.1867 33.8711 36.0434C33.9648 35.9002 34.0339 35.7361 34.0781 35.5512C34.1224 35.3637 34.1445 35.1645 34.1445 34.9536ZM37.5625 32.7934V33.3481H35.2773V32.7934H37.5625ZM36.0508 31.7661H36.7734V35.9731C36.7734 36.1163 36.7956 36.2244 36.8398 36.2973C36.8841 36.3702 36.9414 36.4184 37.0117 36.4419C37.082 36.4653 37.1576 36.477 37.2383 36.477C37.2982 36.477 37.3607 36.4718 37.4258 36.4614C37.4935 36.4484 37.5443 36.438 37.5781 36.4301L37.582 37.02C37.5247 37.0382 37.4492 37.0551 37.3555 37.0708C37.2643 37.089 37.1536 37.0981 37.0234 37.0981C36.8464 37.0981 36.6836 37.063 36.5352 36.9926C36.3867 36.9223 36.2682 36.8051 36.1797 36.6411C36.0938 36.4744 36.0508 36.2505 36.0508 35.9692V31.7661Z" fill="#1E1E1E"/>
</svg>
