<svg width="36" height="37" viewBox="0 0 36 37" fill="none" xmlns="http://www.w3.org/2000/svg">
<path d="M2.74921 8L9.07945 18.9217H6.31614L4.53972 15.8434L2.74921 18.9217H0L3.15807 13.4679L0 8H2.74921ZM9.06535 8L6.28794 12.8072C5.45049 11.3183 5.45593 9.51242 6.29059 8.04438L6.31614 8H9.06535Z" fill="black"/>
<path d="M12.5759 10.5301C13.2667 10.5442 13.873 10.741 14.3946 11.1205L13.9153 11.8373C13.4923 11.5562 13.0271 11.4016 12.5336 11.3876C12.2657 11.3876 12.0543 11.4578 11.8851 11.5843C11.7018 11.7249 11.6031 11.9357 11.6031 12.2028C11.6031 12.3715 11.6595 12.5261 11.7864 12.6526C11.9133 12.7932 12.1106 12.8916 12.3926 12.9337C12.5477 12.9618 12.7592 12.99 13.027 13.0181C13.5487 13.0884 13.9435 13.2851 14.1972 13.5944C14.451 13.9036 14.5638 14.255 14.5638 14.6767C14.5215 15.8153 13.873 16.3635 12.59 16.3775C11.7582 16.3775 11.0533 16.1104 10.447 15.5904L11.011 14.9438C11.4621 15.3233 11.9838 15.506 12.6041 15.5201C13.3372 15.506 13.7038 15.239 13.7179 14.7189C13.7179 14.2831 13.4782 14.0301 12.9848 13.9458C12.7592 13.9177 12.5054 13.8755 12.2375 13.8333C11.7582 13.749 11.3916 13.5663 11.1378 13.2851C10.8841 12.99 10.7431 12.6386 10.7431 12.2169C10.7431 11.7108 10.9123 11.3032 11.2365 10.994C11.5467 10.6847 11.9979 10.5301 12.5759 10.5301ZM19.9353 10.5723V11.3454H18.3986V16.3353H17.5527V11.3454H16.0159V10.5723H19.9353ZM23.2203 10.5723L25.2505 16.3353H24.3905L23.9534 15.0422H21.8245L21.3875 16.3353H20.4852L22.5154 10.5723H23.2203ZM29.7902 10.5723V11.3454H28.2535V16.3353H27.4075V11.3454H25.8708V10.5723H29.7902ZM35.0489 10.5723V11.3876H32.3138V13.0321H34.6401V13.8052H32.3138V15.506H35.0489V16.3213H31.4679V10.5723H35.0489ZM22.9101 11.753H22.896L22.0783 14.2691H23.7137L22.9101 11.753Z" fill="black"/>
<path d="M7.26562 30.7734L8.19141 32.3125L9.12891 30.7734H9.97656L8.59375 32.8594L10.0195 35H9.18359L8.20703 33.4141L7.23047 35H6.39062L7.8125 32.8594L6.43359 30.7734H7.26562ZM13.8867 33.5625C13.8867 33.4297 13.8659 33.3125 13.8242 33.2109C13.7852 33.1068 13.7148 33.013 13.6133 32.9297C13.5143 32.8464 13.3763 32.7669 13.1992 32.6914C13.0247 32.6159 12.8034 32.5391 12.5352 32.4609C12.2539 32.3776 12 32.2852 11.7734 32.1836C11.5469 32.0794 11.3529 31.9609 11.1914 31.8281C11.0299 31.6953 10.9062 31.543 10.8203 31.3711C10.7344 31.1992 10.6914 31.0026 10.6914 30.7812C10.6914 30.5599 10.737 30.3555 10.8281 30.168C10.9193 29.9805 11.0495 29.8177 11.2188 29.6797C11.3906 29.5391 11.5951 29.4297 11.832 29.3516C12.069 29.2734 12.3333 29.2344 12.625 29.2344C13.0521 29.2344 13.4141 29.3164 13.7109 29.4805C14.0104 29.6419 14.2383 29.8542 14.3945 30.1172C14.5508 30.3776 14.6289 30.6562 14.6289 30.9531H13.8789C13.8789 30.7396 13.8333 30.5508 13.7422 30.3867C13.651 30.2201 13.513 30.0898 13.3281 29.9961C13.1432 29.8997 12.9089 29.8516 12.625 29.8516C12.3568 29.8516 12.1354 29.8919 11.9609 29.9727C11.7865 30.0534 11.6562 30.1628 11.5703 30.3008C11.487 30.4388 11.4453 30.5964 11.4453 30.7734C11.4453 30.8932 11.4701 31.0026 11.5195 31.1016C11.5716 31.1979 11.651 31.2878 11.7578 31.3711C11.8672 31.4544 12.0052 31.5312 12.1719 31.6016C12.3411 31.6719 12.543 31.7396 12.7773 31.8047C13.1003 31.8958 13.3789 31.9974 13.6133 32.1094C13.8477 32.2214 14.0404 32.3477 14.1914 32.4883C14.3451 32.6263 14.4583 32.7839 14.5312 32.9609C14.6068 33.1354 14.6445 33.3333 14.6445 33.5547C14.6445 33.7865 14.5977 33.9961 14.5039 34.1836C14.4102 34.3711 14.276 34.5312 14.1016 34.6641C13.9271 34.7969 13.7174 34.8997 13.4727 34.9727C13.2305 35.043 12.9596 35.0781 12.6602 35.0781C12.3971 35.0781 12.138 35.0417 11.8828 34.9688C11.6302 34.8958 11.3997 34.7865 11.1914 34.6406C10.9857 34.4948 10.8203 34.3151 10.6953 34.1016C10.5729 33.8854 10.5117 33.6354 10.5117 33.3516H11.2617C11.2617 33.5469 11.2995 33.7148 11.375 33.8555C11.4505 33.9935 11.5534 34.1081 11.6836 34.1992C11.8164 34.2904 11.9661 34.3581 12.1328 34.4023C12.3021 34.444 12.4779 34.4648 12.6602 34.4648C12.9232 34.4648 13.1458 34.4284 13.3281 34.3555C13.5104 34.2826 13.6484 34.1784 13.7422 34.043C13.8385 33.9076 13.8867 33.7474 13.8867 33.5625ZM17.2656 30.7734V31.3281H14.9805V30.7734H17.2656ZM15.7539 29.7461H16.4766V33.9531C16.4766 34.0964 16.4987 34.2044 16.543 34.2773C16.5872 34.3503 16.6445 34.3984 16.7148 34.4219C16.7852 34.4453 16.8607 34.457 16.9414 34.457C17.0013 34.457 17.0638 34.4518 17.1289 34.4414C17.1966 34.4284 17.2474 34.418 17.2812 34.4102L17.2852 35C17.2279 35.0182 17.1523 35.0352 17.0586 35.0508C16.9674 35.069 16.8568 35.0781 16.7266 35.0781C16.5495 35.0781 16.3867 35.043 16.2383 34.9727C16.0898 34.9023 15.9714 34.7852 15.8828 34.6211C15.7969 34.4544 15.7539 34.2305 15.7539 33.9492V29.7461ZM20.6055 34.2773V32.1016C20.6055 31.9349 20.5716 31.7904 20.5039 31.668C20.4388 31.543 20.3398 31.4466 20.207 31.3789C20.0742 31.3112 19.9102 31.2773 19.7148 31.2773C19.5326 31.2773 19.3724 31.3086 19.2344 31.3711C19.099 31.4336 18.9922 31.5156 18.9141 31.6172C18.8385 31.7188 18.8008 31.8281 18.8008 31.9453H18.0781C18.0781 31.7943 18.1172 31.6445 18.1953 31.4961C18.2734 31.3477 18.3854 31.2135 18.5312 31.0938C18.6797 30.9714 18.8568 30.875 19.0625 30.8047C19.2708 30.7318 19.5026 30.6953 19.7578 30.6953C20.0651 30.6953 20.3359 30.7474 20.5703 30.8516C20.8073 30.9557 20.9922 31.1133 21.125 31.3242C21.2604 31.5326 21.3281 31.7943 21.3281 32.1094V34.0781C21.3281 34.2188 21.3398 34.3685 21.3633 34.5273C21.3893 34.6862 21.4271 34.8229 21.4766 34.9375V35H20.7227C20.6862 34.9167 20.6576 34.806 20.6367 34.668C20.6159 34.5273 20.6055 34.3971 20.6055 34.2773ZM20.7305 32.4375L20.7383 32.9453H20.0078C19.8021 32.9453 19.6185 32.9622 19.457 32.9961C19.2956 33.0273 19.1602 33.0755 19.0508 33.1406C18.9414 33.2057 18.8581 33.2878 18.8008 33.3867C18.7435 33.4831 18.7148 33.5964 18.7148 33.7266C18.7148 33.8594 18.7448 33.9805 18.8047 34.0898C18.8646 34.1992 18.9544 34.2865 19.0742 34.3516C19.1966 34.4141 19.3464 34.4453 19.5234 34.4453C19.7448 34.4453 19.9401 34.3984 20.1094 34.3047C20.2786 34.2109 20.4128 34.0964 20.5117 33.9609C20.6133 33.8255 20.668 33.694 20.6758 33.5664L20.9844 33.9141C20.9661 34.0234 20.9167 34.1445 20.8359 34.2773C20.7552 34.4102 20.6471 34.5378 20.5117 34.6602C20.3789 34.7799 20.2201 34.8802 20.0352 34.9609C19.8529 35.0391 19.6471 35.0781 19.418 35.0781C19.1315 35.0781 18.8802 35.0221 18.6641 34.9102C18.4505 34.7982 18.2839 34.6484 18.1641 34.4609C18.0469 34.2708 17.9883 34.0586 17.9883 33.8242C17.9883 33.5977 18.0326 33.3984 18.1211 33.2266C18.2096 33.0521 18.3372 32.9076 18.5039 32.793C18.6706 32.6758 18.8711 32.5872 19.1055 32.5273C19.3398 32.4674 19.6016 32.4375 19.8906 32.4375H20.7305ZM24.2344 30.7734V31.3281H21.9492V30.7734H24.2344ZM22.7227 29.7461H23.4453V33.9531C23.4453 34.0964 23.4674 34.2044 23.5117 34.2773C23.556 34.3503 23.6133 34.3984 23.6836 34.4219C23.7539 34.4453 23.8294 34.457 23.9102 34.457C23.9701 34.457 24.0326 34.4518 24.0977 34.4414C24.1654 34.4284 24.2161 34.418 24.25 34.4102L24.2539 35C24.1966 35.0182 24.1211 35.0352 24.0273 35.0508C23.9362 35.069 23.8255 35.0781 23.6953 35.0781C23.5182 35.0781 23.3555 35.043 23.207 34.9727C23.0586 34.9023 22.9401 34.7852 22.8516 34.6211C22.7656 34.4544 22.7227 34.2305 22.7227 33.9492V29.7461ZM26.8359 35.0781C26.5417 35.0781 26.2747 35.0286 26.0352 34.9297C25.7982 34.8281 25.5938 34.6862 25.4219 34.5039C25.2526 34.3216 25.1224 34.1055 25.0312 33.8555C24.9401 33.6055 24.8945 33.332 24.8945 33.0352V32.8711C24.8945 32.5273 24.9453 32.2214 25.0469 31.9531C25.1484 31.6823 25.2865 31.4531 25.4609 31.2656C25.6354 31.0781 25.8333 30.9362 26.0547 30.8398C26.276 30.7435 26.5052 30.6953 26.7422 30.6953C27.0443 30.6953 27.3047 30.7474 27.5234 30.8516C27.7448 30.9557 27.9258 31.1016 28.0664 31.2891C28.207 31.474 28.3112 31.6927 28.3789 31.9453C28.4466 32.1953 28.4805 32.4688 28.4805 32.7656V33.0898H25.3242V32.5H27.7578V32.4453C27.7474 32.2578 27.7083 32.0755 27.6406 31.8984C27.5755 31.7214 27.4714 31.5755 27.3281 31.4609C27.1849 31.3464 26.9896 31.2891 26.7422 31.2891C26.5781 31.2891 26.4271 31.3242 26.2891 31.3945C26.151 31.4622 26.0326 31.5638 25.9336 31.6992C25.8346 31.8346 25.7578 32 25.7031 32.1953C25.6484 32.3906 25.6211 32.6159 25.6211 32.8711V33.0352C25.6211 33.2357 25.6484 33.4245 25.7031 33.6016C25.7604 33.776 25.8424 33.9297 25.9492 34.0625C26.0586 34.1953 26.1901 34.2995 26.3438 34.375C26.5 34.4505 26.6771 34.4883 26.875 34.4883C27.1302 34.4883 27.3464 34.4362 27.5234 34.332C27.7005 34.2279 27.8555 34.0885 27.9883 33.9141L28.4258 34.2617C28.3346 34.3997 28.2188 34.5312 28.0781 34.6562C27.9375 34.7812 27.7643 34.8828 27.5586 34.9609C27.3555 35.0391 27.1146 35.0781 26.8359 35.0781Z" fill="#1E1E1E"/>
</svg>
